<?xml version="1.0" standalone="no"?>
<!DOCTYPE svg PUBLIC "-//W3C//DTD SVG 1.1//EN" "http://www.w3.org/Graphics/SVG/1.1/DTD/svg11.dtd" >
<svg xmlns="http://www.w3.org/2000/svg">
<metadata>
This is a custom SVG webfont generated by Font Squirrel.
Copyright   : Typeface and data copyright 2009 Mike Afford wwwmikeaffordcom
</metadata>
<defs>
<font id="TolkienesqueRegular" horiz-adv-x="500" >
<font-face units-per-em="1000" ascent="800" descent="-200" />
<missing-glyph horiz-adv-x="254" />
<glyph unicode=" "  horiz-adv-x="254" />
<glyph unicode="&#x09;" horiz-adv-x="254" />
<glyph unicode="&#xa0;" horiz-adv-x="254" />
<glyph unicode="!" horiz-adv-x="304" d="M102 302q2 41 5 123l15 54q7 31 8 56q2 29 3 58q1 33 -7 57q-19 51 -72 80q-9 5 -19 24.5t-15 24.5t-5 11t6 15q10 14 11 16q22 43 67 43q13 0 25 -5q43 -16 57 -25q29 -19 31 -49q6 -20 16 -55q4 -16 11 -48q1 -18 11 -53q2 -4 2 -10q0 -9 -6 -26q-6 -20 -7 -25 q-3 -22 -1 -61q2 -43 0 -61q-3 -8 -8 -25q1 -8 1 -25q0 -3 -2.5 -11t-2.5 -13q0 -4 4 -15t2 -18q-4 -9 -2 -24q2 -16 1 -24q-1 -4 8 -23.5t9 -31.5q0 -33 -67 -40q-52 -8 -71 41q-10 26 -8 65zM217 138q27 -8 32 -10q19 -8 22.5 -20.5t3.5 -22.5q0 -28 -24 -53 q-6 -6 -49 -41q-16 -12 -43 -12q-29 0 -50 19q-6 13 -23 35q-15 13 -15 22q1 22 12 42q10 9 26 29q8 15 32 20q27 6 76 -8z" />
<glyph unicode="&#x22;" horiz-adv-x="592" d="M197 885q38 10 52 0q11 -8 11.5 -23t0.5 -29q1 -6 8 -23q5 -13 4 -22q-1 -7 -7 -30q-5 -18 -3.5 -28t-10.5 -46q-2 -3 -7 -59q1 -13 1 -26q0 -15 -8 -24q-14 -14 -41 -23q-20 -6 -33 13q-1 10 -9 28q-9 14 -9 23q2 38 -7 49q-22 29 -19 52q5 39 -7 57q-21 29 -8 59 q14 32 92 52zM427 885q38 10 52 0q10 -8 11 -24v-28q1 -6 8 -23q5 -13 4 -22q0 -7 -7 -30q-5 -18 -3.5 -28t-10.5 -46q-1 -3 -6 -59q0 -13 1 -26q0 -15 -8 -24q-14 -14 -41 -23q-21 -6 -33 13q-2 10 -9 28q-10 14 -9 23q1 38 -7 49q-23 29 -20 52q5 39 -7 57q-20 29 -7 59 q14 32 92 52z" />
<glyph unicode="#" horiz-adv-x="703" d="M627 365h-127l-39 -125h137v-78h-160l-49 -162h-73l49 162h-112l-49 -162h-73l49 162h-104v78h128l38 125h-137v78h161l50 167h73l-51 -167h113l50 167h73l-51 -167h104v-78zM428 366h-114l-38 -127h113z" />
<glyph unicode="$" horiz-adv-x="557" d="M326 791q0 -7 -9.5 -30.5t-9.5 -33.5q0 -12 10 -18q24 -13 40 -9q4 1 8 1q8 0 18 -5q15 -7 19 -8q13 -4 33 -24.5t35 -24.5q35 -10 35 -48q0 -13 -6 -26q-8 -17 -36 -26q-9 -4 -46 6q-20 5 -45 27q-28 25 -41 31q-3 2 -5 2q-16 0 -16 -45q0 -23 4 -32q13 -36 10 -48 q-5 -22 24 -25q13 -6 39 -15q14 0 42 -11q13 -3 38 -19q1 -2 17 -12q5 -4 8.5 -12t7.5 -10.5t15 -7.5q4 -2 11 -18q1 -2 13 -48q2 -9 -1 -24q-3 -19 -3 -25q1 -30 -4 -55q-11 -59 -32 -89q-12 -16 -33 -39q-7 -4 -20 -14q-7 -8 -23 -20q-19 -6 -31 -20q-4 -5 -41 -25 q-7 -3 -20 -10q-7 -4 -7 -7v-10q-2 -24 -20 -28t-45 7q-15 6 -17 10q-3 5 0 19q2 7 2 11q0 12 -21 19q-14 1 -42 6q-3 2 -13 12q-1 1 -22 3q-16 2 -23 4q-13 3 -20.5 12t-34 25t-35.5 30q-19 28 -18 46q0 7 17 49q6 14 9 18q5 9 14 13q30 12 47 5q18 -6 33 -32 q19 -31 27.5 -38.5t38.5 -16.5q6 -2 19 -13t22 -10q0 20 9 62q5 13 1 64q-2 23 -1 34q0 7 -4.5 17t-4.5 15q-2 8 0 20q3 13 3 17q0 15 -15 22q-21 4 -62 17q-21 4 -61 16q-40 17 -46 42q-10 42 -13 70q-3 10 -7 31q-3 45 37 78q14 13 44 35q5 8 19 20q12 5 36 16q6 3 30 6 q21 2 30 11t9 20q0 7 -5 20.5t-5 20.5q0 21 23 29q14 5 34 4q24 -1 33 -11zM158 586q-2 -9 -2 -18q0 -49 34 -69q30 -17 51 -8q8 3 9 21q1 14 1 28q0 5 4 20.5t4 23.5q0 6 -4.5 16.5t-3.5 16.5q3 20 -4 23q-11 6 -23 6q-23 0 -43 -18t-23 -42zM432 247q-2 10 -15 27 q-16 10 -21 25q-2 7 -34 11q-13 4 -39 11q1 -18 -1 -54q-1 -16 3 -30q2 -7 -1.5 -16t-3.5 -14q0 -7 3 -30q2 -18 1 -29q-5 -55 8 -55q10 -1 31 -3q7 -1 14 3q12 6 14 6q10 1 25 10q7 8 15 25q15 27 15 56q0 27 -14 57z" />
<glyph unicode="%" horiz-adv-x="649" d="M619 636q-6 -11 -27 -22.5t-25 -29.5t-21.5 -32t-34.5 -27q-6 -12 -21 -36q-7 -12 -24 -36q-29 -32 -65 -67q-3 -16 -22 -37q-24 -25 -28 -34q-8 -16 -35 -35q-35 -26 -40 -31q-21 -21 -28 -36q-4 -8 -13 -15q-12 -8 -15 -12q-6 -7 -9.5 -20t-6.5 -18q-11 -10 -30 -36 q-5 -14 -21 -42q-5 -10 -11 -20t-15 -14q-15 -7 -32.5 -26t-43.5 -19h-22q-8 2 -19 11q-18 17 -7 41q2 6 30 24q10 13 34 35q7 4 14.5 16t11.5 16q26 22 42 39q10 8 28 25q6 15 25 41q7 12 24 34q11 7 30 28q7 15 27 34q1 1 19 11q6 3 10 11.5t6 10.5q12 17 43 44q3 8 15 24 q4 3 9 1q4 6 13 19q3 12 15 35q10 10 24 29q2 13 13 39q9 5 27 20q-1 2 -4 17q-2 8 2 16q7 16 30 23q10 23 49 63q13 13 38 13t36 -17.5t5 -57.5zM194 704q13 1 52 -23q15 -9 31 -17q17 -11 22 -24q7 -7 16 -21q6 -15 11 -35q3 -11 1 -70q2 -10 3 -32q-2 -19 -9 -38l-15 -18 q-5 -9 -22 -23q-17 -9 -33 -17q-20 -10 -35 -11q-10 0 -29 -3q-5 -1 -17 -5t-19 -4q-17 1 -33 1q-21 2 -33 7q-38 19 -52 53q-27 65 -27 88q0 9 5.5 18t10.5 16.5t10 23.5q-1 11 3 31q4 9 21.5 21t20 25t16 19t27.5 11q18 8 37.5 17t36.5 10zM105 569q-5 -8 -14 -25 q-4 -10 6 -36q4 -13 9 -26t18 -18q43 -16 62 -15q19 2 39 4q13 2 14 21q0 6 2 37q2 21 0 36q-3 20 -32 58q-14 19 -59 14q-27 -3 -45 -50zM478 323l25 2q5 -1 12 -9.5t11 -10.5q36 -20 50 -38q7 -3 18 -11q3 -4 8 -28t6 -39q1 -5 5.5 -16.5t3.5 -18.5q-4 -14 -1 -29 q0 -2 -4 -36q-6 -49 -24 -56q-16 -11 -50 -27q-13 -7 -40 -14q-11 0 -41 -4q-10 0 -30 -2q-10 -2 -38 6q-60 16 -89 89q-18 43 0 79q5 7 13 22q1 11 4 33q2 6 20 20q2 2 24 26q2 9 11 23q14 4 40 15q16 7 32.5 14.5t33.5 9.5zM387 189q-12 -33 -3 -69q5 -17 16 -31 q5 -6 16.5 -6.5t16.5 -3.5q13 -8 30 -7q25 0 30.5 -1t10.5 -1q27 0 21 38q0 12 -1 34q3 12 3 35q-5 23 -39 52q-15 14 -34 14q-21 0 -40 -16t-27 -38z" />
<glyph unicode="&#x26;" horiz-adv-x="698" d="M426 275q3 -28 17 -28q12 0 24 20q2 3 29 32q3 7 13 17q8 3 24 11q11 10 29 10q25 0 45 -14q14 -10 43 -8q8 -2 23 -2l14 4q8 3 15 1q13 -4 13 -16q0 -14 -14.5 -33.5t-26.5 -26.5q-33 -20 -43 -17q-17 0 -50 4q-5 1 -27 11q-17 8 -28 8q-12 0 -22.5 -8.5t-15.5 -12.5 q-10 -10 -10 -17q-1 -8 12 -18t15 -16q6 -16 23 -20q6 -2 25 -21q4 -5 16.5 -10t17.5 -12q11 -13 17 -16.5t22 -2.5q14 0 37.5 15t40.5 13q23 -3 23 -24q0 -33 -29 -55q-9 -10 -28 -27q-7 -4 -47 -14q-32 -8 -47 -8q-8 -1 -25 -2q-9 5 -29 11q-9 0 -21 8t-19 10 q-14 4 -33 29q-11 11 -29 36q-14 29 -34 25q-14 -3 -29 -30q-10 -20 -32.5 -27.5t-40.5 -24.5q-2 -2 -15 -18q-8 -10 -20 -13q-2 -1 -19 -9q-12 -6 -21 -4q-20 3 -45 8q-17 4 -48 14q-3 1 -14 12q-7 4 -22 13q-7 4 -15 19.5t-10 18.5q-35 45 -35 81q0 30 17 76q4 10 8.5 20 t13.5 18q15 8 42 30q12 9 34 29q12 12 35 37q4 6 13 16q-6 6 -17 20q-8 11 -21 36q-8 12 -22 37q-3 17 -11 50q-4 10 -8 21.5t-3 21.5q1 4 21 40q5 12 24 38q4 6 15 17q11 2 31 9q14 8 42 23q9 5 45 14q17 1 47 9q7 4 13 4t14 -5q12 -7 16 -8q14 -5 21 -9q14 -6 18 -13 q9 -16 25 -26t25 -42q9 -27 6 -50q-1 -11 -21 -44q-10 -17 -27 -39q-8 -12 -25 -36q-11 -9 -30.5 -29.5t-19.5 -38.5q0 -19 21 -36q20 -12 50 -41q3 -10 14 -25zM295 453q14 0 19 11t20 34l17 17t9 18q0 6 -3 13q-7 7 -19 23q-6 12 -16 35q-3 6 -10 6q-10 2 -14 5 q-17 11 -24 23q-5 7 -14 7q-19 0 -38 -21q-14 -16 -14 -30q0 -6 8 -33q0 -8 8 -28q10 -13 30 -38q8 -3 19 -22.5t22 -19.5zM204 274q-14 -12 -29 -24q-15 -15 -21 -31q-4 -11 -4 -22q0 -8 15 -50q12 -36 50 -35q7 0 20 -2.5t19 -2.5q8 0 39 12q17 6 34.5 23t18.5 32 q1 19 -17 27q-10 5 -19 30q-1 5 -20 28q-2 3 -27 39q-13 19 -26 7q-11 -11 -33 -31z" />
<glyph unicode="'" horiz-adv-x="327" d="M173 885q38 10 52 0q10 -8 10.5 -23t1.5 -29q0 -6 7 -23q5 -13 4 -22q0 -7 -7 -30q-5 -18 -3 -28t-11 -46q-1 -3 -6 -59q0 -13 1 -26q0 -15 -8 -24q-14 -14 -41 -23q-21 -6 -33 13q-2 10 -9 28q-10 14 -9 23q1 38 -7 49q-22 29 -20 52q5 39 -7 57q-20 29 -7 59 q14 32 92 52z" />
<glyph unicode="(" horiz-adv-x="388" d="M269 -140q-17 10 -48 33q-4 8 -12 23q-6 7 -17 20q-23 29 -34 52q-25 51 -51 93q-20 32 -23 56q1 11 -1 32q-10 38 -10 40q0 12 -8 26.5t-9 22.5q-5 20 -3 52q2 12 3 24q1 11 -8 23q-4 7 -4 14t7.5 20.5t9.5 18.5q7 25 8 54q-5 17 -9 52q1 18 8 51q3 6 20 24q13 14 13 25 q0 36 7 51q10 21 31 49q10 13 13 42q1 13 23 50q12 11 34 37l9 21q5 11 16 17q1 0 32 22q18 12 31 12q16 0 32 -17q20 -20 20 -30q0 -7 -5 -13q-13 -15 -32 -50q-1 -18 -11 -49q-6 -5 -14 -16q-2 -9 -11 -29q-1 -1 -12 -20q-3 -5 -2 -14q1 -10 0 -14q-4 -9 -10 -26 q0 -10 -3 -29q-12 -14 -26 -42v-29q0 -8 -5.5 -19.5t-6.5 -16.5q-4 -26 -5 -54q0 -10 4.5 -28t4.5 -26q-2 -9 -5 -27q3 -9 5.5 -26.5t4.5 -33.5q2 -20 -1 -34t-3 -28q0 -17 5 -44q7 -32 9 -45q2 -20 13 -56q10 -17 23 -54q14 -40 23 -56q13 -14 34 -44q4 -8 10 -24 q-1 -10 2 -27q0 -1 19 -10q7 -3 10 -13q4 -13 6 -15.5t20 -20.5q16 -14 16 -19t-8 -13q-11 -10 -12 -11q-9 -15 -24 -15t-36 17q-11 11 -23 22q-10 16 -34 42z" />
<glyph unicode=")" horiz-adv-x="425" d="M346 555q11 -26 12 -50q1 -56 1 -52l-4 -34q-1 -18 7 -34q12 -23 12 -35q0 -9 -6 -18.5t-6 -15.5q0 -3 2.5 -12t1.5 -16q3 -17 0 -47q-8 -14 -16 -27q-9 -18 -9 -28t-3.5 -26.5t-4.5 -24.5q0 -17 -1 -25q-2 -15 -8 -23q-11 -10 -26 -41q-2 -9 -25 -60q-11 -24 -28 -45 l-18 -18q-3 -8 -10 -24q-4 -8 -14 -22q-8 -2 -22 -10q-8 -5 -38 -37q-5 -6 -11 -24q-6 -14 -16 -19.5t-21 -5.5q-16 0 -31 11q-30 22 -30 57q0 9 7 20q12 19 13 21q3 6 19 23q13 14 12.5 25.5t5 20t12.5 17.5q21 33 53 109q9 12 22 41q11 35 15 54q1 18 6 55q2 8 7 65 q3 18 7 55q-4 19 -7 57q1 7 2 28q2 17 2 28q0 -4 2 32q2 20 -4 31q-14 25 -14 27q0 5 3 12q10 18 -6 52q-9 14 -26 44q-9 23 -9 51q0 10 -9 22l-15 20q-6 16 -20 48q-4 17 -15 51q-5 9 -11 20t-6 19q0 20 23 20q15 0 38 -22q16 -15 31 -31q13 -5 37 -22q4 -4 5 -23 q0 -8 8 -13.5t15 -10.5q17 -14 20 -47q2 -18 26 -45q9 -16 26 -48q7 -13 8 -31q0 -24 2 -32.5t13 -19.5t14 -17z" />
<glyph unicode="*" horiz-adv-x="467" d="M422 691q14 0 20 -12q16 -29 1 -42q-8 -6 -14.5 -12.5t-7.5 -17.5q-2 -20 -22 -27q-28 -11 -33 -16q20 -16 56 -53q15 -21 15 -42q0 -14 -7 -29q-22 -42 -59 -35q-13 2 -33 18.5t-32 19.5q-9 -7 -9 -17q0 -8 6.5 -22.5t6.5 -20.5q0 -4 -2 -7q-27 -35 -72 -34 q-51 1 -57 48l-6 45q3 13 4 39q-14 -1 -26 -26q-9 -18 -17 -36q-12 -17 -45 -17q-19 0 -31 7q-24 12 -24 50q0 18 7 29q1 2 27 30q17 19 17 33q0 17 -22 37q-16 16 -33 31q-7 9 -22 25q-8 6 -8 12q0 3 12 19q10 5 26 19q11 15 37 6q8 -2 35 -21q21 -14 37 -12q-3 29 2 88 q4 18 5 18q4 10 13.5 11.5t32.5 11.5q20 8 34 8q46 0 52 -40v-54q0 -41 9 -47q2 -1 7 -1q21 0 68.5 18t51.5 18z" />
<glyph unicode="+" horiz-adv-x="556" d="M556 284q-9 -9 -29 -22q-7 -2 -24 3q-21 6 -28 6q1 0 -57.5 -14.5t-83.5 -9.5q-2 0 -2 -8t5.5 -59.5t5.5 -79.5q0 -33 -6 -46q-12 -26 -41 -26t-52 36q-1 67 -2 151q-2 40 -8 40q-65 2 -84 2q-7 0 -19 3t-19 3q-15 1 -50 -11q-4 -1 -17 -10.5t-19 -8.5q-7 0 -16.5 9 t-18.5 10q-19 1 -19 37q0 42 14 63q2 4 7 4q2 0 15 -3q9 -2 15.5 1t20.5 11q5 5 30 -4q9 -3 15 -9t15 -5q13 5 40 11q25 1 54 -5q8 -2 15 11.5t12 13.5q2 0 4 -2q-1 32 -1 58q4 13 9 23q-11 37 -22 68q-3 35 -1 37q15 24 61 24q30 0 38 -6q22 -17 23 -79q0 -1 -5 -12t-5 -16 q3 -11 6 -30q-6 -82 -4 -83q17 -5 25 -4q15 2 27 1q37 -3 55 8q23 13 47 17q11 2 21 2q28 0 57 -19q13 -9 13 -33q0 -31 -17 -48z" />
<glyph unicode="," horiz-adv-x="348" d="M131 -36q7 12 7 18q0 9 -15 16q-24 11 -36 35q-7 11 -14 21q-9 15 -5 23q8 21 31 46q15 10 43 29q21 16 52 8q7 -1 19 -8.5t20 -7.5q3 0 6 1q10 3 19 -10q5 -12 10 -21.5t5 -18.5q0 -4 -1.5 -13t-1.5 -13t1.5 -11.5t1.5 -11.5q0 -8 -6 -19q-7 -14 -8 -22q-4 -18 -22 -49 q-6 -9 -20 -18.5t-19 -16.5q-18 -28 -43 -28q-8 -1 -25 -8.5t-24 -7.5q-20 0 -20 18q0 14 13.5 24.5t31.5 44.5z" />
<glyph unicode="-" horiz-adv-x="443" d="M31 281q10 24 39 38q26 12 54 12q7 0 50 -6l42 -12q30 -10 44 -10q16 0 35 13t27.5 15.5t23.5 2.5q14 0 28 -2q19 -10 19 -19q0 -1 -1 -3v-2q0 -3 3 -11.5t3 -13.5q0 -22 -13 -31q-16 -10 -53 -27q-40 -29 -58 -29q-77 0 -93 12q-8 6 -18 7t-17 3t-23 3h-19q-3 0 -8.5 5 t-7.5 5t-2 -5.5t-1 -7.5q-4 -8 -26 -8q-13 0 -27 8q-14 20 -14 33z" />
<glyph unicode="." horiz-adv-x="307" d="M201 141q28 -8 33 -10q20 -9 23.5 -21.5t3.5 -22.5q0 -29 -25 -54q-6 -7 -50 -42q-16 -13 -44 -13q-29 0 -51 20q-6 13 -23 36q-16 13 -15 22q1 23 12 43q10 8 26 29q8 16 33 21q28 6 77 -8z" />
<glyph unicode="/" horiz-adv-x="472" d="M454 758q2 -5 2 -11q0 -25 -43 -110q-45 -90 -50 -139q-6 -60 -51 -205q-27 -84 -55 -168q-9 -34 -80 -185q-69 -144 -78 -155q-12 -24 -45 -26q-16 -1 -30.5 12t-10.5 22l67 215v0q-6 -19 -6 -21q0 -1 1 -1q4 0 65 152q59 147 75 193q29 93 85 267l8 78q8 64 27 77 q39 30 73 30q29 0 46 -25z" />
<glyph unicode="0" horiz-adv-x="702" d="M489 787q9 -23 34 -39q10 -7 51 -20q5 -7 15 -20q1 -9 8 -24q10 -18 33 -48q37 -35 49 -102q5 -28 8 -117q-3 -18 -6 -56q1 -10 -2 -29.5t-3.5 -28.5t-7.5 -26q-9 -21 -11 -27q-4 -22 -20 -59l-15 -15q-6 -6 -9.5 -19t-34.5 -50q-6 -15 -26 -44q-16 -13 -47 -39 q-8 -12 -37 -30q-13 -4 -54 -10q-18 3 -56 0q-7 -1 -14 -1q-12 0 -34 6.5t-34 6.5t-38 3q-11 3 -44 34q-6 7 -23 11t-23 8q-28 18 -41 57q-11 14 -23 50q-1 12 -9 28q-7 13 -13 26q-10 20 -1 59q2 4 2 9q0 11 -6 27q-8 25 -9 26q-1 6 -9 24q-5 13 -5 22q0 5 1 10q3 16 13 54 q-1 18 1 52q3 15 22 60q25 61 68 97q22 19 39 47q7 11 26 26t26 23q30 37 84 48q32 6 100 5q10 0 39 -2q11 -4 36 -13zM378 670q-14 0 -41 -8q-16 -5 -49 -16q-22 -9 -40 -20q-7 -6 -22 -17q-9 -3 -25 -12q-12 -10 -29 -36q-2 -17 -11 -51q-3 -7 -3 -15t4 -21q5 -16 6 -22 q2 -9 1 -58q0 11 5 -45q-3 -9 -4 -28q5 -31 52 -110q6 -10 12 -21t14 -14q18 -10 54 -26q33 -11 101 -32q8 -3 18 -3q39 0 80.5 31.5t48.5 67.5q10 30 29 91q7 25 7 49q-3 9 -7 27q0 -6 5 27q6 39 6 45q-2 9 -8 21q-9 14 -11 20q-6 23 -13 47q-9 29 -25 40q-6 5 -17 6t-16 3 q-7 26 -28 40q-11 10 -22 19q-16 12 -23 12t-21.5 5.5t-21.5 5.5q-3 0 -6 -2z" />
<glyph unicode="1" horiz-adv-x="617" d="M433 125q8 -1 59 4q10 1 23 -6t22 -6q45 1 58 -8q8 -13 8 -25q-3 -13 -4.5 -25t-2.5 -24q-2 -8 -14 -17q-5 -3 -16 -18q-7 -11 -20 -13t-41 0l-95 5q-22 2 -67 7q-23 1 -69 6q-7 8 -23 16q-6 -4 -20 -8q-7 1 -18.5 5t-18.5 4q-8 0 -31 -8.5t-35 -9.5q-20 -3 -50 -33 q-4 -3 -9 -3q-19 0 -39 25q-9 11 -9 39t7.5 40.5t15 25.5t21 16.5t32.5 2.5q35 -1 33 -1q54 0 107 8h25q14 1 14 14q-2 13 -6 49l-4 28q-2 15 1 27q2 10 -1 28t-1 28q-1 18 6 55q5 13 4 31l-4 32q0 10 7 25.5t8 24.5q1 43 -7 63t-2.5 54.5t-1.5 54.5q-15 38 -77 38 q-7 0 -30 1q-19 2 -30 0q-15 -2 -28 -10q-44 -29 -59 -29q-9 0 -16 4q-12 7 -23.5 31t-11.5 44q0 14 7 21q47 48 161 54q13 0 35.5 5.5t34.5 5.5q6 0 16 -3t15 -3q7 0 28 14q12 9 34 -1q37 -15 40 -17q20 -13 20 -36q0 -6 -4 -20.5t-3 -21.5q6 -13 13 -39q8 -74 3 -94 q-2 -8 1 -24q3 -15 0 -23q-4 -12 -2 -23q3 -18 3 -23q-3 -15 -8 -46q0 -16 -1 -46q4 -31 5 -93q5 -15 9 -47q-1 -6 -10 -24q-4 -7 -4 -13q0 -4 3.5 -12t4.5 -13q2 -7 -2 -23.5t-2 -23.5q4 -20 36 -23z" />
<glyph unicode="2" horiz-adv-x="730" d="M493 200q-9 -10 -39 -26q-17 -7 -51 -23q-1 -8 13 -9.5t17 -4.5q18 -21 51 -21q11 0 23 8q6 3 23 1l50 3q10 1 22 12q10 4 30 15q15 11 30 23q20 13 34 13q12 0 21 -9q2 -7 2 -14q0 -25 -13.5 -50t-33.5 -36q-10 -5 -17 -15q-9 -13 -13 -17q-15 -8 -45 -26 q-10 -8 -20.5 -15.5t-25.5 -8.5q-14 1 -29 1q-12 -1 -22 -17q-23 16 -41 14q-43 -4 -53 -1q-8 3 -25 2t-25 2q-20 7 -63 16q-25 4 -29 4q-13 4 -26 12q-16 -10 -48 -27q-9 1 -28 -2q-8 -3 -25 -9q-8 -5 -25 -12q-12 2 -37 4q-27 -1 -51 13q-28 15 -23 40q1 4 -1 22 q-1 15 5 22q3 3 11 2q5 -2 11 -3q22 -1 31 12q14 20 42 29l50 16q9 5 28 12h29q8 4 24 11q11 1 32 11q16 15 43 30q36 20 43.5 25.5t24.5 9.5t24 10q11 17 34 39q19 9 29 33t18 47q11 15 24 46q1 7 -2.5 21.5t-3.5 20.5q0 7 5.5 15t5.5 18q0 -9 -7 37q-2 11 -11 26.5t-12 25 t-12 15.5q-14 10 -16 13q-12 12 -38 33q-20 12 -47.5 17t-53.5 9q-14 4 -48 9q-5 0 -12 -2q-10 -2 -13 -2q-10 2 -31 -2q-25 -11 -35 -18q-16 -11 -25 -29q-23 -45 -64 -42q-18 2 -22 3q-8 4 -8 19q-3 13 -2 40q7 24 17 39q10 9 29 29q10 14 31 30q13 11 38 30q15 5 44 21 q8 6 48 6q8 0 24.5 1.5t23.5 2t18 5t19 4.5q18 -1 43 -9q32 -10 43 -12q50 -8 84 -31l42 -24q8 -5 22 -33q7 -14 14 -47q0 -9 6 -19q9 -13 11 -18q12 -38 9 -85q-1 -13 10 -44q5 -12 3 -23q-2 -12 -4 -23l-2 -46q-2 -29 -10 -45q-37 -73 -77 -117q-9 0 -26 -5 q-6 -4 -10 -13.5t-8 -14.5z" />
<glyph unicode="3" horiz-adv-x="701" d="M653 730q-13 -22 -34 -32q-11 -12 -37 -26q-22 -3 -44.5 -16.5t-42.5 -26.5q-36 -19 -76 -60q14 -12 51 -17t50 -13q15 -12 45 -34q6 -4 35 -15q22 -8 28 -20q10 -17 28 -53q2 -6 0 -19q-1 -12 5 -21q11 -14 14 -46q-3 -7 -5 -24l12 -27q7 -26 -5 -46q-23 -41 -26 -67 q-3 -22 -23 -37q-33 -25 -36 -29q-14 -16 -41 -34l-46 -28q-10 -7 -26 -10q-24 -4 -27 -5q-19 -4 -57 -14q-18 -9 -54 -23q-9 -1 -28 -4q-8 -3 -24 -8q-36 -2 -107 6q-10 1 -19 7q-13 8 -18 10q-16 2 -43 13q-10 14 -32 41q-9 11 -18.5 22t-12.5 24q-4 19 -4 37q0 45 27 53 q15 3 45 13q2 1 6 1q6 0 21.5 -8.5t23.5 -9.5q4 -17 27 -38q11 -11 44 -22q13 -6 47 -14q19 2 57 3q59 -5 71 -3q17 3 74 28q5 3 16 25q4 7 21 21q12 10 15 27v34q1 16 3 33q1 18 -5 33q-18 44 -40 67q-10 9 -57 34q-42 22 -55 22q-4 0 -11.5 -2t-11.5 -2q-10 0 -27.5 7 t-25.5 7q-12 -3 -38 -6q-22 2 -45 -12q-23 3 -68 12q-20 6 -20 24q0 17 16 31q21 15 60 49q29 11 77 40q23 12 48.5 25.5t39.5 29.5q11 8 31 26q-10 -6 -35 -7q-26 -2 -35 4q-3 3 -9 11q-4 5 -8 5q-5 0 -17.5 -3t-23.5 -2q-26 2 -66 12q-55 15 -71 -2q-10 -12 -20 -24.5 t-27 -11.5q-25 2 -34 7q-14 7 -21 28.5t-7 34.5q0 15 9 32q12 1 34 10q19 14 37 13q6 0 29 9q7 3 18 2q13 -2 18 -1q12 4 39 11q11 0 33 2q17 3 33 -5q11 -1 33 -4q29 -1 88 -5q22 -1 68 -6q11 -4 34 -8q-2 0 42 8q21 4 55 35q31 28 49 28q15 0 28 -11.5t13 -26.5 q0 -13 -34 -68z" />
<glyph unicode="4" horiz-adv-x="701" d="M523 785q-1 -8 0 -24q5 -6 11 -20q1 -24 -12 -44q-11 -16 -7 -53q4 -50 -2 -70q-11 -38 -8 -51q5 -17 10 -49q1 -19 1 -55q0 -10 2.5 -31.5t2.5 -33.5q0 -18 6 -18q1 0 6 1t8 1q6 0 11 -3q11 -6 20 -5q24 2 20 2q33 0 44 13q17 23 34 23q24 0 43 -20.5t19 -44.5 q0 -9 -2 -16q-5 -13 -16 -18q-21 -9 -22 -10q-11 -7 -25.5 -8.5t-28.5 -2.5q-15 -6 -47 -14q-18 -2 -51 -11q-10 -5 -7 -49q-3 -8 -3 -24q4 -8 13 -23q14 -28 -4 -50q-5 -7 -5 -14q0 -5 3.5 -16t1.5 -18q-3 -20 -23 -40t-41 -20q-6 0 -12 2q-67 23 -67 58q0 10 5 28.5 t5 28.5q-1 41 3 53q8 24 4 52q0 8 -4 24q-9 -2 -27 -4q-7 0 -25 3.5t-27 3.5q-5 0 -29 -3q-18 -2 -31 -1q-14 2 -34 3q-5 1 -34 11q-23 8 -38 3q-13 -5 -40 -13q-11 0 -31 -7q-11 -10 -31 -31q-7 -7 -17 -7t-20 -1q-25 -4 -25 32q0 35 18 59q7 9 24 24q7 3 16 6q11 27 46 81 q16 19 48 59q12 15 24 29q14 20 18 33.5t19 31.5q18 22 23 30q11 24 40 67q8 8 19 30t20 29q25 22 36 60q1 10 6 30q2 9 11.5 11t17.5 4q3 0 14 6q8 4 16 2q13 -5 41 -11q9 3 28 5q14 1 38 -5zM387 568q-26 -25 -47 -61q-21 -24 -52 -76q-2 -6 -11 -11t-12 -9 q-2 -13 -12 -39q-9 -11 -21 -36q8 -5 27 -2q23 2 29 1t27 -8q16 -6 27 -6q-4 0 26 -2q3 6 11.5 16t16.5 18t8 22q0 1 -2 26q-1 14 2 26q10 37 -5 55q-5 5 -5 11q0 4 5 13.5t5 15.5q0 12 -4 27q-6 19 -13 19z" />
<glyph unicode="5" horiz-adv-x="666" d="M641 740q-41 -47 -77 -60q-10 -7 -34 -15q-15 1 -47 1l-22 -4q-12 -1 -23 2q-6 2 -55 -1q-8 0 -18 5.5t-14 6.5q-15 3 -43 10q-8 3 -22 1q-21 -4 -22 -4h-26q-16 -1 -24 -6q-21 -16 -18 -30q3 -18 0 -53q0 -6 2 -44q2 -8 4 -25q-2 -9 -4 -28q10 0 21 12q8 8 16 17 q12 9 51 29q18 9 51 15q38 7 51 12q28 10 52 1q8 -3 25 -1q22 3 27 3q9 -1 19 -8q15 -11 18 -12q34 -17 49 -32q8 -7 13 -21t9 -27q9 -14 19 -48l4 -54q2 -33 -1 -55q-6 -13 -16 -41q-2 -20 -9 -57q-6 -18 -30 -48t-31 -47q-22 -27 -70 -73q-22 -17 -98 -49q-14 -7 -48 -15 q-8 -4 -26 -8q-9 0 -26 -2q-17 -7 -49 -16q-8 -1 -22 7.5t-23 8.5q-20 0 -43 16t-32.5 34.5t-34.5 42.5q-9 8 -12 27q-3 16 -6 31q-13 44 -13 58q0 21 11 41q6 9 12 17t5 21q-2 23 29 45q13 10 47 0q17 -5 17 -15q0 -2 -5 -22q-3 -11 -7 -21q-3 -10 0 -23q2 -7 2 -27 q-1 -5 10 -35q12 -36 66 -74q15 -11 50 -9q9 0 25 10.5t24 12.5q17 -3 52 0q14 9 40 23q14 7 29 28q13 12 37 37q2 3 2 7t-5 12t-5 12t2.5 7t21.5 45q10 23 10 46q0 24 -11 61q-7 22 -28 43t-42 24q-5 1 -16.5 5.5t-19.5 4.5q-4 -1 -19 -10q-9 -5 -30 1q-16 4 -43 -12 q-8 -11 -29 -29q-17 -11 -34 -21q-20 -13 -35 -13q-17 0 -32 15q-5 6 -16 15q-7 -1 -21 7q-21 22 -28 32q-13 19 -18 39t-2 74q1 8 2 26q-4 4 -7 13q0 5 5.5 20.5t3.5 21.5q-5 22 -17 36q-2 4 -19 16q-10 7 -12 21q-3 18 10 33.5t31 17.5q13 5 40 11q16 3 47 5q12 0 36 -4 t36 -4t32 5q24 6 33 7q14 -3 45 -3q7 2 42 -8q7 -2 43 -8q6 0 20 -4.5t23 -4.5q39 0 44 1q47 9 62 47q8 20 37 20q23 0 36 -11q9 -9 9 -27q0 -34 -20 -57z" />
<glyph unicode="6" horiz-adv-x="731" d="M445 653q-13 2 -45.5 17t-50.5 15q-13 0 -24 -6q-37 -16 -107 -59q-15 -12 -36 -36q-26 -28 -26.5 -38.5t-3.5 -28.5q-7 -17 -6 -31q2 -16 5 -32q0 -11 5 -34q-2 -11 1 -34q30 19 91 55q19 12 52 23q45 15 53 18q33 14 55 16q11 1 29 -2q23 -4 29 -4q10 1 30 2 q9 -4 27 -9q23 -3 68 -9q64 -11 85 -55q6 -14 21 -42q4 -7 -1 -25q-2 -7 1 -18q3 -15 3 -18q3 -55 4 -53q-4 -8 -9 -26q1 -9 -1 -27q-9 -22 -32 -47l-40 -40q-49 -51 -81 -78q-68 -57 -102 -53q11 -2 -59 -2q-7 0 -19 -6.5t-19 -6.5q-17 1 -52.5 11t-54.5 10q-24 0 -50 17 q-36 24 -45 28q-41 16 -68 101q-26 81 -26 101q0 55 1 51q-9 19 -21 58q-5 55 -2 77q8 46 20 86q7 23 31 67q8 18 16.5 37.5t24.5 25.5q12 6 26 21q22 25 23 25q39 37 62 52q15 -2 28.5 6t26.5 16q6 8 23 18q13 5 42 6q17 -1 34 -1q22 1 33 6t24 5q16 0 55 -13q17 -5 35 -22 q22 -20 33 -26q31 -17 31 -18q18 -11 25 -25q13 -22 13 -49q0 -64 -57 -69q-24 -3 -43 3q-7 2 -16 12.5t-13 13.5l-32 18q-19 12 -24 25zM411 378.5q-10 12.5 -21 14.5q-49 7 -78 -7q-10 -5 -22 -17q-15 -14 -21 -18q-31 -21 -50 -43q-10 -10 -21.5 -20.5t-14.5 -22.5 q-8 -37 11 -60q9 -6 25 -22q10 -15 26 -21q19 -12 62 -32l30 -3q14 -5 43 -10q38 -3 79 7q28 7 56 38q12 12 24.5 24t17.5 28q12 39 12 65q0 35 -21 55q-37 38 -55 36l-24 -6q-15 -3 -24 -3t-16.5 2.5t-17.5 15z" />
<glyph unicode="7" horiz-adv-x="633" d="M699 714q-21 -23 -42 -33q-11 -5 -17 -22q-7 -20 -14 -26q-21 -19 -42 -37q-25 -24 -34 -44q-3 -5 -36 -35q-7 -6 -20 -18q-5 -6 -2 -14q4 -13 4 -14q0 -22 -21 -35q-5 -4 -16 -11q-2 -8 -9 -22q-8 -9 -34 -25q-7 -5 -12 -25q-3 -15 -7 -30q-8 -33 -29 -99 q-8 -20 -25 -42q-4 -5 -4 -16q0 -5 1.5 -16.5t1.5 -17.5q0 -4 -1.5 -9t-1.5 -8q1 -6 -1 -17v-21q0 -8 6 -23t6 -23q-3 -20 -5 -38q-1 -8 -13 -19q-16 -16 -17 -18q-11 -15 -14 -18q-8 -8 -18 -9q-38 -3 -52 14q-21 27 -26.5 56.5t-5.5 55.5q0 6 -2 28q-2 18 -1 28 q1 19 13 61q4 7 14 10.5t12 11.5q5 14 9.5 29.5t2.5 29.5q-5 38 1 46t7.5 23t6 22t8 22.5t7.5 22.5q13 12 31 41q6 25 26 42q10 13 31 38q6 13 24 38q13 10 25 38q2 4 24 27q20 20 20 32q0 7 -6 12q-16 12 -39 12q-1 0 -72 -13q-6 -1 -23.5 -11t-27.5 -10q-47 4 -50 4 q-4 0 -25 -4q-16 -4 -25 -2q-16 9 -49 19q-39 1 -48 -5q-12 -13 -39 -33q-9 -5 -18 -5q-36 0 -52 67q-5 23 59 80q11 13 39 35q9 4 25 3q25 -2 27 -2q11 0 23 -11q16 -15 21 -17q21 -10 56 4q4 2 51 1q10 0 26 6h34q4 0 12 -3t13 -3q8 2 25 5q17 0 51 -2q15 -6 45 -14 q16 -4 51 -8q56 -1 84 30q37 41 70 41q35 0 35 -38q0 -34 -32 -69z" />
<glyph unicode="8" horiz-adv-x="661" d="M447 20q-12 -1 -24 -9q-16 -9 -23 -11q-19 -6 -51 -3.5t-56 -6.5q-20 -7 -48 4q-7 0 -22 4q-7 5 -21 11q-6 2 -18 -1.5t-17 -3.5q-7 0 -12 4q-31 20 -85 65q-7 8 -12 21t-9 25q-15 33 -8 53q3 9 1 25q-3 22 -3 25q0 38 9 55q5 10 34 37q18 11 44 35q12 17 31 22 q8 3 22.5 14.5t24.5 14.5q-17 12 -45 26q-24 11 -44 29q-7 7 -14.5 13.5t-9.5 17.5q-5 16 -12 51q-1 8 -9.5 18.5t-9.5 18.5q-1 14 -3 62q-1 46 1 55q3 15 12 19q1 0 24 5q31 6 50 -12q9 11 31 31q11 9 46 22q17 10 52 26q59 21 98 23q5 0 13 -3t13 -3q8 3 25 5 q11 0 26 -7.5t22 -9.5q15 1 48 -9q14 -7 41.5 -23.5t24.5 -98.5q2 -15 -1 -49l-12 -48q-5 -17 -36.5 -39.5t-35.5 -41.5q-3 -17 32 -28q25 -5 49 -11q8 -3 13 -13.5t9 -19t25 -54.5q4 -9 5 -25q1 -20 3 -26q8 -32 -16 -99q-3 -10 -14 -21q-4 -4 -11 -25q-4 -13 -35 -34 q-6 -4 -13 -17.5t-17 -16.5t-19.5 -14.5t-17.5 -21.5q-16 -9 -45 -32zM256 700q-10 -10 -34 -28q-32 -20 -44 -37q-18 -24 -12 -46q3 -8 18 -22l22 -20q43 -47 104 -43q11 1 34 -2.5t33 -3.5q23 0 37 11t26 21q17 15 19 24q-1 12 5 31q8 7 9 19q2 21 2 23q2 6 2 12 q0 22 -23 41.5t-52 18.5q-29 -2 -26 -2q-13 1 -22 11q-11 14 -33 14q-31 0 -65 -22zM190 292q-10 -14 -16 -54q-4 -29 7 -53q1 -10 8 -25q1 -1 28 -12q14 -9 52 -20q19 0 56 -9q11 -5 30 -4q25 1 31 1q26 -3 63 26q26 20 33 47q9 17 22 52q9 43 2 57q-12 25 -47 41 q-16 11 -49 27q-10 -2 -31 0q-10 4 -32 11q-26 3 -50 -23q-11 -12 -28 -20.5t-34 -15.5t-45 -26z" />
<glyph unicode="9" horiz-adv-x="769" d="M575 377q-14 -6 -54 -29q-17 -10 -42 -14q-42 -14 -127 -28q-22 -1 -59 6q-45 9 -58 11q-8 5 -25 10q-9 0 -25 3q-25 8 -45 36q-7 14 -24 35q-16 8 -44 31q-46 58 -38 127q4 39 47 107q18 29 39 37q14 4 28.5 9.5t16.5 19.5q2 11 15 15q17 6 21 11q15 16 43 32 q54 32 99 32q12 0 41 -3q25 -4 41 -3q43 4 54 -3q18 -7 49 -25q11 -8 30 -11q28 -4 32 -5q16 -5 35 -36q4 -7 38 -33q25 -20 30 -41q1 -25 11 -72q18 -46 18 -62q0 -8 -5 -22t-5 -22q-2 -15 1 -30.5t6 -30.5q2 -13 -3 -36q-4 -17 -8 -35q-2 -27 -5 -54q-5 -34 -18 -49 q-7 -8 -9.5 -25t-8.5 -24q-14 -20 -26 -47q-5 -12 -15 -18q-19 -10 -20 -11q-6 -12 -30 -30q-9 -4 -18 -17.5t-16 -17.5q-14 -9 -45 -21q-36 -7 -43 -20q-13 -24 -38 -31q-10 -3 -27 -1q-20 3 -28 2q-6 -1 -23.5 -6.5t-25.5 -5.5q-18 -1 -49 3q-18 3 -51 16q-10 13 -37 31 q-11 4 -25 17t-21 17q-15 8 -21 14t-11 21q-7 21 -5 52q2 38 20 46q7 4 53 4q5 0 14 3t14 2l15 -18q6 -6 23 -13.5t24 -14.5q29 -31 98 -47q6 -1 18 -10.5t19 -8.5q12 0 25 12q9 10 19 20q7 6 23 10q21 6 25 7q32 15 90 86q7 8 11.5 30.5t8.5 29.5q13 27 -4 45 q-12 14 -13 41zM434 682q-12 4 -27 23t-26.5 24t-34.5 4q-24 0 -36 -7q-20 -8 -55 -28q-10 -5 -27 -24q-7 -15 -25 -40q-4 -39 -25 -66q-11 -12 -5 -30q-1 -13 4 -36q6 -10 21 -25q8 -3 23 -14q12 -15 27 -15q5 0 18.5 2.5t22.5 2.5q13 -1 27 -19t27 -20q25 -3 78 -8 q13 -1 33 10q16 8 32 17q32 17 37 20q23 13 33 25q24 30 24 46q0 9 -3 20q-16 49 -43 68q-33 23 -43 45q-2 10 -14 28q-6 3 -12 3q-4 0 -14.5 -3.5t-16.5 -2.5z" />
<glyph unicode=":" horiz-adv-x="367" d="M221 463q28 -8 33 -10q19 -8 22.5 -21t3.5 -23q0 -28 -24 -54q-7 -7 -50 -41q-16 -13 -44 -13q-29 0 -51 20q-7 12 -24 35q-15 13 -15 23q1 22 13 42q9 9 26 30q8 15 32 20q28 6 78 -8zM221 145q28 -7 33 -9q19 -9 22.5 -21.5t3.5 -23.5q0 -28 -24 -53q-7 -7 -50 -42 q-16 -13 -44 -13q-29 0 -51 20q-7 13 -24 36q-15 13 -15 22q1 22 13 43q9 8 26 29q8 16 32 21q28 5 78 -9z" />
<glyph unicode=";" horiz-adv-x="367" d="M131 -36q7 12 7 18q0 9 -15 16q-24 11 -36 35q-7 11 -14 21q-9 15 -5 23q8 21 31 46q15 10 43 29q21 16 52 8q7 -1 19 -8.5t20 -7.5q3 0 6 1q10 3 19 -10q5 -12 10 -21.5t5 -18.5q0 -4 -1.5 -13t-1.5 -13t1.5 -11.5t1.5 -11.5q0 -8 -6 -19q-7 -14 -8 -22q-4 -18 -22 -49 q-6 -9 -20 -18.5t-19 -16.5q-18 -28 -43 -28q-8 -1 -25 -8.5t-24 -7.5q-20 0 -20 18q0 14 13.5 24.5t31.5 44.5zM221 463q28 -8 33 -10q19 -8 22.5 -21t3.5 -23q0 -28 -24 -54q-7 -7 -50 -41q-16 -13 -44 -13q-29 0 -51 20q-7 12 -24 35q-15 13 -15 23q1 22 13 42q9 9 26 30 q8 15 32 20q28 6 78 -8z" />
<glyph unicode="&#x3c;" horiz-adv-x="703" d="M573 599q0 -23 20 -29q-2 -45 -40 -99q-14 0 -32.5 -6t-29.5 -6q-8 0 -17 2q-69 -36 -96 -53q-51 -32 -82 -66q9 -12 36 -12q9 0 28 1.5t28 1.5q10 0 17 -1q14 -20 10 -50q62 -2 126 -52q72 -56 111 -66q2 -3 2 -6q0 -7 -9 -17q-10 -13 -12 -17q-20 -43 -26 -51 q-20 -27 -54 -28q-12 -1 -21 10t-12 12h-10q-4 0 -6 7q1 7 0 20q-7 2 -24.5 -0.5t-25.5 0.5q-1 1 -3 10t-3 9q-2 -2 -3 -9q-19 2 -19 19q0 12 9 21q-14 19 -70 49q-8 -1 -19 0v10q-9 -1 -20 0q-5 7 -20 20q-7 4 -19 5q-17 1 -31 5q0 5 -10 10q-8 0 -21.5 9t-17.5 21 q-69 -2 -109 29q-2 8 -2 14q0 9 6 22.5t6 23.5l30 14q19 9 39 5l50 30q4 5 10 10q12 1 39 10q7 8 20 20q21 12 59 39q16 14 50 40q11 -2 14 11q4 17 6 19q12 13 29 29q9 -1 20 0v10q9 -1 20 0q8 10 32 10q22 0 47 -10z" />
<glyph unicode="=" horiz-adv-x="699" d="M686 450q-2 -10 -5 -21t-9.5 -18.5t-16.5 -10.5q-14 -5 -18 -7q-45 -26 -82 -26q-29 0 -50 18q-22 -13 -55 -14q-54 -1 -68 -3q-2 0 -16.5 -5t-26.5 -5q-7 0 -15 2q-4 4 -16 8q-17 -1 -50 0q-14 8 -49 17q-40 1 -41 0q-5 -6 -25 -9q-7 1 -16 0q-8 -9 -50 -8q-1 0 -13 -1 q-10 -1 -15 0q-9 2 -12 9t-3 11q0 12 14 16q11 3 21 6q3 2 16 16q9 9 18 10t17 13q11 16 15 19q9 1 25 8q3 8 8 17q29 11 90 8q58 -3 99 -33q33 13 99 8q8 0 46 -11q31 -8 61 -5q12 1 42 7q24 5 37 5q29 0 44 -21zM678 245q-1 -7 -1 -13q0 -11 4 -23q5 -16 5 -22 q-5 -5 -33 -16q-8 -3 -41 -9q-7 1 -16 0q-6 -7 -11 -5q-7 3 -13.5 5.5t-8.5 8.5q-9 -7 -41 -9q-3 1 -10.5 5t-14.5 4q-7 -1 -22 -4t-23 -3q-17 0 -29 15q-20 -2 -73 -18q-47 -14 -74 -14q-22 0 -42 7q-25 -14 -49 -28q-30 -14 -62 -14q-10 0 -21 1q-17 -1 -26 16 q-12 23 -15 25q-19 1 -25 -16q-10 -3 -14.5 6.5t-9.5 9.5q-2 6 -2 10q0 6 18 23q34 32 58 33q5 0 15.5 7.5t19 9t21.5 1.5q19 0 68.5 -5.5t75.5 -5.5q16 0 29.5 1.5t37.5 12t37 12.5q9 1 33 -8q9 11 25 8q18 -4 49 0q14 -1 41 0q21 3 49 11q23 6 32 6q13 0 26 -9 q6 -5 13 -10t20 -6z" />
<glyph unicode="&#x3e;" horiz-adv-x="625" d="M303 565v-37q5 1 10 1q11 0 37 -19q2 -8 9 -19q2 -1 11 -1.5t8 -7.5q65 -2 89 -9q43 -12 50 -47q14 2 37 0q3 -12 10 -28q8 2 18 0q31 -37 28 -46q-6 1 -10 1q-7 0 -16.5 -6.5t-19.5 -4.5q-27 -23 -83 -52q-61 -33 -85 -50q1 -4 -9 -9q-6 -1 -13.5 -10t-14 -9t-14 -9 t-13 -9.5t-19.5 -9.5q-39 -23 -112 -74q-12 -13 -37 -37q-14 -8 -37 -28q-6 2 -19 9q-6 5 -9 9q-10 2 -20 3q-5 1 -8 16q-1 5 -10 13t-9 15q1 23 22 40t53 16l24.5 24.5t30.5 21.5q9 9 28 19q25 7 28 9q31 21 103 102q0 9 -14 18t-14 19q-1 19 -56 38q-22 1 -56 9 q-2 8 -9 18q-2 2 -11 2.5t-8 7.5q-8 -2 -15 -2q-11 0 -31.5 6.5t-36.5 4.5q-4 21 -34 40.5t-32 43.5q7 5 20.5 5t26.5 4q1 4 9 9q7 -1 19 0q8 9 18 19q20 4 39 4q54 0 92 -32q9 0 21.5 5.5t21.5 5.5q5 0 12 -2z" />
<glyph unicode="?" horiz-adv-x="588" d="M360 247q8 -8 26.5 -6.5t24.5 -1.5q27 -11 23 -43q-3 -20 -33 -45q-13 -15 -45 -41q-49 -29 -75 -29q-13 0 -23 5q-28 15 -34 46q-2 6 -4 60q-2 60 29 103q12 18 82 77q58 49 72 90q4 14 31 41q8 7 10 27q1 15 2 31q5 49 4 56q-3 10 -26 48q-16 26 -46 28 q-12 1 -30.5 12.5t-28.5 13.5q-16 3 -50 -5t-51 -6q-33 -17 -41 -29q-6 -8 -6 -22q0 -23 11 -32q6 -4 12 -7q3 -3 0 -11q-2 -9 4 -24q9 -24 -5 -48q-22 -36 -34 -34t-26.5 -6.5t-23.5 -8.5q-15 1 -21.5 15t-11.5 28q-8 16 -23 51q-10 31 -6 55q3 12 14 26t15 22q18 49 34 57 q9 3 25 15q4 9 16 23q11 8 34.5 15t33.5 14q7 6 16 5q17 -1 18 -1q15 5 46 13q12 6 36 12q8 1 21.5 -2t20.5 -3h33q21 -1 33 -7q18 -14 56 -39q16 -9 48 -57q7 -11 7 -29v-33q1 -6 7.5 -17.5t6.5 -16.5t-5 -13t-6 -12q2 -11 -5 -35q-10 -17 -7.5 -32.5t-11.5 -32t-14 -29.5 q0 -20 -30 -56q-27 -32 -35 -71q-2 -13 -20 -29q-15 -11 -30 -23q-7 -8 -25 -20q-10 -5 -13 -14zM234 -45q-1 11 3 32l24.5 22t55.5 31q44 13 72 13q45 0 49 -32q5 -39 -17 -74t-61 -50q-48 -18 -83 -3q-18 8 -32 26q-6 7 -8 17q-2 14 -3 18z" />
<glyph unicode="@" horiz-adv-x="850" d="M693 496q-73 19 -111 46q-5 3 -17 19q-10 11 -20.5 13.5t-119.5 28.5q-6 2 -52 -7q-20 -7 -59 -19q-19 -4 -62 -32q-60 -40 -80 -86q-6 -7 -13 -24q-1 -9 -2 -27q-3 -9 -6 -27q2 -12 4 -36q-1 -38 11 -110q4 -8 8 -23q-3 -8 -4 -25q10 -18 28 -56q5 -20 22 -47 q2 -1 33 -33q42 -43 107 -56q40 -1 119 -12q76 -16 124 -12q72 6 116 23q30 11 38 31t29 20q12 0 21.5 -9.5t9.5 -21.5q0 -17 -13.5 -33.5t-28.5 -20.5q-9 -2 -25 -7q-5 -6 -18 -18q-8 -2 -23 -9q-9 -7 -27.5 -20t-55.5 -21q-46 -11 -58 -16t-55 -1q-12 0 -32 -2 q-26 -3 -33 -3.5t-23 -6.5t-25 -6t-25 9.5t-26 9.5q-41 -4 -53 3.5t-31 9.5q-31 3 -33 4q-24 5 -49 29q-20 21 -41 42q-25 23 -58 109q-8 17 -21 53q0 1 -12 56q-3 41 -14 123q-3 12 -3 26q0 29 16 88q4 19 13 56q6 17 32 60q14 13 41 40q13 13 40 38q14 6 38 24q8 11 24 20 q22 13 26 17q11 8 51 18q18 9 55 20q17 1 50 18q10 5 22 5q6 0 20 -2t22 -2q43 3 55 2q9 2 28 3q8 -5 26 -12q32 -10 56 -23q10 -3 29 -12q4 -7 14 -21q4 -6 20.5 -8.5t23 -6.5t12.5 -18q8 -18 10 -22q8 -5 21 -17q3 -8 11 -24q13 -16 31 -54q5 -18 9 -110q0 -11 -4.5 -28.5 t-4.5 -26.5q-2 -30 -18 -62q-27 -51 -28 -54q-19 -32 -39 -45q-13 -4 -40 -16q-8 -4 -20.5 -21.5t-22.5 -21.5q-15 -8 -31.5 -16t-28.5 -8q-14 0 -26.5 10t-22.5 19q-13 10 -26 10q-10 0 -24 -13q-20 -17 -22 -19q-11 -7 -30 -7q-41 0 -78 22q-17 2 -49 21q-7 5 -22 16 q-7 5 -19 33q-6 11 -11.5 21.5t-3.5 25.5q-2 19 0 59q7 48 59 98q40 39 94 62q17 8 54 22q14 4 65 -3.5t57 -94.5q1 -15 8 -61q7 -39 6 -62q-1 -14 17 -38q7 -9 17 -9q6 0 28.5 10.5t37.5 37.5q5 8 23 49q9 21 10 48v49q0 13 -6 22q-12 17 -12 18q-1 9 -7 26q-6 7 -17 22z M506 232q3 36 -9 70q-3 12 -11 37q0 13 -6 38q-9 16 -19 16q-5 0 -15.5 -4t-16.5 -5q-44 -6 -63.5 -25.5t-19.5 -52.5q0 -50 31 -79q19 -18 63 -21t66 26z" />
<glyph unicode="A" horiz-adv-x="746" d="M613 332q7 -29 -3 -49q-16 -34 -15 -47q0 -9 22 -42q5 -19 23 -54q13 -15 17 -45t11 -43t26 -37q21 -16 13 -47q-2 -8 9 -25l16 -22q12 -22 18 -44q65 2 106 52q17 21 35 21q26 0 29 -40q2 -29 -17 -54q-9 -12 -42 -40q-5 -8 -18 -21q-9 -1 -26 -8t-35 -31t-52 -28 q-10 -2 -26 8.5t-23 11.5q-18 4 -30 33q-17 40 -19 43q-11 12 -29 40q-7 20 -27 56q-11 15 -22 45.5t-19 42.5t-10.5 30.5t-6 26t-8.5 23.5q1 12 -4 35q-21 39 -35 96q-7 25 -50 25q-68 0 -60 -2l-35 9q-25 6 -40 6q-64 0 -79 -119q18 -16 45 -6q10 4 56 4q15 0 27 -14.5 t12 -30.5q0 -11 -14 -34q-31 -48 -87 -60q-19 -1 -55 -2q-7 -3 -20 -8h-35q-42 -2 -50 -1q-34 2 -44 18q-11 20 2 45q6 21 20 62q7 16 30 41q28 30 34.5 37t16.5 21q2 5 0 13q-3 12 -3 13q-1 22 -6 29t-25 13q-49 14 -50 14q-32 14 -27 36q5 26 27 45.5t48 21t51.5 3.5 t43.5 21q10 10 28 44q2 9 8 25q9 9 23 27q5 18 20 53q11 17 29 52q10 26 10 43t-12 41q-27 57 -95 57q-30 0 -56 -16q-7 -4 -26 -25q-15 -15 -26 -15q-15 0 -24 12t-9 27q0 20 11 36q12 22 35 65q8 15 10 17q6 9 15 11q23 7 43 14q38 14 44 14q15 3 45 7q42 -1 82 -32 q15 -12 24 -26q4 -7 14 -13t13 -11q12 -18 34 -52q3 -5 1 -12t1.5 -13.5t3.5 -22.5q0 -9 3.5 -15.5t8.5 -63.5q5 -13 15 -41q7 -24 23 -74q21 -60 19 -83q-7 -59 29 -74q13 -7 38 -16q13 -3 18 -10zM387 467q-5 14 -9 29q-6 19 -15 19q-6 0 -16 -12t-22 -39q-2 -48 -3 -44 q4 -24 19 -32q10 -5 38 -5q26 -1 26 23q0 5 -18 61z" />
<glyph unicode="B" horiz-adv-x="799" d="M119 714q-41 -12 -60 -4q-9 3 -37 35q-10 11 -10 28q0 27 21 47q10 4 27 14q28 6 85 13q9 -3 29 -6q10 4 29 9q9 -2 29 -3q10 1 69 7q12 4 35 7q-5 0 25 -7q17 -3 51 -7q15 -3 31.5 -5.5t25.5 -10.5q13 2 32 0q25 -3 32 -3q33 1 54 -10q11 -5 18 -15l14 -17q9 -7 17 -14 t9 -19q7 -53 7 -43q0 -12 -4 -21q-8 -16 -9 -59q-1 -38 -14 -56q-10 -13 -28 -43q-3 -8 -3 -13q0 -8 8.5 -14t17.5 -12q16 -11 45 -36q18 -9 45 -33l40 -50q23 -30 26 -58q3 -41 1 -52q-6 -16 -14 -50q-2 -17 -34 -41q-10 -8 -21 -25q-12 -21 -17 -27q-39 -44 -79 -75 q-15 -14 -47 -34q-8 -4 -25.5 -4t-25.5 -4q-36 -18 -86 -18q-34 0 -63 9t-72 2q-22 -1 -67 -4q-6 0 -30 9q-13 5 -41 -2q-35 -9 -42 -9q-17 0 -23 11q-21 37 -21 42q0 7 4 12q20 29 50 58q19 18 23 23q8 12 6 30q5 28 3 79q-6 20 2 40q3 8 -1 20q-5 17 -5 20q-1 19 8 30 q-5 7 -5 24v25q-1 7 1.5 21t3.5 19q0 7 -2.5 20.5t-2.5 18.5q0 27 -3 80q-5 12 -10 39q0 5 -1 22q-1 14 -1 22q3 59 -20 68zM389 506q137 37 144 109q1 11 1 19q0 39 -36 58q-18 9 -46 14q-39 7 -47 9q-16 -1 -49 2q-36 8 -57 4q-25 -5 -32 -31q-2 -10 5 -55q2 -18 1 -52 t1 -52q1 -25 2 -49q1 -28 13 -47q24 19 38 42q9 14 62 29zM418 135q24 4 70 4q18 -3 69 11q10 2 18 18l14 26q12 13 24 26.5t13 32.5q4 45 -21 63q-9 4 -26 17q-5 8 -22 20q-21 3 -62 13q-2 0 -26 18q-6 4 -15 2q-15 -5 -16 -5q-22 -1 -25 -1q-10 6 -32 12q-24 -3 -67 0 q-2 1 -10.5 5t-12.5 4q-6 0 -7 -23q-1 -14 -1 -29q-1 -8 1.5 -20.5t2.5 -18.5q0 -5 -3 -14.5t-3 -14.5q0 -6 3.5 -18.5t3.5 -20.5q-2 -36 -13 -77q25 -30 63 -24q16 2 40 -1q34 -4 40 -5z" />
<glyph unicode="C" horiz-adv-x="744" d="M713 208q6 -16 -1 -44q-4 -19 -26 -46q-7 -10 -14 -19t-19 -15q-8 -4 -18.5 -18.5t-19.5 -18.5q-25 -16 -52 -32t-55 -19q-14 -2 -61 -1q-39 1 -61 -5q-15 -5 -30 -5q-20 0 -48 8q-23 7 -47 14q-9 3 -27 0.5t-26 -0.5q-10 4 -27 17q-20 16 -26 19l-46 26q-24 17 -32 41 q-11 18 -26 56q-7 22 -19 66q-5 20 -9 56q-1 21 -11 59q-11 19 -11 44q0 13 5 41t5 43q0 37 5 58q1 9 6 28q6 8 16 24q0 10 6 29q5 8 16 24q16 25 17 26q11 15 24 20q19 6 43 33t39 34q14 12 45 32q21 7 61 21q14 11 48 29q11 5 21 9t24 1q30 -6 53 2q18 7 58 5 q63 -3 103 -35q16 -14 52 -39q2 -1 30 -9q17 -5 23 -18q21 -48 21 -73q0 -26 -17 -42q-7 -7 -25 -10q-24 -4 -28 -6q-7 -3 -15 -3q-21 0 -53 17q-11 6 -41 33q-24 22 -44 27q-8 1 -45 22q-30 16 -49 12q-16 1 -51 0q-11 -1 -26 -12.5t-24 -14.5q-19 -4 -57 -17 q-14 -7 -53 -44q-16 -11 -46 -38q-11 -11 -9 -24q1 -19 0 -24q-10 -36 -5 -58t5 -34q-3 -14 -3 -41q0 -16 7 -49q2 -6 0 -15q-2 -11 -1 -15q4 -8 11 -25l16 -56q13 -36 32 -48q13 -13 43 -32q19 -3 52 -17q13 -10 44 -26q8 -2 29 3q8 1 19 -2q16 -4 19 -4q8 -1 58 -1 q10 -2 29 -4q9 4 28 10q10 0 29 2q9 6 25 15q37 20 47 33q33 37 60 37q12 0 24 -8z" />
<glyph unicode="D" horiz-adv-x="842" d="M-57 720q-7 78 59 95q15 11 50 22q25 -2 76 -3q22 2 72 12q45 10 71 10q18 0 48 -4q36 -6 47 -7q43 -4 57 -6q31 -4 55 -12q35 -11 62 -17q11 0 31 -5q8 -7 24 -20.5t48 -38.5q21 -12 55 -40q6 -17 25 -47q15 -19 35 -78q6 -20 3 -54q0 -10 8 -27q9 -21 10 -29 q3 -19 8 -58q2 -12 -3 -30q-4 -21 -4 -30q0 -6 2 -16.5t2 -16.5q0 -19 -12 -47q-17 -42 -19 -47q-8 -26 -24 -49q-8 -6 -21 -20q-6 -11 -23 -30q-14 -12 -43 -37q-9 -13 -31 -36q-17 -11 -48 -33q-14 1 -33 -6q-22 -9 -31 -11q-5 0 -27 -10q-18 -8 -26 -5q-29 11 -55 6 q-50 -8 -58 -8q-9 0 -34 4q-21 3 -34 1q-61 -7 -68 -7q-31 0 -48 12q-34 23 -31 120q-1 42 -1 125q0 12 4.5 43.5t4.5 47.5q0 7 -10 46q-5 22 -5 51q0 9 5 33q5 20 3 33q-1 23 -5 69q-1 6 -6 37q-5 22 -3 39q3 47 -2 55t-25.5 15.5t-28.5 6.5q-9 -2 -35.5 -12t-39.5 -10 q-23 0 -31 24zM236 619q-1 -8 5 -22t6 -23q0 4 2 -54l4 -58q2 -35 -4 -58q-3 -12 -3 -32q0 -55 15 -81q3 -4 3 -9q0 -7 -5.5 -19.5t-4.5 -18.5q4 -22 10 -64q4 -50 70 -53q-1 0 54 8q5 1 26 9q16 6 26 4q33 -11 44 -7q20 6 46 26q4 4 10 4q3 0 13 -3q7 -2 13 0q17 7 38 47 q2 5 15 49q3 9 1 29.5t3.5 31t5.5 22.5q-1 11 -2 23q-1 52 -1 54q-2 30 -12 52q-3 19 -15 57q-3 16 -15 45q-13 15 -37 47q-5 15 -22 40q-10 10 -25.5 13.5t-30 8t-46.5 14.5q-18 1 -56 6q-73 16 -82 16q-15 0 -23 -5q-13 -8 -14 -18v-23q-6 -20 -12 -58z" />
<glyph unicode="E" horiz-adv-x="788" d="M813 518q-8 -10 -15.5 -19t-6.5 -26q-27 -21 -82 -64q-29 -25 -42 -32q-22 -11 -51 -10q-12 0 -53 -17q-10 -4 -27 2q-12 -1 -37 -1q-15 3 -47 15q-7 5 -25 5q-25 1 -27 1q-8 1 -21 -3t-18 -4t-9 2q-32 16 -63 16q-46 0 -54 4q-23 13 -26 13q-6 0 -14 -5q-25 -18 -25 -51 q0 -25 13 -58q4 -13 9 -27t13 -20.5t14 -19t12 -16.5q13 -5 37 -20q7 -8 25.5 -13t26.5 -12q11 -10 45 -14q9 1 27 1q8 -4 26 -9q9 2 27 3q9 -2 26 -4q21 4 61 5q23 -4 52 11t40 36q26 48 72 48q34 0 34 -26q0 -6 -2.5 -18t-2.5 -16q-3 -33 -22 -45q-7 -5 -14 -18.5 t-13 -18.5q-18 -12 -54 -38q-17 -15 -49 -29q-41 -18 -52 -24q-21 -12 -59 2q-10 3 -20 3q-14 0 -49 -13q-34 -12 -57 5q-18 13 -57 14l-31 1q-18 1 -29 10q-18 9 -53 31q-3 3 -28 15q-17 9 -21 19q-11 18 -33 56q-6 10 -7 27.5t-5 26.5q-11 20 -26 67q-3 30 -5 59 q-4 35 -18.5 57t-14.5 42q0 10 11.5 30t11.5 36q3 56 26 111q28 67 71 85q4 2 39 37q16 16 46 35q41 26 49 32t31 9.5t33 13.5q27 26 46 23q24 -3 54 -1q19 5 56 12q15 1 38 -3q36 -6 38 -6q25 -3 48 -23q31 -27 42 -33q5 -3 50 -15q24 -7 33 -54q4 -15 4 -30q0 -45 -30 -52 q-42 -10 -59 -10q-21 0 -37 9q-19 10 -37 21q-24 13 -33 26q-13 15 -36 23q-4 2 -13 2v0q-9 0 -14 1q-6 6 -22 15q-21 6 -43 5q-6 -1 -16.5 3.5t-15.5 4.5q-9 0 -23 -14q-16 -17 -23 -20q-19 -3 -55 -14q-60 -24 -83 -56q-12 -10 -30 -32q-6 -9 -8.5 -23.5t-5 -26.5 t-2.5 -21q0 -22 14 -22q8 0 20 8q27 17 53 17q11 0 41 -5q15 -2 45 -7q15 2 46 0q33 -6 48 -4q10 1 26 -4l26 -8q9 -2 45 -3q29 -1 43 -8q26 -14 39 -12q8 1 52 17q19 8 78 48q49 34 75 34q27 0 27 -19q0 -21 -14 -38z" />
<glyph unicode="F" horiz-adv-x="571" d="M499 716q-51 -8 -64 7q-20 22 -23 26q-15 16 -27 21q-2 1 -27 17q-12 8 -28 6q-15 -4 -48 -44q-7 -14 -26 -39q-8 -8 -24 -30q-5 -8 -6 -23q-4 -13 -9 -39q0 9 5 -59q1 -9 8.5 -22.5t7.5 -23.5q0 -23 45 -32q10 -2 34 5t32 7q29 1 57 7q40 8 37 8q9 0 19 -5q16 -5 33 -11 t17 -25q0 -17 -21 -76q-9 -24 -25 -31q-8 -3 -42 -7q-8 -1 -30 11t-32 10q-12 -1 -44 -10q-56 -24 -69 -48q-10 -17 -11 -73q-3 -168 -2.5 -179.5t-2.5 -27.5q-4 -21 -5 -27q3 -39 -2 -117q-1 -1 -4 -54q-3 -30 -19 -51q-6 -8 -30.5 -16.5t-37.5 -8.5q-10 0 -22 15 q-9 11 -18.5 22.5t-9.5 25.5q0 11 8.5 32.5t9.5 33.5q2 32 -4 53q-2 7 -2 14q0 9 4 24q5 19 6 24q3 17 15 49q6 9 5 24q-2 13 -3 26q0 3 -4 27q-3 18 0 27q8 31 3 58q1 21 -2 62q-9 35 2 53q3 5 3 10q0 8 -9.5 24.5t-9.5 26.5q0 7 3 19.5t3 18.5t-2 12q-1 18 -8 52 q-8 18 -23 58q-2 20 -13 62q-9 24 -13 31q-7 14 -20 27q-18 18 -45 18q-10 0 -27 -3q-22 -3 -28 -4q-35 -3 -35 26t25 59q4 5 16 9.5t16 13.5q10 20 37 27q1 0 24 10q15 6 24 4q20 -1 60 -8l24 -8q12 -6 19 -16q9 -14 14 -19q9 -9 20 -10q20 -1 38 24q3 8 11 22q10 8 29 25 q22 26 43 53q30 36 50 44q15 10 43 20q11 1 23.5 -7.5t21 -10.5t23.5 -18.5t20.5 -19.5t9.5 -19t12 -17l30 -5q19 -4 27 0q4 2 24 16.5t29 14.5q8 0 16 -6q21 -16 12 -45q-4 -14 -23.5 -49t-28.5 -43q-31 -15 -89 -35z" />
<glyph unicode="G" horiz-adv-x="794" d="M721 -5q-3 -13 -10 -38q-2 -12 -7 -37q-7 -11 -20 -34q-3 -5 -37 -46q-27 -33 -29 -48.5t-33 -29.5q-27 -12 -47 -13q-18 -2 -26.5 10.5t-16.5 25.5q-2 3 -2 7q0 11 13.5 43t13.5 42.5t23 31t24 32.5q9 12 30 49q10 24 10.5 26.5t0.5 26.5q-20 -2 -52.5 -25.5 t-52.5 -25.5q-20 -3 -70 2q-11 1 -32 -5.5t-29 -7.5q-24 -2 -64 8q-44 11 -63 11q-24 0 -56 24q-12 9 -33 17q-31 13 -34 14q-14 7 -22 20t-16 27q-22 30 -24 54q-3 16 -19 50q-9 18 -10 37q0 -5 1 40q0 23 -10 53q-9 26 -17 52q-10 33 -1 51q10 20 11 25q2 9 -2 27 q-1 6 -1 12q0 20 15 50l24 46q10 16 23 50q2 12 14.5 20t24.5 15q29 28 92 78q18 15 52 33h26q16 0 24 8.5t16.5 17t20.5 12.5q9 3 53 1q34 -2 53 4q7 5 22 11q1 0 35 -3q72 -5 107 -35q13 -16 39 -39q18 -6 53 -22q11 -6 11 -18q0 -24 0 -23q1 -5 7 -23q5 -13 4 -25 q-1 -31 -37 -36q-6 -1 -32 -8q-22 -6 -31 -4q-14 9 -39 23q-14 10 -45 30q-14 12 -28.5 24t-40.5 11q-8 0 -17 5q-12 7 -16 9q-45 12 -59 12q-22 0 -41 -14q-33 -24 -109 -46q-36 -10 -83 -82q-15 -24 -15 -58q0 -12 2.5 -37.5t2.5 -38.5q-1 -65 7 -110q3 -9 8 -26 q-1 -10 2 -29q11 -19 31.5 -57t80.5 -57q17 -11 50 -31q13 -7 32 -7q30 0 33 -1q55 -8 76 -6q25 7 60 16q21 11 51 26q22 9 30 41q2 8 6 11t6 12q1 9 -10 19l-18 14q-43 38 -43 60q0 20 26.5 40.5t88.5 29.5q38 6 30 6q23 0 40 -30q15 -25 17 -50q-2 -26 -3 -77q2 -27 5 -82 q2 -56 -5 -77q-5 -14 -8 -37.5t-12 -53.5z" />
<glyph unicode="H" horiz-adv-x="935" d="M814 895q9 -23 9 -41q0 -29 -27 -60q-19 -21 -42 -35q-9 -4 -26 -12q-6 -7 -21 -19q-10 -5 -27 -5q-23 -1 -27 -1q-16 -6 -52 -13q-5 0 -13.5 4.5t-13.5 4.5q-8 0 -30.5 -3t-34.5 -2q-10 5 -31 11q-64 9 -76 9q-21 0 -39.5 -5t-22.5 -7q-8 -6 -10 -19q-5 -56 0 -77 q6 -28 5 -50q-1 -3 -5.5 -15.5t-4.5 -18.5q0 -10 10 -12q29 -5 48 15q6 6 60 39q17 11 34.5 21t34.5 10q9 0 19 -2q16 -4 30.5 2.5t27.5 12.5q17 7 53 3q50 -5 63 -3q7 -6 22 -17q10 -1 29 -6q19 -10 42 -36t32 -48q7 -16 2 -53q-2 -10 6.5 -23.5t8.5 -20.5q-1 -7 -5 -17 t-4 -17q0 -4 1 -8q2 -8 -8 -28q-3 -14 -11 -42q-3 -8 -14.5 -18.5t-13.5 -19.5q-7 -42 -20 -55q-50 -50 -50 -78q0 -24 27 -24q8 0 23 3t20.5 3t28.5 3q18 3 29 2q12 -1 21 -15t9 -26q0 -16 -22 -42q-10 -15 -36 -41q-7 -5 -26 -6q-15 -1 -29 -1q-14 -3 -27 -5 q-14 -3 -27.5 1.5t-26.5 9.5q-17 6 -28 6t-29.5 -9.5t-28.5 -9.5q-42 -2 -51 6.5t-27 8.5q-36 0 -83 -35q-20 -17 -59 -17q-33 0 -61 12q-9 3 -26 0q-16 -2 -24 1q-16 9 -53 20q-14 2 -29 4q-16 2 -29 -1q-5 -2 -9 -2q-7 0 -17.5 5t-18.5 5q-73 5 -119 -40q-5 -5 -9.5 -10.5 t-12.5 -7.5q-18 -2 -26 2q-24 14 -28 40q-1 6 2.5 15.5t4.5 11.5q-2 10 2 28q13 27 57 28q11 1 28.5 7t27.5 7q5 0 28 6q19 5 28 3q5 -1 11 -1t18.5 2.5t18.5 2.5q5 0 10 -1q45 -12 57 1.5t11 50.5q-2 62 -3 54q-1 10 1 29q5 9 9 28q3 47 -15 189q-2 37 -12 109q-4 19 -2 49 q-3 21 -1 59q5 15 5 27q0 38 -54 38q-6 0 -26 -2q-15 -2 -26 0l-28 6q-18 3 -29 0q-8 -3 -34.5 -28t-39.5 -25q-19 0 -41 25t-23 44q-4 51 61 62q17 0 46 8q11 6 54 9q14 2 51 8q32 6 52 6q7 0 21.5 3.5t24.5 2.5t29.5 4.5t26.5 6.5q19 -2 58 -1q20 2 58 4q17 -2 50 -3 q9 0 30 -7q18 -6 28 -4q6 1 13 1q14 0 44 -8t45 -8q9 0 18.5 2.5t50.5 4.5q32 2 52 11q12 6 37 33q21 22 39 22q10 0 22 -5zM390 428q-14 -7 -27 -14t-18 -26q-10 -43 -10 -47q0 -10 6.5 -26t6.5 -27q0 -6 -2.5 -23t-1.5 -27q5 -59 12 -89q13 -57 40 -56q19 0 43 -1l26 -4 q16 -2 26 1q41 14 43 15q22 9 41 22q12 3 32 15q5 4 8 17t4 16q6 11 25.5 27.5t23.5 28.5t15 31q10 11 14 16.5t6 16.5q7 10 17 33q7 23 1 49q-1 21 -3 43.5t-18 35.5q-6 4 -35 29q-4 3 -37 11q-30 7 -83 0q-2 -1 -18 -5q-11 -2 -19 -1q-15 3 -24.5 -2.5t-19.5 -12.5 q-24 -15 -74 -46z" />
<glyph unicode="I" horiz-adv-x="366" d="M317 243q-5 -12 -5 -27v-27q-2 -14 -5 -44q2 -9 2 -27q-8 -30 -21 -45q-16 -15 -53 -56q-31 -35 -38 -41q-24 -20 -50 -19q-36 2 -36 43q0 13 4.5 24.5t15 21.5t20.5 19q2 2 28 46q1 9 2 27q4 9 8 29q-3 22 -2 66q2 8 -5 76q-8 76 -8 95q0 10 1 13q-7 16 -7 39 q0 14 10 75q5 36 17 107q2 8 -8.5 23t-10.5 22t1.5 17.5t1.5 13.5q0 12 -13 17q-63 -14 -102 5q-15 7 -15 23t15 38q13 19 27 29q52 39 104 31q45 -7 54 -6q55 5 70 -2q10 -5 23.5 -21t13.5 -27q0 -1 -17 -22t-22 -53q0 -4 -3 -56q3 -20 0 -55q-12 -25 -9 -50q4 -8 8 -27 q-1 12 -6 -102q-1 -12 6.5 -47t7.5 -44q1 -12 0 -51q-1 -43 -4 -51z" />
<glyph unicode="J" horiz-adv-x="430" d="M-142 51q1 -6 1 -12q0 -11 -9 -29t-9 -29q0 -7 2 -15q1 -19 10 -49q8 -14 27 -41q37 -49 86 -52q38 -3 46 1q16 4 47 12q21 5 43 9.5t34 20.5q13 9 37 31q12 13 34 38q18 23 18 35q0 4 -1 9q-2 12 0 30q3 21 3 29q-2 16 -6 49q1 8 1 25q-3 8 -7 25q4 8 6 25q-3 8 -6 25 q-2 53 0 57q7 22 -2.5 40t-9.5 50q0 41 -2 52q0 8 -3 24q-5 9 -14 30q-3 13 -3 27q0 13 3.5 39.5t2.5 41t5 55.5q3 10 1 28.5t1 28.5q5 20 -19 47q-9 9 -19 9q-1 0 -13 -2q-9 -1 -17 1q-47 10 -52 12q-29 11 -29 35q0 7 3 15q7 22 32.5 42.5t47.5 20.5q8 0 26 4q15 3 26 2 q53 -6 64 -6q20 2 40 3q26 2 38 -4q8 -3 18 -17q13 -18 15 -20q6 -7 6 -15q0 -12 -13 -27q-25 -29 -20 -55q2 -13 0 -109q0 -10 5 -25q7 -22 7 -24q0 -20 2 -60q0 -14 -4 -39q-4 -28 -4 -40q0 -9 11 -44q-5 -12 -4 -27q0 -22 3 -67q-3 -19 -4 -59q1 -5 6 -29q4 -19 2 -29 q-2 -13 -2 -29q0 -10 2 -45q3 -28 1 -44q-3 -27 0 -58q1 -11 -7.5 -21t-15.5 -19q-12 -14 -27.5 -46t-25.5 -45q-11 -16 -35 -33q-37 -28 -38 -29q-12 -7 -32 -30q-5 -9 -19 -13q-20 -5 -24 -8q-12 -13 -39 -28q-8 0 -26 -5.5t-27 -5.5q-49 1 -56 0q-6 -1 -15.5 2.5 t-13.5 3.5q-13 1 -40 3q-60 2 -115.5 50t-61.5 106q0 7 -7 25q-2 5 5 32q2 8 -1.5 22t-3.5 18q0 8 5.5 15t12.5 25q-1 8 4 23q6 21 26 54q18 13 40 13q37 0 46 -36z" />
<glyph unicode="K" horiz-adv-x="1033" d="M565 414q16 -9 48 -24q9 -2 26 -7q7 -5 21.5 -13.5t40.5 -42.5q7 -10 15.5 -21t19.5 -15t21 -14q14 -15 18 -18q10 -7 14 -17.5t7 -21t12 -28.5q9 -5 24 -17q29 -29 37 -47.5t25 -52.5q11 -16 34 -47q17 -16 43 -52q12 -14 37 -45q11 -15 24 -15q11 0 21 11q15 11 36 35 q10 21 37 22q18 1 29 -12.5t11 -32.5q0 -13 -6 -24q-9 -18 -34 -49q-10 -14 -35 -41q-12 -16 -41 -40q-17 -8 -48 -17q-26 -2 -54 18q-8 6 -19.5 22.5t-18.5 20.5t-18 13q-2 8 -9 25q-12 12 -37 38q-12 12 -37 36q-19 20 -37 48q-10 14 -27 44q-4 8 -17 19t-15 19 q-14 49 -68 89q-9 7 -44 52q-8 12 -30 19q-28 11 -34 14q-39 31 -122 88q-3 -8 -3 -16q0 -13 10 -37.5t10 -36.5q0 -7 -4.5 -16.5t-4.5 -15.5q0 -5 5 -16.5t5 -19.5q0 -6 -5.5 -20.5t-5.5 -20.5q0 -21 23 -21q7 0 24 6t25 6q13 0 23 -10q15 -15 15 -46q0 -42 -23 -57 q-16 -14 -46 -28q-6 -1 -14.5 3.5t-11.5 5.5q-10 0 -30.5 1.5t-60.5 7.5l-18 12q-7 5 -42 5q-20 0 -30 1q-14 2 -28 8q-21 9 -53 -7q-17 -6 -49 -20q-6 -4 -20 -13q-8 -5 -11 -13q-8 0 -22 -4q-12 -3 -21.5 7.5t-18.5 21.5q-3 31 17 60q25 38 114 44q40 0 117 10q18 5 18 8 q0 4 -4 15t-2 20q3 12 1 33q-2 24 -1 34q-3 18 -1 57q1 5 1 11q0 7 -3 23.5t-2 24.5q3 8 8 24q1 13 -3 48q-4 31 0 47q1 21 6 63q2 12 -4.5 28.5t-5.5 27.5t-5 54q2 22 -4 60q-17 35 -80 40q-50 5 -111 -38q-16 -11 -35 -11q-44 0 -53 47q-6 25 15 56q22 6 64 21 q20 8 59.5 12t57.5 10q39 13 64 8q6 -1 12 -1q9 0 28.5 4.5t30.5 4.5q12 -1 23 -8.5t22 -15.5q18 -10 21 -14.5t5 -23.5q-1 -18 1 -52q8 -49 8 -43q0 -5 -2.5 -15.5t-2.5 -15.5q0 -6 4 -17.5t4 -19.5q1 -19 2 -58q2 -19 4 -58v-15q2 -7 11 -6q17 2 35 13q13 8 57 16 q14 2 25 11.5t22 18.5q15 12 45 34q12 9 19 25q10 21 16 27q16 15 33 30q25 22 25 37q0 5 -2 9q-6 13 -18.5 14t-24.5 1q-54 11 -60 11q-9 -1 -40 -12q-13 -4 -37 28q-6 9 -6 18q0 31 58 60q13 7 23 10q17 -9 31 -7q8 2 29 11q17 7 30 7t33 -8q24 -10 33 -11q19 -3 76 1 q10 1 38 12.5t43 11.5q17 0 29 -12.5t4 -53.5q-6 -30 -39 -51q-17 -9 -50 -30q-14 -15 -43 -42q-12 -11 -37 -45q-21 -30 -38.5 -44t-52.5 -39q-11 -6 -26 -22q-17 -19 -24 -24q-17 -10 -50 -31q-7 -8 -23 -20q-12 -1 -25 -1.5t-16 -4.5q-2 -13 13 -14.5t28 -2.5z" />
<glyph unicode="L" horiz-adv-x="806" d="M641 5q51 4 94 51q13 18 44 46q11 6 16 16.5t10 20.5q2 4 2 8q0 7 -14 18t-19 21q-4 7 -11 7q-8 0 -23.5 -9t-18.5 -9q-6 -5 -36 -27q-21 -15 -40 -18q-12 2 -37 2q-12 -2 -25 2q-21 6 -24 7q-46 -3 -110 -6q-26 6 -88 8q-32 0 -96 4q-18 2 -14 60q4 59 4 49q0 2 5 48 q-1 18 6 51q9 18 4 37q-4 17 -3 47q1 39 0 47q-2 38 0 82q4 66 -2 110q2 17 -4 46q-2 16 -7 43q-14 46 -52 61q-17 6 -34 6q-22 0 -46 -11q-75 -37 -87 -81q-2 -8 -2 -13q0 -21 31 -29q40 -11 46 -17q10 -10 8 -64q0 -3 11 -58q0 -11 1 -32q3 -7 9 -22q7 -20 -3 -58 q-3 -24 -10 -72q-3 -9 -8 -29q2 -10 3 -29q-3 -18 -7 -55q0 -5 -6.5 -14t-6.5 -14q3 -9 8 -28q0 -40 2 -122q2 -51 4 -57q6 -27 36 -42q10 -5 22 -5q19 0 53 17q38 19 52 21q11 2 23 2q34 0 92 -19q14 -4 34 -4q33 1 34 1q17 -4 50 -4q26 0 130 9z" />
<glyph unicode="M" horiz-adv-x="1251" d="M745 89q15 18 15 43q0 19 -9 44t-9 27q6 95 14 200q5 19 5 35q0 9 -2.5 29.5t-2.5 35.5t-7.5 42.5t-7.5 40.5q0 17 9 30q7 10 13 28q5 15 13 24q15 17 63 26q20 4 40 4q45 0 71 -20q13 -8 39.5 -30t32.5 -44q10 -17 23 -52q-4 -19 0 -52q5 -12 5 -25q0 -18 -15 -57.5 t-13 -59.5q2 -44 -7 -61q-1 -2 -15 -18q-8 -9 -7.5 -23t-11.5 -29.5t-23 -29.5q-12 -22 -57 -43q-23 -10 -45.5 -19.5t-40.5 -26.5q-43 -41 -39 -67q6 -34 42 -46q6 -2 31 -14q20 -11 29 -11q13 0 43 15q11 5 34 2l36 -4q7 0 22 4.5t22 4.5t12 -2q30 -16 65 -16 q29 0 50.5 13t46.5 44q14 12 40.5 38t26.5 68q0 16 -4.5 34t-25.5 18q-10 0 -24 -4q-7 -2 -19.5 -14t-19.5 -15q-15 -11 -49 -25q-33 -6 -48 -6q-25 0 -26 12q-1 10 20 36q24 30 27 35q6 16 23 49q9 10 19 20.5t9 21t7 31t8 29.5v22q-1 12 0 19q1 11 5 21q11 29 7 58 q-2 13 -2 32v18q0 34 -8 56q-2 4 -2 9q0 6 2.5 17.5t2.5 16.5q0 8 -3 12q-6 7 -8.5 20.5t-6.5 19.5q-6 15 -22 43q-16 12 -36 38q-7 20 -35 36q-7 3 -50 21q-18 7 -50 6q-36 -1 -50 3q-5 1 -10 1q-7 0 -24.5 -4t-26.5 -4q-25 1 -50 -10q-18 -9 -43 -29q-30 -24 -41 -31 q-15 -9 -38 -32q-22 30 -35 50q-9 15 -32 27q-12 9 -37 22q-14 -2 -45 4q-31 14 -50 6l-21 -9q-11 0 -21.5 -1t-49.5 -27q-19 -10 -52 -29q-15 -12 -45 -29q-9 -3 -20 12q-8 11 -15 22q-21 23 -42 45q-24 22 -53 22q-37 4 -112 12q-24 2 -39 -21t-15 -51q0 -14 4 -25 q15 -36 97 -56q19 -4 27.5 -9t15.5 -19q4 -21 17 -61q8 -19 7 -53q4 -13 4 -51q-1 -3 -7 -31q-2 -10 0.5 -19t4.5 -59q1 -13 6 -58q4 -37 3 -59v-71q-2 -42 -15 -48q-58 -27 -91 -59q-12 -10 -23.5 -22t-8.5 -27q0 -14 -1 -27q1 -11 17 -16q6 -2 32 -15q20 -10 29 -10 q13 0 42 15q11 5 35 2q17 -2 35 -4q8 0 23 4.5t22 4.5t12 -3q58 -30 87 -30q16 0 27 7q12 4 38 25q14 11 41 37q36 39 36 62q0 9 -2 18q-5 19 -45 19q-20 0 -34 -4q-7 -2 -24 -14t-24 -12q-6 0 -15.5 9t-20.5 7t-27.5 10t-17.5 27q-3 11 8 48.5t10 47.5q1 20 2 61 q-1 29 -2 57q-1 34 -8 55q-1 5 -1 10q0 7 3.5 20.5t3.5 20.5q0 6 -1 11q-3 10 0 29q4 23 4 29q-2 71 23 92q41 35 72 36q14 0 42 2q9 2 16 2q12 0 20 -8q11 -12 22 -23q18 -16 45 -50q12 -16 29 -55q2 -10 13.5 -29t11.5 -31q0 -8 -5 -28t-3 -29q4 -30 0 -85q0 -34 -6 -109 q-12 -93 -22 -117q-10 -18 -20 -35q-16 -31 -16 -52q0 -29 27 -44q55 -3 106 37q21 17 65 68z" />
<glyph unicode="N" horiz-adv-x="962" d="M348 787q19 3 56 12q21 7 64 22q4 1 58 9q16 4 31 7q17 3 31 -2q11 -3 31 -1q28 2 32 2q17 0 72 -27q18 -9 36 -38q7 -11 22 -25q19 -16 24 -22q8 -11 28 -51q5 -8 -3 -28q-5 -10 0 -40q2 -11 -4 -62q3 -10 5 -32q-3 -11 -10 -32q-10 -37 -10 -60q0 -65 1 -32 q0 -14 -11 -28.5t-35 -51.5q-6 -19 -25 -53q-58 -68 -58 -99q0 -33 66 -33q12 0 47 4q75 6 107 52q15 22 41 22q40 0 37 -42q-1 -21 -29 -55q-6 -9 -21 -25q-11 -6 -32 -24q-30 -41 -90 -63q-27 -9 -72 -10h-35q-17 0 -29 -1t-33 2q-29 4 -34 4.5t-23 4.5t-27 4 q-10 0 -33.5 -7.5t-40.5 -6.5q-16 1 -37 10t-30 21t-9 30q0 15 8 24q9 14 30 39q5 8 18 20q10 0 29 5q15 8 52 42q11 16 38 47q10 10 11 23q2 17 5 23q8 6 21 18q4 8 15 22q18 20 21 23q14 16 15.5 25t14.5 60q1 3 10 25q5 12 3 26q-1 10 4 28q6 22 7 28q2 17 -10 35 q-20 29 -20 31q-5 8 -14 25q-1 10 -8 28q-10 13 -50 27q-23 7 -55 10q-9 4 -28 8q-13 -1 -38 -1q-13 2 -25 -3q-16 -7 -23 -7q-10 2 -30 3q-9 -4 -29 -8t-57 -15q-12 -5 -27 -19q-19 -18 -25 -22q-19 -13 -19 -37q0 -13 7 -36q8 -27 9 -34q-1 -20 -1 -59q0 -9 1.5 -32.5 t1.5 -35.5q0 -16 -16 -58q-3 -9 -1 -63q0 -7 8 -26q6 -15 4 -25q-14 -53 9 -65q8 -4 49 -3q14 0 20 -10t11.5 -20.5t5.5 -19.5q0 -14 -14.5 -27t-29.5 -24q-8 -11 -30 -29q-16 -6 -46 -20q-37 -22 -60 -22q-19 0 -30 16q-22 35 -31 79q-2 8 1 23.5t2 23.5l-3 48q0 11 -6 51 q-5 31 -4 51q-1 39 7 117q0 4 2 56q0 7 4 23t4 24q0 -1 -4 18q1 12 -1 38q-9 19 -20 61v36q0 20 -7 34q-4 11 -9 22t-13.5 17t-28.5 9.5t-28 9.5q-13 10 -13 24q0 11 9 27q7 13 14 25t17 16q20 7 22 8q7 11 31 24q17 7 49 14q16 0 44 -19q18 -13 27 -38q5 -18 10.5 -36 t18.5 -22q7 -2 47 17q47 21 59 24z" />
<glyph unicode="O" horiz-adv-x="867" d="M131 59q-39 61 -54 108q-5 10 -14 30q-1 12 -3 33t-6 62q-2 16 -13.5 51t-12.5 54q0 12 5 28q7 21 8 28q-3 11 -3 33q2 13 7 38q14 49 46 102q9 17 33 46q21 10 58 35q55 52 96 68q31 12 63 24q37 13 65 16q34 3 53 12q9 4 27 3q19 -2 28 0q46 13 115 -31q15 -9 45 -32 q7 -7 23.5 -8.5t23.5 -6.5t12.5 -21.5t11.5 -21.5q12 -12 36 -43q2 -9 10 -27q8 -7 21 -22q14 -22 12 -50q-1 -9 7 -58q2 -13 4 -30q4 -13 9 -40q0 -6 -2.5 -16t-3.5 -15q4 -10 6 -30q-1 -14 -17 -64q-11 -40 -43 -122q-48 -92 -129 -144q-9 -10 -29 -27q-16 -6 -46 -22 q-32 -23 -83 -18q-60 6 -84 -11q-11 -8 -22 -8q-13 0 -34.5 12t-31.5 13l-52 6q-29 4 -50 13q-15 11 -45 30q-15 8 -47 23zM540 680q-35 11 -107 25q-41 4 -124 -29q-26 -11 -53 -22q-29 -14 -43 -35q-13 -13 -37 -42q-6 -10 -10 -29q-6 -25 -8 -30t-2 -11q0 -7 5 -20.5 t4 -22.5q-3 -75 -3 -68q0 -7 4 -19t5 -20q0 -11 6.5 -32.5t6 -33t8.5 -23.5q11 -16 13 -21q13 -36 74 -84q8 -6 26.5 -10.5t26.5 -12.5q18 -17 50 -19q28 0 56 -1q62 -6 81 -6q31 0 52 7q11 3 23 12q16 12 23 16t17.5 17t17.5 17q30 20 41.5 31t16.5 30l6 32q8 34 13 58 q5 9 12 29q-6 8 -13 27q-1 11 5 28q7 21 8 28q4 26 -17 59q0 1 -23 58q-14 36 -39 43q-71 22 -122 74z" />
<glyph unicode="P" horiz-adv-x="598" d="M235 224q1 -10 2 -29q-7 -10 -16 -30q3 -9 4 -27q-8 -14 -20 -36q-5 -8 62.5 -23.5t65.5 -22.5q-3 -10 6 -28l14 -28q8 -25 -66 -25q-27 0 -77 4t-62 4t-15 -2q-13 -7 -30 -6q-41 1 -31 1q-20 -1 -41 24q-11 13 -11 29q0 45 52 74q30 17 30 56q0 -10 -6 57q-7 89 10 123 q1 4 1 7q0 6 -5.5 15.5t-5.5 15.5q0 3 1 7t1 6q0 10 -13.5 33.5t-13.5 32.5q0 -6 -4 40q-1 11 13.5 33t11.5 34q1 19 -2 57q-4 18 -3 52t-35 39q-30 2 -61 5q-35 13 -31 45q1 15 1 30.5t10 27.5q19 24 57 26h66q9 2 28 4q9 -2 28 -4q37 6 111 16q10 -3 29 -5l20 2 q11 1 19 -3q30 -15 53 -13q21 -4 65 -4q23 3 53 -10q40 -17 51 -19q25 -4 35 -36q10 -14 23 -44q1 -7 8.5 -23t7.5 -24q0 -3 -2 -9t-2 -9q0 -13 12 -51.5t10 -48.5q-9 -43 -23 -65q-4 -5 -27 -28q-20 -19 -23 -32q-7 -23 -37 -35q-46 -20 -51 -23q-21 -15 -67.5 -31.5 t-70.5 -15.5q-33 2 -119 56q-2 -4 -2 -10q0 -12 7.5 -40.5t7.5 -37.5q-2 -12 -3 -78zM351 457q41 0 62 15q41 31 42 32q23 18 36 39q11 16 11 47q0 54 -25 79q-43 42 -100 43q-15 1 -48.5 4.5t-51.5 3.5q-14 1 -28 1q-13 -1 -24 -13t-11 -23q0 -5 2.5 -15t2.5 -16 q8 -64 6 -100q-1 -4 -4 -25q-2 -13 1 -27q2 -10 14.5 -17t15.5 -16q5 3 10 3t14 -5.5t16 -5.5q4 0 9 1q14 -4 50 -5z" />
<glyph unicode="Q" horiz-adv-x="945" d="M829 -119q23 -1 63 6q15 11 43 32q10 15 39 37q5 3 10 3q27 0 33 -37q9 -48 -53 -103q-9 -8 -50 -32q-31 -18 -42 -38q-5 -7 -21 -16q-22 -12 -23 -13q-5 -4 -13 -4q-6 0 -39 8q-9 3 -21 14.5t-20.5 14t-18.5 25.5q-8 16 -15 32q-15 36 -52 104q-8 5 -21 19 q-3 9 -10.5 27.5t-19.5 29.5q-6 5 -22 2q-18 -2 -24 -1q-9 3 -28 0q-20 -3 -29 -1q-14 3 -32 -3q-23 -8 -30 -8q-14 -2 -77 16q-32 6 -65 12q-36 8 -58 26q-32 25 -56 31q-8 2 -15 3.5t-9.5 11t-12.5 30.5q-27 35 -31 56t-20 60q-12 19 -11 50q1 3 3.5 12t1.5 14 q-2 12 -7 38q-8 18 -20 55q-4 17 1 60q6 64 7 71q7 41 21.5 67t23.5 55q3 10 15.5 21t15.5 16q14 21 49 34q10 3 21 18l18 24q6 6 20.5 13t20.5 12q29 26 47 28.5t50 15.5q19 13 53 22q21 -2 57 4q18 8 51 10q70 4 118 -18q18 -8 47 -27q16 -12 46 -30q3 -1 28 -6 q4 -8 14 -23t20 -29q11 -18 14 -31t38 -47q15 -14 19 -56q1 -9 9 -60q5 -36 3 -60q1 -20 0 -60q-6 -35 -2.5 -59.5t-16.5 -59.5q-3 -5 -14 -60q-6 -20 -17 -59q-5 -16 -22.5 -31.5t-33.5 -28.5q-33 -32 -33 -40q0 -7 5 -18q4 -20 23 -55q8 -7 24 -54q7 -21 33 -72zM576 706 q-13 7 -43 18q-16 1 -46 10q-13 7 -30 7q-32 0 -68 -21q-9 -5 -28 -7t-26 -5q-15 -8 -48 -21q-8 -2 -14 -12q-7 -13 -11 -16q-14 -6 -41 -29q-10 -12 -26.5 -49.5t-16.5 -50.5q0 -6 5.5 -17t6.5 -14q4 -13 1 -31q-3 -25 -3 -30q0 -15 14 -55q11 -37 8 -56t9.5 -45.5 t29.5 -39.5q-5 69 6 77.5t17.5 35.5t15.5 35q29 29 59 57q35 32 67 36q38 5 41 5q22 1 40 -9q15 -7 30.5 -14.5t25.5 -20.5q20 -26 53 -60q8 -9 10 -31q6 -4 40 -60.5t40 -61.5q12 -10 22 -10q22 0 37 47l14 66q3 13 10 40l-1 41q4 27 4 83q-5 11 -16 35q-1 13 -8 38 q-17 39 -41 62q-61 7 -139 73zM399 320q-7 3 -12 3q-10 0 -23 -15t-24.5 -19.5t-27 -44t-29.5 -38.5q3 -23 55 -38q21 -10 66 -29q12 -4 36.5 -1.5t35.5 -1.5q30 -8 47 -8q16 0 29 6q-10 27 -49 60q-32 53 -71 113q-5 6 -15 9q-17 3 -18 4z" />
<glyph unicode="R" horiz-adv-x="997" d="M260 53q-3 -23 -10 -33q-2 -2 -18 -16q-19 -15 -77 -24q-66 -9 -99 8q-22 12 -27 58q-3 31 -3 30q1 48 11 111.5t11 90.5q-3 67 3 204q2 20 -4 55q-4 27 -2 39q4 21 3 35v29q1 20 -17 43q-4 6 -34 37q-21 23 -22 33q0 7 -5 16t-4 27q1 7 22 33q36 32 69 32q4 0 34 -4 q11 -1 35 -12t25 -13q14 -13 30 -31q2 -8 2 -18v-11q-1 -8 -1 -11q0 -15 11 -27q3 -4 10 -20q5 -9 15 -9q12 0 40 12q23 8 46.5 17.5t34.5 19.5t52 25q51 18 55 20q12 6 39 27q15 11 41 13q54 2 100 -71q12 -20 18 -69q6 -52 -10 -87q-32 -67 -83 -126q-30 -23 -81 -73 q24 -16 78 -45q30 -12 72 -31q7 -4 26.5 -22.5t22.5 -23.5q9 -15 18 -29q5 -8 23 -23q18 -11 49 -36q2 -3 21 -30q14 -21 27 -28q45 -26 76 -26q14 0 30 4q8 2 56 41q9 7 28 18q10 3 17 3q35 0 35 -47q0 -33 -17 -53q-6 -7 -25 -17q-28 -13 -40 -28q-21 -24 -61 -40 q-31 -12 -45 -12q-12 0 -33 6q-25 4 -66 18q-28 14 -69 27q-16 12 -42 29q-4 3 -5 11t-4 11q-10 5 -27 16q-7 13 -21 31q-13 9 -18 20.5t-16.5 20.5t-23.5 26q-4 5 -30.5 15.5t-30.5 15.5l-33 36q-10 10 -30 17q-31 10 -34.5 11.5t-33 6.5t-34.5 5q-23 -2 -53 19 q-3 5 -22 19q-12 9 -13 36t21 41q23 9 45 18q4 2 57 11q48 7 56 15q15 13 39 36q30 34 30 72q0 63 -42 78q-4 2 -4 3q0 2 4 2q-77 1 -99 -8q-2 -1 -39 -19q-12 -3 -53 -22q-33 -18 -45 -69q-4 -16 -9 -83q-1 -15 -3 -43q-1 -13 -4 -30q-2 -11 -1 -29q-4 -21 -4 -49 q1 -23 4 -50q2 -13 5 -36q0 -26 7 -63q12 -23 25 -28.5t15 -7.5q36 -44 33 -71z" />
<glyph unicode="S" horiz-adv-x="718" d="M96 36q-1 -1 -12 -20q-6 -11 -18 -14q-37 -10 -50 -2q-16 9 -16 20q0 10 13 22q50 49 51 90q0 11 9 24t16 24q12 20 10 58q-1 11 5 27q8 26 9 27q5 23 21.5 42.5t37.5 19.5q15 0 26 -8q16 -14 10 -47q-1 -17 -2 -52q-1 -15 8 -26t18 -21q15 -25 43 -34t55 -18 q18 -11 56 -28q19 -1 56 -6q12 -3 28 -1q21 2 28 2q42 -2 63 13.5t37 38.5q19 28 17 48q0 15 1 30q-1 15 -12 27q-18 18 -57 38q-17 11 -52 30q-18 7 -53 27q-36 -2 -118 35q-55 21 -110 43q-63 27 -97 65q-5 6 -4.5 22t-1.5 22q-16 42 -14.5 52.5t-1.5 30.5q-3 24 -3 32 q0 28 19 40q5 3 11 16t13.5 15t19.5 7q3 9 13 23q8 4 22 14q5 7 17 20q10 6 32.5 9.5t30.5 6.5q22 10 43 20q25 11 45 11q8 0 20.5 -4t18.5 -4q9 2 28 2q10 1 29 0q11 -5 37 -11q15 -1 47 -20q11 -13 38 -33q15 -9 45 -19q15 0 22.5 -15t13.5 -29q4 -9 3.5 -29t1.5 -27 q3 -13 -10 -26t-25.5 -13t-32.5 -2q-24 -3 -31 -3q-19 -1 -53 25q-8 7 -7 20q1 24 1 23q-2 22 -42 33q-18 6 -56 17q-22 3 -65 12q-24 8 -43 8q-37 0 -54 -29q-7 -13 -9 -54q-2 -55 -2 -31q0 -17 11 -30q12 -16 43 -28t44 -24q18 -18 52 -29q45 -14 56 -20q8 -5 27 -6 q12 -6 35 -15.5t70 -25.5q89 -23 122 -83q4 -5 13 -16q4 -5 6 -34q2 -24 -13 -105q3 -11 -2 -34q-6 -11 -19 -30q-3 -12 -14 -32q-3 -3 -24 -11q-11 -4 -35 -25q-6 -9 -17 -25q-9 -6 -24 -21q-54 -70 -121 -70q-12 0 -57 13q-12 -1 -37 0q-9 1 -37 8q-22 5 -36 5 q-25 0 -70 21q-20 10 -32 20q-17 16 -31 18q-26 -2 -47 -27z" />
<glyph unicode="T" horiz-adv-x="778" d="M324 718q-17 1 -52 6q-12 2 -24 2q-63 0 -78 -45l-4 -12q-2 -2 -11 -4q-17 -3 -31 -11q-29 -16 -48 -16q-26 0 -40 22q-12 18 -12 46q0 13 2 29q4 21 38 41q25 15 53 22q16 3 48 17q12 8 28.5 9t24.5 4l36 14q5 0 12.5 -3.5t27 -5t27.5 -3.5q4 -2 7 -2q6 0 17.5 4.5 t17.5 4.5q4 0 8 -1q23 -1 68 -10q13 -5 54 -7q20 -2 56 -16q8 -4 47 -32q30 -22 58 -22q12 0 62 15q28 9 44 40q14 28 33 30q75 7 79 -95q1 -20 -41 -65q-12 0 -28 -16q-19 -20 -27 -22q-8 -9 -26 -22q-16 2 -40 0q-29 -9 -68 -7q-55 3 -77 18q-19 12 -22 12q-9 -1 -16 3.5 t-10 4.5q-4 0 -10 -2q-19 -7 -56 -24q-20 -12 -63 -30q-61 -18 -96 -58q-13 -12 -36 -35q-7 -11 -14.5 -32t-12.5 -30q-29 -48 -29 -87q0 -12 3 -23q3 -19 12 -55q6 -16 42 -46q10 -14 33 -38q15 -11 45 -32q26 -19 105 -35q38 -8 54 -3q24 3 67 7q65 7 104 44.5t72 36.5 q32 0 36 -28q4 -27 -17 -57q-4 -8 -20 -28q-15 -11 -45 -34q-89 -69 -156 -67q-8 0 -33.5 5.5t-36.5 4.5q-6 -1 -17.5 -12t-19.5 -13q-8 4 -24 11q-16 -2 -43 3q-15 8 -53 8.5t-56 11t-52 33.5q-19 9 -54 36q-39 45 -35 89q1 12 -17 35.5t-14 36.5q4 15 1 42q-4 36 -4 42 q0 56 1 49q-2 13 3 24.5t10 23.5q10 24 11 52q0 11 9.5 19.5t18.5 15.5q18 25 62 70l31 31q20 21 36 24q30 8 70 28q47 23 46 36q-20 10 -51 23z" />
<glyph unicode="U" horiz-adv-x="967" d="M705 51q-20 -4 -59 -15q-4 -1 -23 -11q-11 -6 -24.5 -5t-35.5 -6q-33 -11 -34 -11q-77 -19 -110 -18q-9 3 -28 7q-9 -2 -27 -4q-14 1 -48 24q-8 6 -25.5 6.5t-23.5 5.5q-11 7 -21 25q-14 24 -18 29q-19 23 -27 35q-15 22 -19 41q8 15 5 31q-9 55 -9 64q4 21 11 63 q1 7 2 65q1 39 11 61q11 10 24 43q3 21 32 56q24 29 30 52q3 12 18 26t18 24t3 17q0 22 -31 27h-52q-19 0 -62 -7q-11 -1 -31 -8q-10 -10 -31 -29q-30 -23 -50 -23q-22 0 -37 26q-4 7 -4 15q0 27 70 90q6 3 19 8q3 1 26 23q12 13 39 35q23 12 58 11q12 -1 39 6q24 6 39 3 q9 -5 29 -12q10 2 31 4q21 -1 67 -8q18 -5 46 1q36 7 45 7q21 0 38 -10q23 -14 23 -39q0 -26 -22 -49.5t-49 -39.5q-15 -13 -47 -37q-57 -36 -69 -88q-6 -28 -31 -45q-7 -5 -35 -62q-10 -12 -24 -46q-3 -15 -12 -59q-7 -37 -5 -56q3 -21 25 -56q0 -10 5 -29q6 -7 15 -23 q20 -24 45 -34q3 -1 55 -8q37 -5 65 -3q22 -3 61 1q38 16 63 16q15 0 26 6.5t24 13.5t27.5 14t22.5 21q10 18 10 47q0 13 -2 34q-3 27 -3 33q-4 9 -8 28q0 5 3.5 14.5t3.5 14.5q-3 9 -6 29q1 11 8 47q7 31 6 47q-6 53 -6 58q-5 20 -5 56q10 38 -8 52q-12 9 -40 2 q-24 -5 -35.5 17t-11.5 26q0 8 5.5 14.5t40.5 36.5q25 22 88 62q12 8 35 8q43 0 54 -24q3 -11 13 -33q5 -6 5 -13q1 -5 0 -14q-1 -11 -1 -15q0 -9 -1 -25t-1 -23q-1 -9 3 -25l5 -25q-1 -17 -2 -53l1 -52q-2 -34 -9 -103q2 -17 2 -52q1 -17 -1 -51q-2 -22 5 -53q9 -39 9 -52 q2 -24 3 -48q2 -29 11 -46q5 -11 39 -19q8 -2 17.5 -9.5t14.5 -9.5q16 -9 16 -30q0 -31 -23 -51q-32 -27 -86 -43q-13 -4 -24 -4q-32 0 -58 29q-7 13 -23 39q-7 8 -12 23t-8 21q-19 -10 -57 -27z" />
<glyph unicode="V" horiz-adv-x="959" d="M164 558q-10 0 -43 -21q-4 -3 -31 -43q-20 -30 -56 -30q-34 0 -34 41t46 83q8 4 24 15q4 8 14 24q19 24 34 54q14 27 29 46q7 18 27 48q10 16 35 39q39 20 55 18q32 -3 38 -25q1 -1 11 -22q6 -14 4 -23q-1 -20 -9 -54q-13 -23 -13 -32q0 -8 5 -16q13 -20 26 -55 q16 -44 23 -57q8 -17 33.5 -48.5t34.5 -50.5q17 -41 35 -83q22 -47 49 -74q7 -7 11 -26q2 -8 9 -17q10 -13 11 -15q10 -16 19 -16q10 0 22 21q17 29 20 32t20 7q6 1 15 21q5 13 39 56q38 47 62 99q8 17 20 54q14 70 14 71q0 8 -9 24q-13 20 -14 23q-3 19 -16 51 q-13 12 -38 37q-6 8 -16 8q-11 0 -34 -11q-16 -8 -44 -28q-26 -28 -47 -25q-25 3 -28 4q-11 5 -16 21q-3 9 6 32q8 20 16 29q14 17 41 37q40 29 45 33q13 12 43 32q32 15 64 10q7 -1 55 0q34 1 52 -11q17 -8 41 -30q16 -32 36 -50q10 -9 10 -39q0 -45 -13 -72q-6 -12 -6 -29 q0 -9 2.5 -27.5t2.5 -27.5q0 -21 -9 -35q-10 -7 -24 -33q-2 -18 -7 -54q-3 -18 -25 -40q-6 -5 -13 -23q-8 -10 -23 -33q-5 -15 -26 -45q-6 -5 -11 -19.5t-10 -20t-46 -34.5q-30 -21 -35 -40.5t-25 -40.5q-8 -9 -22 -56q-10 -33 -24 -55q-7 -15 -16 -31t-24 -22q-9 -4 -18 -4 q-25 0 -63 40q-12 12 -34 39q-6 16 -23 44q-52 56 -76 149q-3 8 -12 17q-12 11 -15 16q-6 14 -21 41q-11 14 -17 43q-7 37 -10 45.5t-26 43.5q-10 8 -25 26q-11 21 -24 33q-8 14 -28 37z" />
<glyph unicode="W" horiz-adv-x="1034" d="M928 242v1q-2 -11 -10 -31q-4 -8 -19 -25q-8 -8 -44 -77q-13 -35 -45 -89q-10 -11 -41 -50q-3 -2 -7 -6q-3 1 -16 10t-34 25q-12 8 -23 33q-8 20 -15 40q-4 9 -7 62q-3 47 -24 127q-12 43 -63 178l-16 46q-14 30 -31 31q-26 2 -56 -54q-8 -8 -21 -25q-4 -9 -24 -37 q-15 -22 -28 -36q-8 -16 -27 -46q-12 -18 -12 -37q0 -31 30 -78q32 -50 32 -111q0 -16 -3 -32q-4 -27 -21 -57t-38 -44q-4 -3 -9 -3q-10 0 -28 24q-18 31 -57 83q-3 4 -9 25q-5 18 -15 50q-2 3 -3 15q-4 27 -23 57q-7 10 -9 16q-10 12 -24 34q0 2 1 5q4 24 -2 41 q-20 55 -58 83q-11 8 -27 62.5t-23 65.5q-18 35 -54 36q-14 0 -29 -25q-8 -15 -26 -42q-6 -7 -19 -14q-17 -9 -20 -11q-9 -6 -19 -6q-18 0 -34 17q-6 59 -1 71q3 5 15 22q10 6 23 20q5 17 13 26q18 20 38 36q2 2 27 40q13 20 25 53q18 51 19 55q14 34 47 34q22 0 33 -18 q17 -27 50 -81q7 -11 16 -46q12 -46 27 -67q3 -5 16.5 -23t27.5 -54q7 -6 10.5 -24t5.5 -20q6 -7 32 -59q6 -13 13 -25q11 28 32 78l40 44q8 8 10 13q20 46 37 68q28 36 42 80q4 16 8.5 32.5t14 26.5t28.5 27q11 8 19 6q48 -10 60 -46q8 -27 17.5 -54.5t30.5 -47.5 q31 -31 41 -74q3 -16 20 -54q9 -20 9 -34q-1 -69 36 -124q28 -41 58 -41q19 0 37 19q11 13 23 37q15 30 21 39q2 3 6 8q3 16 10 37q8 11 14 45q4 27 4 47q0 48 -30 87q-21 28 -69 65q-6 4 -31 14q-19 8 -26 21.5t-7 26.5q0 15 9 28q17 22 58 53q14 10 31 10q7 0 41 -14 q16 -6 38 -18q7 -9 26.5 -21t26.5 -20q24 -25 42 -86q25 -81 18 -129q-1 -1 -4 -5t-3 -16q0 -6 -2 -10q-7 -18 -8 -27q-5 -8 -10 -20q-1 -9 -9 -40q-8 -18 -23 -55q-8 -14 -21 -44q-3 -7 -8 -21q-2 -3 -12 -15q-7 -8 -6 -17q0 1 -21 -40q-4 -7 -5 -10z" />
<glyph unicode="X" horiz-adv-x="1007" d="M937 786q2 -9 8 -27q12 -29 7 -54q-12 -62 -48 -62q-6 0 -13 1q-18 1 -50 9q-6 5 -21 11q-5 1 -14.5 -2t-13.5 -3q-24 0 -51 -12q-9 -3 -25 -10q-8 -9 -29 -22q-39 -10 -86 -70q-8 -10 -11 -27q-6 -21 -9 -28t-25 -32q-18 -20 -18 -34q0 -18 26 -43q19 -18 37 -35 q10 -20 33 -56q1 -1 20 -16q6 -4 8.5 -14.5t4.5 -14.5q5 -7 14 -21q21 -3 29 -10q4 -3 16 -19q8 -12 22 -14q11 -3 24 4q18 9 22 10q30 8 49 -32q17 -34 12 -56q-2 -19 -9 -54q-6 -17 -36 -52q-11 -14 -28 -18t-33 -9q-8 -3 -14 -3q-8 0 -15 7.5t-15 15.5q-16 9 -48 31 q-3 3 -24 11q-16 7 -19 16q-6 14 -13 28t-20 24q-6 4 -20.5 8t-21.5 12q-16 10 -40 35q-6 16 -24 48q-15 14 -36 47q-8 -5 -22 -17q-4 -9 -15 -27q-12 -10 -33 -36q-7 -18 -24 -54q-13 -19 -37 -58q-7 -10 -36 -46q2 -10 -4 -36q-20 -33 -54 -101q-7 -21 -9 -24 q-5 -11 -15 -21q-9 -16 -32 -45q-15 -13 -40 -45t-41 -46q-31 -27 -57 -27q-20 0 -39 15q-7 6 -14.5 22t-13.5 23q-12 11 -12 27t13 23q6 4 40 35q13 12 45 25q18 7 37 34q7 5 19 20q2 12 10 36q17 31 32 46q6 5 17 17q2 10 9 30q23 37 69 113q22 30 63 93q10 16 22 50 q1 11 15 27t17 28q8 34 2 58q-3 14 -15 18q-16 6 -20 12q-9 9 -23 57q-7 24 -36 59q-24 24 -70 74q0 1 -38 28q-13 10 -20 22q-8 0 -24.5 1t-28.5 24q-9 19 -11 38q-7 63 22 89q15 14 41 12q10 -1 26 2q21 4 27 5q38 2 52 -1q7 -2 34 -31q11 -12 32 -35q6 -7 10.5 -22 t8.5 -22q8 -13 24 -40q7 -7 19 -22q3 -9 12 -26q10 -7 27 -25q9 -13 15 -36q2 -9 12 -19q13 -13 16 -17q7 -13 14 -13t21 17q7 12 28 36q5 4 11.5 17.5t12.5 18.5q14 9 16 10q6 6 9.5 16t17.5 21t18 18q23 34 71 67l82 54q45 32 89 35q38 2 52 -9q14 -6 35 -21q7 -6 17 -19z " />
<glyph unicode="Y" horiz-adv-x="865" d="M539 -305q0 -5 3.5 -14.5t3.5 -14.5q0 -8 -2 -27.5t-1 -30.5q-41 -29 -102 -29q-38 0 -62 25.5t-48 50.5q-32 27 -27 117q2 29 17 51q6 9 9.5 27.5t8.5 26.5q8 17 27 48q16 15 43 53q18 34 30 48q8 17 28 50q16 19 16 45q0 21 -23 82.5t-47 109.5q-11 16 -29 51 q-2 10 -7 30l-18 34q-11 12 -31 38q-6 17 -20 53q-7 18 -23 53q0 1 -15 17q-5 6 -8 18q-5 16 -7 19q-10 21 -21 65q-9 1 -30 7t-33 6q-21 -2 -54.5 -25t-52.5 -27q-44 -7 -55 5q-19 20 -5 47q17 33 53 61q18 13 69 44q9 4 24 15q10 -2 25 3q33 10 39 10q69 -9 66 -9 q18 0 44 -20q37 -30 40 -31q17 -9 31 -37q1 0 19 -25q11 -16 11 -27q-1 -20 12 -49l21 -48q10 -33 33 -98q4 -10 28 -50q17 -30 21 -52t18 -63q12 -16 28 -53q9 2 13 13l8 19q12 14 35 43q17 23 27 62l14 66q9 14 21 44q3 11 -3 57q-1 14 -2 27t-10 26q-3 5 -9 28 q-1 3 -23 34q-6 11 -12 21.5t-19.5 12t-31.5 10t-22 18.5q-3 7 0 29t8 28q25 32 57 35q8 1 36 6q23 5 37 5q26 0 42 -13q42 -33 48 -40q25 -25 29 -55q1 -8 7.5 -29.5t6.5 -32.5q0 -7 -4.5 -24t-4.5 -25q0 -5 3.5 -16t3.5 -19q0 -19 -14 -54q-14 -39 -16 -54q-1 -5 -21 -55 q-6 -19 -19 -56q-9 -14 -28 -42q-9 -21 -30 -62q-22 -32 -65 -98q-17 -28 -35 -48q-8 -9 -13 -30q-6 -26 -9 -32q-5 -14 -26 -42q-7 -6 -14 -22q-10 -24 -11 -25q-12 -14 -29 -48q-8 -20 -24 -61l-19 -19t-12 -24q-2 -19 10 -52q5 -13 9 -27q8 -19 15 -24q4 -3 12 -2 q12 2 14 1q14 -1 23 -6q6 -8 3 -16z" />
<glyph unicode="Z" horiz-adv-x="1043" d="M987 118q-18 -15 -52 -48q-53 -56 -91 -63q-26 -5 -52 3q-13 4 -27 18q-20 21 -24 24q-50 37 -98 64q-31 17 -65 17q-19 0 -35.5 -15.5t-30.5 -28.5q-61 -44 -79 -95q-7 -18 -14 -18q-11 0 -36 27q-8 9 -21 22.5t-34 14.5h-28q-70 1 -57 2q-45 -3 -63 -28 q-7 -11 -24.5 -13t-33.5 -3q-12 -2 -26 7q-20 12 -26 13q-17 5 -23 8q-14 6 -17 15q-3 5 -3 12q0 43 56 78q13 8 23 25.5t15 21.5t16.5 5t15 5t6 16.5t5.5 14.5q69 41 99 92q10 16 40.5 41t40.5 41q19 28 35.5 34t33.5 19q25 19 30 22.5t6 14t4 13.5q20 21 27 26q17 8 49 29 q31 28 46.5 46t31.5 35.5t16 27.5q0 12 -19 12q-7 0 -24 -4t-25 -3q-10 8 -25 17q-12 3 -30 11q-4 5 -11 6t-11 4q-16 10 -36 11.5t-39 1.5q-27 2 -82 4q-59 3 -73 -36q-2 -4 -4 -10l-9 -1q-13 -1 -43 -15q-35 -15 -47 -15q-13 0 -16 9q-21 50 -19 69q1 11 14 29t25 26 q3 2 24 6q10 2 24.5 10.5t20.5 9.5q46 9 98 40q5 3 9 2q15 -2 45 -5q8 -1 27 -6t29 -5q27 0 29 -1q19 -5 48 2q5 1 18.5 -3t17.5 -5q15 3 40 2q13 -3 41 -11q26 -3 77 -11q3 -1 31 -12q12 -4 29 -2q17 3 19 3q7 0 22 -1t22 -1q30 -1 50 9q13 0 37 3q12 4 39 10q32 2 47 -30 q3 -18 -17 -36t-50 -22q-74 -11 -144 -87q-10 -12 -18 -15q-28 -13 -51 -41q-19 -25 -62 -69q-16 -12 -39 -38q-26 -28 -38.5 -39t-55.5 -45q-32 -25 -49 -31q-27 -9 -54 -63q-14 -26 -39 -40q-15 -9 -33 -33t-18 -37q0 -4 1 -6q11 -5 26 -16q2 -1 32 -7q12 -3 21 -3 q14 0 28.5 8t27.5 9q24 1 33 6q5 3 20 21q59 72 144 72q54 0 100 -39q31 -26 40 -32q25 -16 48 -18q56 -3 71 13q8 10 24 26q8 7 21 3q56 -18 56 -40q0 -8 -5 -17q-7 -16 -26 -46z" />
<glyph unicode="[" horiz-adv-x="388" d="M408 834q-13 -14 -46 -19q-36 -6 -78 -5q-23 1 -18 2q-7 -1 -9 -10q-6 -35 -3 -56q2 -11 0 -27q-3 -21 -3 -28q4 -19 4 -55q-9 -36 2 -64q3 -9 1 -27q-2 -27 -2 -28q-1 -21 -2 -56q1 -39 2 -119q-1 -65 -8 -227q5 -18 5 -52q-3 -11 -2 -25v-26q0 -2 -5 -52q-1 -13 4 -24 q9 -19 9 -22q7 -24 44 -24q22 0 39 8q6 4 14 4q21 0 48 -20q24 -17 34 -35q4 -7 4 -15q0 -18 -18 -32q-13 -10 -55 -1q-7 2 -20 -2t-19 -4t-12 2t-62 1q-8 0 -24 -6t-28 -4q-18 -3 -53 -5q-11 0 -12.5 11.5t-6 14.5t-9.5 3q-4 0 -10 -2.5t-8 -2.5q-6 0 -8 19q-5 39 -2 87 l5 45q4 28 3 45q-2 45 10 92q5 18 3 47q-3 45 -2 47q-2 33 3 93q3 9 3 20q0 10 -2.5 29t-2.5 29q0 8 1 15q4 20 0 47q-4 39 -4 47q2 15 -1 48q-3 19 -15 56q-5 9 -4 20q0 25 1 21q-3 52 -4 43q5 40 3 43q-4 11 -3 22q3 18 3 21q1 24 2 47q-1 32 -12 44q-11 5 -28 22 q10 26 42 41q26 12 47 8q11 -3 23.5 -6t20.5 0q6 2 12 2q5 0 14 -3.5t17 -3.5q26 -2 43 1q15 -2 43 3q13 6 25 12q18 9 24 9q10 0 18 -20q3 -7 14 -8.5t13 -8.5q8 -20 8 -25q0 -10 -10 -21z" />
<glyph unicode="\" horiz-adv-x="472" d="M34 758q-1 -5 -1 -11q0 -25 43 -110q44 -90 49 -139q6 -60 52 -205l54 -168q9 -34 80 -185q69 -144 78 -155q13 -24 46 -26q15 -1 29.5 12t10.5 22l-67 215v0q6 -19 6 -21v-1q-4 0 -66 152q-59 147 -75 193q-29 93 -85 267l-8 78q-7 64 -27 77q-39 30 -73 30 q-29 0 -46 -25z" />
<glyph unicode="]" horiz-adv-x="454" d="M335 848q-3 -6 1 -23q3 -9 -4 -28q-3 -10 -1 -28q1 -14 3 -28q0 -8 -1 -27q2 -12 3 -37q-4 -18 -8 -54q3 -28 4 -83q-3 -9 -7 -27q-3 -60 -2 -64q2 -11 -3 -52q4 -16 5 -50q-6 -47 -6 -134q0 -5 -1.5 -15t-1.5 -16q4 -8 10 -25t11 -53q2 -28 2 -58q0 -5 1.5 -14.5 t1.5 -14.5q-3 -13 -6 -39q-5 -58 -5 -59q-1 -22 4 -61q2 -5 14 -11t13 -14q3 -13 -14 -28q-13 -13 -28 -18q-30 -13 -53 -1q-10 5 -53 11q-31 5 -55 6q-5 0 -67 -12q-36 -7 -37 -7q-10 0 -17 5q-2 5 -18 13q-9 2 -16 13q-13 21 5 52q10 17 62 17q29 1 58 -2t31 -3q5 9 12 29 q-3 21 -4 61q0 7 4 31q3 19 1 31q-2 19 2 36q2 9 0 23q-3 19 -3 22q0 8 2.5 23t2.5 22q-2 15 -4 45v35q0 6 5 22q3 11 -1 23q-8 21 -1 45q-1 14 0 45q4 26 9 80q-1 16 -3 46q3 16 7 47q0 20 4 60t4 60q0 32 -7 58q-6 21 -12 41q-8 25 -21 36q-9 9 -34 0q-17 -7 -40 4 q-73 32 -73 58q0 16 17.5 31t32.5 11q27 -9 39 -7q32 6 42 4q20 -5 50 -2q6 1 21 6t22 4t28.5 3.5t31.5 4.5q19 0 21.5 -11t5.5 -15.5t13 -5.5h14q9 -1 10 -8t-9 -16z" />
<glyph unicode="^" horiz-adv-x="703" d="M466 440q-18 27 -78 97q-3 7 -11 19q-6 3 -18 11q-34 38 -54 38q-8 0 -17 -4q-2 -1 -26 -27q-12 -13 -31 -38q-9 -15 -26 -43q4 -7 11 -20q0 -4 -1.5 -11.5t-1.5 -10.5q-1 -51 -34 -81q-10 -9 -25 -9q-11 0 -28 5l-27 9q-12 2 -36 8q-12 3 -12 18q0 11 6 17q14 13 5 32 q9 10 29 29q10 5 31 27q1 7 7 21q7 6 20 21q24 41 51 71q12 10 36 32q8 14 26 40q27 29 29 32q17 16 37 22q27 7 37 3q12 -3 23 -6.5t19 -11.5q12 -4 30 -21q11 -9 24 -27q-2 -16 -1 -46q2 -13 21 -35q19 -25 22.5 -34.5t17.5 -25.5q11 -6 19.5 -26t15.5 -28q11 -10 20 -23 q0 -1 30 -22.5t62 -28.5q12 -2 12 -8q0 -9 -28 -28q-19 -13 -64 -7q-28 5 -32 6q-19 4 -29 12q0 1 -29 29q-17 17 -32 23z" />
<glyph unicode="_" horiz-adv-x="703" d="M691 -147q-29 -2 -90 -10q-6 -3 -32 -6q-4 1 -13 0q-15 -4 -51 -10q-40 -6 -45 -6q-21 6 -65 16q-12 3 -16.5 -7t-15.5 -9q-1 4 -6 3q-8 -3 -13 -3q-2 3 -6 6q-3 0 -20 -3q-20 -4 -32 -4q-24 0 -64 17q-5 0 -6.5 -7.5t-6.5 -8.5q-10 -2 -17.5 2.5t-14.5 3.5 q-10 -6 -20 -6q-2 -5 -12 -10q-8 2 -26 5q-29 4 -77 11q-7 1 -20 5q-8 3 -16 5q-11 4 -11 10.5t-5 5.5q-2 26 13 26q-3 16 7 27q44 0 83 -11q13 5 39 11q26 -4 90 -6q70 6 96 6h13q4 -4 9 -2q11 2 23 2q6 -1 19 -3.5t20 -2.5q8 0 37 4q26 2 46 2q7 -1 32 -5q19 -3 33 -1 q9 0 16.5 8t15.5 8q34 1 65 -12q25 -13 51 -25q1 -3 1 -6q0 -4 -4.5 -9t-3.5 -11z" />
<glyph unicode="`" d="M362 556l-21 -18q-81 48 -122 70q-82 44 -103 69q-5 7 -9 19.5t-1 16.5q4 11 19 30q26 18 34 18q5 0 8 -4.5t22.5 -5.5t25.5 -4q3 -2 18 -25q12 -20 22.5 -17t21.5 -19q18 -39 22 -43q27 -39 63 -87z" />
<glyph unicode="a" horiz-adv-x="591" d="M564 164q1 0 25 7q9 0 27 -1q22 0 22 -15q0 -3 -3 -21q-4 -30 -18 -50.5t-41 -48.5q-13 -13 -42 -31q-3 -1 -32 -11q-22 -8 -31 -8q-4 0 -25 13q-25 16 -46 36q-10 9 -20 9q-13 0 -37.5 -18.5t-35.5 -20.5q-47 -9 -69 -9q-36 0 -54.5 17t-43.5 16q-13 -1 -45 25 q-9 7 -18.5 23.5t-14.5 21.5q-24 27 -22 62q1 9 -2.5 28t-3.5 27q0 -4 5 57q2 26 22 49q19 20 39 40q19 14 52 40q6 6 19 17q5 3 29 22q8 8 17 17.5t20 10.5q1 0 41 16q14 7 45 15q23 2 56 -8q29 -8 53.5 -22t25.5 -42q0 -8 5 -26.5t3.5 -29t3 -27.5t3.5 -26q-3 -22 9 -59 q12 -40 12 -59t13.5 -37.5t29.5 -18.5t27 20zM362 173q1 6 -4.5 19.5t-6.5 17.5q-3 21 1 43q1 9 -4.5 19.5t-6.5 15.5q-1 14 -2.5 28t-7.5 24.5t-11 20t-16 12.5q-20 6 -48 -10q-6 -7 -29 -21q-10 -3 -15 -10l-10 -14q-19 -23 -22 -41q-1 -8 -15 -20.5t-15 -20.5 q-4 -44 51 -83q22 -15 42 -16q7 -1 20.5 -8t22.5 -5q71 11 76 49z" />
<glyph unicode="b" horiz-adv-x="531" d="M37 874q9 2 27 3q8 -4 25 -11q33 -13 48 -36q9 -14 17 -42q14 -19 29 -58q1 -11 6 -39.5t5 -43.5q0 -12 -2 -32q-3 -25 -3.5 -31t-4.5 -29q-2 -17 -1 -28q-1 2 -1 -31q-1 -21 5 -28q3 -3 7 -3q6 0 18.5 10.5t15.5 12.5q19 4 55 13q13 3 33 1q23 -2 32 -1q44 4 102 -38 q40 -29 57 -65q2 -15 11 -44q16 -30 16 -58q0 -40 -32 -90q-5 -8 -7.5 -26t-7.5 -26q-7 -12 -16.5 -19.5t-9.5 -12.5q1 -7 3 -14q1 -13 -30 -37q-6 -5 -22 -12q-8 -7 -26 -21q-56 -43 -99 -41q1 0 -30 -3q-10 1 -28 0q-1 0 -20 -8q-13 -5 -21 -5q-11 0 -17 9t-54 7.5 t-55 2.5q-29 19 -36 35q-9 21 -6 41q1 8 25 39q22 28 19 38q-2 7 1.5 18.5t3.5 15.5t-1.5 8t-4.5 49q-1 11 -6 42q-5 26 -5 42q0 11 2 21q1 4 8 24q5 15 4 25q0 20 -6 57q-13 35 -11 49q0 6 6 26q5 16 4 28q-7 59 -7 49q-1 10 3 28q6 12 3 19q-17 35 -17 44q2 14 3 28 q1 17 -4 28t-43 21q-12 3 -15 13q0 2 -2 21q-3 32 17 44q15 4 40 21zM184 356q-5 -19 -5 -50q1 -42 1 -51q-2 -17 5 -35t7 -23q0 -6 -3.5 -16t-3.5 -14q0 -6 4 -11q31 -48 85 -48q56 0 102 44q8 7 11 23q6 25 7 26q8 16 23 48q4 9 1 25q-4 22 -4 27q0 19 -34 51q-7 7 -23 12 q-19 6 -24 9q-23 13 -35 15q-47 7 -41 7q-24 -1 -46.5 -16t-30.5 -40z" />
<glyph unicode="c" horiz-adv-x="420" d="M17 143q-4 9 -9 28q2 9 4 27q2 22 2 64q-4 34 7 55q13 16 29 49q11 56 59 88q32 15 94 50q15 9 40 9q30 0 66 -12q14 -9 44.5 -26.5t42 -31t11.5 -35.5q0 -52 -35 -66l-22 -12t-21 -5q-17 6 -53 17q-13 3 -42 25q-26 19 -44 19q-6 0 -13 -2q-35 -10 -45 -92 q-2 -18 -2 -33q0 -61 39 -80q12 -11 39 -29q5 -2 57 -9q32 -5 45 -5q39 0 61 25q13 14 29 14q15 0 25.5 -12t10.5 -29q0 -43 -62 -96q-57 -49 -110 -49q-18 0 -33 7q-27 12 -70 25q-55 16 -76 36t-41 39q-21 24 -27 47z" />
<glyph unicode="d" horiz-adv-x="530" d="M253 688q3 -10 12.5 -21.5t12.5 -21t9.5 -10.5t14.5 -14q3 -6 0 -13q-3 -8 -2 -12q2 -5 11 -11.5t12 -13.5q3 -10 9.5 -9t11.5 -7q3 -4 11 -5t11 -5q10 -11 27 -30q15 -14 43 -43q1 -1 11 -20q10 -9 26 -29q6 -11 17 -48t12 -50q6 -4 8 -17q1 -17 4 -21q14 -27 14 -53 q0 -31 -21 -66q-11 -16 -30 -52q-5 -13 -25 -33q-26 -26 -31 -32.5t-23 -11.5q-5 -1 -57 -29q-15 -8 -70 -19q-4 -1 -13 -5.5t-14 -4.5q-11 3 -31 7q-102 11 -118 49q-5 19 -20 54q-11 16 -16 51q-1 10 -12 55q-9 36 -9 57q0 13 15 64q18 66 35 89q15 12 39 42q6 13 32 24 q36 15 38 16q16 10 16 17q0 6 -13 16q-25 19 -31 24.5t-11 21t-14 22.5t-10 13v19q-1 10 -6 18q-8 14 -10 18q-9 14 -18 45q-3 39 37 102q20 34 52 34q27 0 27 -25q0 -3 -3 -13t-1 -16q2 -12 18.5 -45t22.5 -52zM257 420q-21 6 -40 -42q-25 -64 -27 -66q-6 -7 -1 -42 q-4 -16 -5 -49q3 -39 35 -72q7 -8 29 -25q7 -6 40 -4q39 3 72.5 32.5t33.5 66.5q0 7 0.5 12t-2.5 16t-9 28q-5 22 -19 55q-16 20 -50 50q-39 35 -57 40z" />
<glyph unicode="e" horiz-adv-x="443" d="M420 349q-16 -16 -39 -21q-9 -2 -21.5 -13t-20.5 -13.5t-18.5 -14.5t-17.5 -15q-16 -6 -46 -26q-13 -14 -41 -35q-15 -7 -32 -21q-21 -17 -21 -30q0 -16 23 -33q20 -15 36 -18q19 -2 66 27q32 21 63 41q10 5 18 5q26 0 26 -51q0 -15 -3 -30q-4 -23 -34 -39 q-39 -20 -46 -29q-13 -15 -43 -23q-18 -8 -55 -19q-28 -6 -47 -7q-17 -1 -53 23q-16 9 -49 26q-24 13 -31 49q-2 7 -23 52q-9 18 -7 62q1 22 13 50q5 20 21 58q5 10 14 47q7 29 23 41t42 40q7 13 45 40q6 7 21 18q4 2 20.5 -1t20.5 -1q12 9 42 20q37 6 55 -2q8 -3 25 -9 q9 -6 28 -17q10 -4 19 -15q12 -14 18 -18.5t14 -26t8 -38.5q0 -7 -1 -11q-2 -13 -12 -22zM209 310q53 25 57 47q3 18 -19 20q-17 0 -35 1q-16 3 -34 -17.5t-24 -49.5q-2 -10 -2 -16q0 -13 9 -13t27 12q11 8 21 16z" />
<glyph unicode="f" horiz-adv-x="429" d="M36 -307q7 7 13 13.5t8 16.5t4 29q-2 12 -4 37q6 23 14 84q1 4 -2 11.5t-3 10.5q1 52 0 113q-4 17 -7 75q-4 60 0 76q3 16 -4 69q-1 15 1 27.5t2 13.5q0 10 -8 27q-4 8 -4 14q0 7 10.5 20.5t8.5 29.5q-1 9 -11 23t-10 25.5t-13 54.5q-9 28 -17 55q-4 17 -38 46 q-40 33 -48.5 46.5t-8.5 27.5q0 39 49 60q10 4 38 -13q32 -21 38 -22q11 -3 23 -12q15 -12 20.5 -14.5t9.5 -2.5q10 0 14 20q7 28 12 36q9 14 35.5 26.5t35.5 24.5q12 16 40 16q31 0 58 -16q9 -5 23 -22.5t21 -22.5q15 -7 44 -23q2 -1 34 -8q22 -5 22 -19q0 -21 -28 -60 q-13 -18 -25 -24q-6 -2 -34 -7q-18 -3 -35 16q-26 27 -33.5 31.5t-20.5 17.5q-9 8 -18 8q-13 0 -39 -16q-8 -5 -14 -26q-7 -24 -12 -29q-15 -19 -21 -36q-3 -10 0 -52q4 -46 4 -52q-1 -13 -3 -27q0 -17 9 -24q6 -5 12 -5q3 0 21 7.5t39 7.5q7 0 19 -7t22 -7q7 0 19 3.5 t19 3.5q21 0 38 -17.5t18 -39.5q0 -16 -16.5 -39t-31.5 -28q-31 -10 -98 -4q-23 2 -45 -35q-19 -32 -21 -59q-1 -15 9.5 -60t10.5 -64q0 -11 -2 -20q-3 -60 -10 -136q-11 -35 -6 -51q15 -47 15 -48q0 -11 -7.5 -21t-10.5 -52q-4 -35 -25 -48q-10 -13 -30 -34q-9 -2 -26 -8 q-17 -9 -35 0q-22 11 -22 43q0 30 14 45z" />
<glyph unicode="g" horiz-adv-x="598" d="M-14 -80q15 8 37 8q64 0 68 -45q1 -19 -22 -43q-8 -9 -6 -65q1 -61 33 -108q12 -18 43 -38q14 -11 28.5 -21.5t31.5 -13.5q37 -7 61 6q9 6 29.5 9t29.5 9q39 21 118 63q39 22 63 109q6 22 3 41q-4 28 -4 33q0 13 9 34.5t9 29.5t-9 13t-18 9q-23 15 -37 46q-10 23 -40 30 q-9 2 -16 2q-18 0 -40 -25q-25 -28 -51 -21q-12 3 -29 1q-24 -2 -30 -2q-11 1 -29 0q-19 -2 -26 -2q-34 0 -59 22q-24 15 -71 48q-4 4 -6.5 14t-4.5 13q-12 13 -32 43q-10 21 5 62l18 62q11 38 25 58q6 6 11 11.5t5 16t7 24.5q11 20 48 51q26 28 81 76q17 12 52 32 q2 1 34 19q23 13 35 13q20 0 37 -23t17 -45q0 -6 -2 -11q-9 -27 11 -49q12 -13 25 -57q7 -24 37 -53q8 -8 15 -27q9 -23 14 -30q7 -19 30 -51q11 -9 18.5 -27.5t13.5 -34.5q13 -16 31 -51q9 -28 25 -59q13 -28 30 -137q-2 -10 -4 -31q0 -3 2 -13.5t1 -16.5q-4 -21 -25 -47 q-18 -22 -33 -61q-13 -33 -25 -66q-17 -38 -35 -52q-16 -7 -43 -28q-15 -10 -42 -31q-5 -5 -23 -11l-27 -21q-12 -10 -25 -20t-26 -12q-16 -2 -60 -5q-49 -4 -59.5 0.5t-32.5 2.5q-26 -2 -33 -1q-21 7 -59 20q-19 7 -55 24q-10 6 -23 21q-18 20 -21 23q-12 12 -23 22.5 t-17 28.5q-18 55 -18 72q2 54 -2 76q-3 16 7 36q16 32 17 36q6 22 11 44q7 27 17 41zM166 266q-4 -25 8 -77q5 -20 23 -36q4 -4 35 -26q15 -10 91 -20q18 -2 35.5 20t12.5 40q-3 14 -24 38.5t-25 38.5q-9 28 -30 80q-16 32 -43 32q-8 0 -31 -22q-16 -15 -32 -29 q-16 -17 -20 -39z" />
<glyph unicode="h" horiz-adv-x="556" d="M576 57q0 -31 -39 -58q-31 -23 -66 -30q-22 -4 -66 13q-28 11 -45 22q-4 2 -15 51q-9 42 -1 63q11 29 8 54q-5 17 -10 51q0 11 4 28q5 22 5.5 28t6 22.5t5.5 24.5q0 6 -1.5 11.5t-3 11.5t-9.5 9.5t-25 9.5q-28 10 -56 -10q-16 -7 -47 -25q-15 -9 -17 -22q1 4 1 -29 q0 -15 -16.5 -50t-16.5 -52q0 -7 2 -13q10 -27 42 -33h27q14 -1 24 -10.5t10 -23.5q0 -28 -31 -70q-5 -7 -20 -13t-21 -14q-19 -26 -50 -25q-20 -4 -57 1q-16 6 -32 35q-1 2 -16 48q-3 8 4 27q3 8 3 40q0 15 13 55t11 57q-2 20 -4 31q-5 8 -11 24q3 8 5 26q0 5 -3.5 15.5 t-1.5 18.5q0 18 8 49q16 23 12 49q-10 62 -6 99q1 6 7 26q5 17 4 26q-4 43 -11.5 61.5t-14.5 37.5q-12 28 -20 32q-36 17 -43 26q-12 14 -12 29q0 30 54 63q23 14 51 14q29 0 46.5 -17t36.5 -34q19 -22 15 -49q3 -40 6 -100q0 -12 2.5 -43t2.5 -42q0 -19 -7 -107 q-3 -31 18 -32q9 0 17 12t14 14q15 -1 45 1q12 2 46 24q18 12 49 12q35 0 48 -17q4 -5 21.5 -13.5t20.5 -15.5q6 -10 7.5 -26t3.5 -30q4 -9 9 -27q0 -10 1 -29q0 -9 -7 -20.5t-7 -16.5t5.5 -12t5.5 -12t-8.5 -16t-8.5 -20q1 -44 0 -56q-1 -8 -9.5 -36.5t-8.5 -42.5 q0 -22 15 -30q3 -2 31.5 5.5t41.5 7.5q29 0 29 -43z" />
<glyph unicode="i" horiz-adv-x="332" d="M77 622q1 5 1 9q0 9 -7.5 21.5t-7.5 21.5q0 5 6.5 13t7.5 12q-1 11 0 33q9 32 47 35q19 1 34 -13q12 -13 25 -27q8 -10 13 -30q7 -30 9 -34q9 -23 9 -40q0 -20 -13 -35q-18 -23 -61 -14q-41 8 -63 48zM255 474q-4 -18 -9 -51q-4 -20 -10 -56q0 -6 -14.5 -27t-10.5 -30 q2 -6 9 -55q-2 -13 -3 -39q0 -1 3 -17q1 -8 -2 -18q-5 -16 19 -30q21 -13 36 -12q32 2 37 1q19 -4 20 -25q4 -55 -23 -75q-15 -5 -43 -18q-14 -11 -45 -27q-13 -5 -34 -5q-57 0 -73 26q-9 14 -16 34q-8 9 -21 31q0 15 -3 44q-3 18 -1 43q2 22 16 56q13 31 13 61q0 22 -5 50 q1 17 -5 42q-18 14 -44 40q-9 12 -9 26q0 29 25 40q19 12 54 26q2 1 21 7q13 5 20 3q77 -16 98 -45z" />
<glyph unicode="j" horiz-adv-x="438" d="M134 756q9 2 17 2q57 0 71 -83q1 -9 13 -29q10 -16 6 -31q-3 -16 -14 -33q-13 -20 -28 -23q-7 -2 -15 -2q-25 0 -54.5 13.5t-39.5 68.5q-6 30 -6 24q5 14 10 42q1 23 9 33t31 18zM-243 -437q-9 13 -20 47q-6 20 -15 61q2 21 1 63q-2 13 7 26.5l17 25.5q5 10 5 27.5 t2 25.5q6 20 32 42q15 13 34 13q25 0 43 -19.5t13 -46.5q-2 -9 -12.5 -22t-12.5 -21q-10 -33 -6 -57q8 -17 18 -53q2 -25 31 -57q16 -18 52.5 -33t60.5 -15q28 1 32 1q17 2 31 10q10 6 32.5 11t33.5 11q16 11 50 27q12 4 22 16t19 23q11 21 35 60q16 25 19 59q2 22 -1 58 q0 7 -6 28q-5 16 -3 29q1 9 -6 27.5t-7 29.5t-8 30q-7 15 -14 29q-7 19 -29 115q1 8 -1 25q-7 5 -14.5 20.5t-13.5 56.5q-5 38 -12 57q-3 8 -30 42q-7 -1 -28 4.5t-26 9.5q-22 15 -22 49q0 6 1 11q9 44 33 43q19 -1 54 15q61 29 85 29q25 0 43.5 -17t18.5 -42q0 -9 -4.5 -27 t-4.5 -27q0 -15 7 -41.5t8 -42.5q1 -10 9.5 -28t10 -26.5t8 -26t6.5 -29.5q0 -19 16 -54t17 -53q0 -22 13 -55q3 -18 11 -55q8 -21 8 -57q-1 -46 1 -58q1 -10 -2 -28q-5 -24 -5 -29q-3 -38 -15.5 -55.5t-22.5 -52.5q-13 -43 -19 -55q-11 -13 -29 -44q-9 -23 -47 -42 q-12 -5 -22 -17q-18 -19 -19 -20q-18 -10 -52 -30t-52 -26q-11 -1 -32 -3q-10 -5 -31 -10q-33 -3 -60 2q-18 3 -53 8q-9 -1 -27 -1q-6 6 -18 17q-8 5 -28 9t-26 7q-21 10 -45 36q-29 33 -39 40z" />
<glyph unicode="k" horiz-adv-x="599" d="M476 420q4 -35 -7.5 -59t-28.5 -49q-15 -17 -43 -51q6 -15 38 -29t39.5 -25.5t41.5 -40.5q16 -18 51 -47q30 -17 55 -11q8 2 21 12.5t20.5 13t14.5 2.5q33 0 33 -43q0 -23 -12 -38q-6 -6 -19.5 -13t-18.5 -13q-14 -17 -41.5 -27.5t-52.5 -3.5q-20 9 -57 26q-17 5 -49 18 q-8 5 -17.5 17t-14.5 16q-15 10 -45 32q-9 7 -20 23.5t-18 22.5q-11 14 -36 34q-7 2 -19 9q0 9 -4 24q-6 9 -6 19q0 18 20 42q16 17 33 36t12 45q-3 14 -13 18q-6 2 -24 2q-16 0 -45 -14q-17 -7 -51 -23q-20 -12 -27 -40q-3 -12 -6 -51q-1 -24 0 -52q4 -7 10 -24 q1 -10 7 -30q10 -19 36 -19q8 0 24.5 2t24.5 2q12 0 12 -17q0 13 -1 -27q0 -28 -40 -54q-16 -8 -48 -28q-14 -12 -51 -17q-25 -4 -54 12q-16 8 -19.5 26t-5.5 35q-2 14 2 113q-2 39 1 119q-3 18 -3 54q0 18 2 55q-1 -3 -5 55q3 21 3 64q-1 15 1 39q3 29 3 38q0 16 -4 30 q-19 67 -50 78q-45 15 -45 47q0 11 10 22q29 36 31 37q23 23 40 23q7 0 14 -3q2 -2 49 -19q28 -10 39 -31q9 -16 23 -52q3 -12 -1 -30q-2 -9 7 -33q5 -15 5 -32q0 -13 -4 -39.5t-4 -39.5q0 -6 3.5 -19t3.5 -20t-8 -22t-5 -31q7 -36 41 -36q8 0 17 3q14 6 36.5 27t35.5 28 q46 22 80 24q40 2 70 -47q9 -14 13 -45z" />
<glyph unicode="l" horiz-adv-x="318" d="M24 730q-8 5 -18.5 24.5t-15.5 24.5t-5 11t7 15q10 14 11 16q22 43 67 43q13 0 25 -5q39 -15 54 -25q26 -19 28 -49q7 -20 17 -55q4 -16 11 -48q1 -18 11 -53q2 -4 2 -10q0 -9 -6 -26q-6 -20 -7 -25q-3 -22 -1 -61q1 -43 0 -61q-3 -8 -8 -25q1 -8 1 -25q0 -3 -2.5 -11 t-2.5 -13q0 -4 5 -16q3 -10 0 -17q-3 -9 -1 -24q2 -16 0 -24q-7 -32 -7 -56q1 -9 6 -26.5t5 -27.5q-2 -45 20 -46q10 0 31 15q26 19 32 21l28 16q18 9 32 9q29 0 29 -32q0 -28 -18 -65q-10 -20 -29 -33.5t-38 -25.5q-65 -54 -114 -53q-28 0 -53 24t-31 51q-2 19 -12 57 q-4 10 0 29q2 8 -1 21t-3 18q-1 10 1 29.5t2 27.5q-2 19 -4 58q3 41 6 123q5 18 14 54q7 31 9 56q1 29 3 58q1 33 -8 57q-18 51 -72 80z" />
<glyph unicode="m" horiz-adv-x="853" d="M858 76q0 -7 -6 -19q-8 -15 -9 -19q-5 -17 -39 -33q-46 -22 -49 -24q-10 -7 -22 -7q-19 0 -39 13t-30 29q-6 10 -7 28.5t-4 26.5q-5 12 -5 32q0 25 -1 32q-7 36 -1 50q11 22 1 56q-4 13 -7 54q-2 34 -11 52q-12 23 -27 23q-7 0 -13 -5q-11 -8 -53 -30q-21 -11 -41 -33 q-16 -17 -16 -46q0 -7 5 -45q1 -13 5 -45q10 -1 28 -4q8 -5 24.5 -13.5t16.5 -22.5q0 -16 -25 -50q-5 -14 -23 -38l-48 -39q-17 -13 -50 -6q-11 2 -19 12q-12 14 -16 17q-21 15 -15 48q0 22 3 67q1 9 -5 24t-6 24q-2 16 -4 50q0 12 8 29t8 25q0 23 -21 54q-11 16 -27 16 q-11 0 -29 -9q-24 -11 -29 -13q-57 -16 -52 -78q2 -15 -2 -39q-5 -27 -5 -38q0 -14 4 -27q5 -19 39 -36.5t37 -35.5q3 -29 -35.5 -67t-73.5 -38q-16 0 -26 9q-13 10 -36 37q-9 12 -22 35q-1 4 3 51q0 1 4 29q3 20 1 29q-5 20 -7 77q-1 51 -10 76q-14 38 -52 52 q-42 16 -42 51q0 18 15 36.5t41 28.5t52 19q6 2 12 2q30 0 60 -55q11 -19 33 -19q14 0 63 21q16 8 48 25q14 10 40 21q31 3 50 -8q2 0 10 -14q4 -6 14 -9t13 -5q14 -51 40 -51q41 0 91 66q16 21 56 21q17 0 38 -4q17 -8 52 -19q24 -5 32 -31q3 -15 8 -43q-2 -16 5 -48 q4 -6 8 -34q1 -10 -4.5 -24.5t-5.5 -22.5q-1 -59 10 -105q4 -18 8 -25q7 -12 20 -14q15 2 43 -6q21 -15 21 -51z" />
<glyph unicode="n" horiz-adv-x="542" d="M511 109l18 -9q10 -5 12 -14q7 -30 -16 -46q-11 -15 -41 -41q-28 -18 -67 -18q-24 0 -41 9q-43 23 -44 97q0 20 3 102q0 17 3 50q10 51 7 63q-2 15 -16 47q-10 13 -33 13q-12 0 -17 -7.5t-10 -15.5q-7 -4 -19 -15l-15 -18q-10 -2 -27 -15q-19 -35 -17 -44.5t-5 -33.5 t-6 -32q1 -32 10 -49q6 -12 24 -23q22 -13 28 -19q13 -14 13 -28q0 -26 -40.5 -49.5t-108.5 -14.5q-21 3 -30 41q-2 8 -7 56q4 17 2 56q-2 5 -2 13q0 10 4 36q4 23 4 33q-1 14 3.5 35.5t4.5 30.5q0 16 -7 30q-2 3 -1 23q0 16 -6 18q-17 1 -49 6l-24 7q-12 5 -15 20 q-7 32 26 52q7 4 17 18t18 18q32 19 60 12q35 -8 53 -25q2 -1 16 -23q10 -14 23 -17q24 -3 44 25q32 46 85 46q51 0 87 -33q26 -23 35 -51q3 -8 8 -25q-2 -10 3 -40q3 -10 1 -58q-1 -14 -3 -27q-1 -8 1 -18q3 -13 3 -18q0 -11 -3.5 -35.5t-3.5 -36.5q0 -30 17 -44 q7 -6 21 -7t20 -7z" />
<glyph unicode="o" horiz-adv-x="504" d="M286 517q7 1 18.5 -5.5t16.5 -7.5q12 -1 23 -12q17 -15 20 -18q37 -23 44 -28q22 -16 35 -38q9 -11 22 -38q1 -18 7 -53q19 -62 19 -85q0 -12 -3 -21q0 -2 -8 -55q-5 -36 -17 -49q-24 -27 -72 -70q-22 -19 -94 -23q-10 -1 -25 -8.5t-23 -8.5q-30 -4 -47 -4q-66 0 -87 19 q-8 8 -46 32q-6 4 -34 35q-9 19 -28 52q-9 14 -6 41q-4 19 -5 58q7 15 19 46q4 10 4 29q0 6 -1 18v19q0 36 15 49q13 9 39 29q5 4 9 16.5t11 15.5l42 24q27 14 45 16q11 0 24.5 9t20.5 11q25 2 62 5zM136 299q-14 -37 -14 -59q0 -18 8 -32q11 -21 21 -41q15 -24 37 -25 q16 0 49.5 -9.5t51.5 -8.5q60 1 61 57q-4 14 -6 43q6 36 4 58q-3 35 -22 51q-11 12 -34 36q-27 22 -73 22q-28 0 -45 -10q-10 -6 -22 -11.5t-15 -14.5t-1 -29q3 -19 0 -27z" />
<glyph unicode="p" horiz-adv-x="494" d="M30 -380q-13 15 -13 32q0 16 23 60q3 5 17 19q10 10 10 23q0 16 -3 24t-1 13q6 11 6 12q3 8 2.5 26.5t2.5 27.5q12 31 12 62l-2 109q3 9 4 28q-4 8 -7 26.5t-7 59.5q-4 33 -9 108q0 2 2 30q2 20 -4 27t-17 18l-18 27q-9 10 -17 19q-11 13 -11 22q0 8 10.5 18t12.5 14 q4 11 9 22.5t14.5 16.5t26.5 13q9 8 30 22q25 13 52 15q5 0 13 -3t13 -3q8 3 26 5q16 -5 50 -12q25 0 69 -8q27 -11 49 -30q11 -15 34 -44q8 -8 16 -17.5t11 -21.5q4 -21 17 -42q16 -25 20 -35q13 -34 9 -89q-2 -33 -4 -59q-15 -17 -41 -56q-45 -88 -127 -107 q-49 -12 -90 -4q-20 4 -31.5 -16t-7.5 -38q7 -32 4 -41q1 -13 -2 -39q-3 -10 0 -20q4 -15 4 -20q-2 -13 -4 -40q0 -8 -7.5 -17.5t-7.5 -16.5q2 -16 -7 -31q-5 -14 -14 -35q-2 -3 -6 -30q-4 -23 -16 -32q-17 -14 -43 -14q-32 0 -52 22zM298 329q-14 5 -39 20q-9 7 -42 7 q-26 0 -37 -12.5t-17 -40.5q-1 -7 -1 -14q0 -13 7 -37t8 -37q0 -9 -2 -28.5t-2 -28.5q0 -26 13 -42t32 -8q9 4 23 5q20 1 23 1q64 10 82 39q16 24 13 39q-5 26 -13 45q-9 24 -19 49q-12 29 -29 43z" />
<glyph unicode="q" horiz-adv-x="552" d="M332 -108q-2 20 0 68q6 48 6 92q-17 -7 -50.5 -34.5t-55.5 -33.5t-42 -6q-39 0 -64 25q-10 9 -21 19t-13 20t-11 24t-12 22q-24 72 -27 132q-1 6 -5 28q-3 16 -1 28q4 24 18.5 54.5t37.5 39.5q12 5 30.5 20.5t29.5 20.5q16 7 41 30t44.5 30.5t58.5 17.5q21 1 66 4 q18 4 54 10q19 -3 60 -1q25 5 43 -35q3 -8 3 -15q0 -8 -5 -20q-8 -16 -9 -22q-10 -13 -20 -47q-1 -15 2 -40q4 -28 4 -40q0 -13 -14 -91q0 -19 -1 -57q-4 -9 -8 -29q0 -5 1 -14.5t1 -14.5q1 -20 3 -59q-1 -9 -3 -29q0 -4 3 -19q2 -11 0 -19q-9 -39 -6 -59q4 -25 -8 -100 q-4 -24 -4 -36t5.5 -15.5t6.5 -11.5q35 22 55 22q24 0 43 -23q6 -9 6 -17q0 -11 -23 -29.5t-24 -32.5q-43 -55 -69 -77q-5 -5 -15 -5q-6 0 -22.5 3t-24.5 2q-26 -7 -50 88q-16 204 -14 232zM198 306q-3 -6 -2 -19t-2 -19q-8 -16 -4 -36q3 -25 7 -50q8 -30 26 -37.5t34 -7.5 q18 0 43 11q45 20 54 67q4 23 4 87q0 61 -16 82q-43 4 -84.5 -17.5t-59.5 -60.5z" />
<glyph unicode="r" horiz-adv-x="432" d="M464 394q-10 -19 -31 -41q-14 -5 -48 -19q-13 -5 -54 4l-55 14q-26 0 -30 -32q-1 -18 -5 -55q-1 -5 -8 -28q-6 -17 -4 -29q3 -18 19 -51q18 -2 54 -9q25 -8 25 -18q0 -5 -2 -14q-10 -34 -30 -60q-32 -39 -38 -46q-25 -23 -53 -23q-6 0 -14 4q-11 5 -14 6q-11 -1 -31 2 q-22 10 -35 58q-1 20 -9 59q-2 5 -2 12q0 6 2.5 17t2.5 16q0 6 -1 10q-4 11 -1 28q3 19 1 28q-14 63 -14 71q0 6 4.5 18.5t3.5 19.5q-3 23 -36 31q-15 4 -29 7q-18 5 -26 14q-6 6 -6 12q0 7 8 18t10 15q28 62 61.5 69.5t53.5 7.5q37 0 66 -23q2 -2 18 -21q12 -15 21 -16 q21 -1 49 24q24 22 43 22q8 0 17 -3q26 -4 78 -15q26 -8 54 -36q3 -5 3 -11q0 -12 -18 -37z" />
<glyph unicode="s" horiz-adv-x="384" d="M357 384q-16 -12 -43 -12q-32 0 -60 14q-5 2 -10 2q-21 0 -21 -19q1 -12 23 -40q13 -16 37 -24q8 -4 20.5 -16t19.5 -16q17 -8 31.5 -37t13.5 -48q-2 -25 -15 -48q-6 -4 -17 -13q-5 -4 -7 -15t-4 -14q-3 -8 -10 -23q-8 -4 -20 -16q-16 -20 -31 -38q-3 -8 -12 -23 q-9 -1 -28 -4l-23 -10q-13 -5 -23 -5q-21 0 -58.5 13.5t-58.5 25.5q-55 32 -55 69q0 26 24.5 51.5t50.5 24.5q12 0 25 -10q17 -15 21 -18q28 -14 63 -15q33 -2 33 24q0 22 -20 38q-57 44 -68 55q-32 33 -38 77q-3 9 -6 27q0 5 3.5 14t3.5 13q1 20 2 25q2 10 11 23 q23 36 41.5 42.5t53.5 26.5q32 29 79 29q56 0 90 -38q7 -9 7 -29q0 -45 -25 -63z" />
<glyph unicode="t" horiz-adv-x="388" d="M238 495q8 4 23 7q12 -1 25 -3q14 -2 25 1q79 20 77 20q10 0 24 -14q4 -21 -9 -49q-2 -9 -9 -24q-9 -3 -24 -10q-10 -9 -34 -25q-11 -5 -30 -7q-25 -2 -31 -4q-16 2 -45 -5q-15 -10 -15 -45q1 -18 -2 -53q3 -19 -2 -59q-4 -11 -4 -21q0 -26 33 -69q14 -19 45 -19 q38 0 59 22q14 15 27 30q20 19 36 19t26 -14.5t10 -31.5q0 -46 -34 -64q-3 -1 -31 -32q-6 -7 -22.5 -9.5t-21.5 -7.5t-14 -16q-6 -5 -18 -14q-7 -7 -25 -10q-14 -3 -28 -5q-7 -1 -14 -1q-43 0 -80 41q-62 68 -61 96q1 12 -2 34t-3 31q0 21 10 40t3 51q-4 16 -1 60 q2 39 -32 45q-10 2 -30 10q-12 1 -31 10q-7 9 -8 29q0 19 5 30q14 29 73 29q20 0 31 12q5 6 3 14q-3 7 -5.5 13t-2.5 11q0 29 36 50q9 5 21 5q30 0 42 -20q6 -11 8 -37t7 -35q2 -5 20 -6z" />
<glyph unicode="u" horiz-adv-x="529" d="M175 437q4 -6 10 -52q6 -23 14 -67q2 -8 -6.5 -21t-8.5 -19q0 -3 4 -11q6 -18 5 -44q0 -6 -5 -28.5t-5 -32.5q0 -39 69 -39q52 0 77 21q14 12 15 52v15q0 16 2 24.5t5 26.5q0 4 -3 12.5t-3 12.5q2 9 4 26q-5 11 -12 34q-2 8 5 16t5 16q-4 11 -11.5 20.5t-15.5 18.5 q-8 12 5 51q10 32 39 35q68 7 93 -37q12 -20 17 -46q3 -13 -1 -35q-4 -28 -4 -37t-5.5 -14.5t-7.5 -15.5q-1 -9 4 -20.5t3 -21.5q-14 -61 -14 -68q1 -35 15 -61q3 -6 11 -6q5 0 20 4t23 4q21 0 27 -22q8 -23 -9 -42q-4 -4 -11 -22q-5 -12 -18 -19t-37 -23q-14 -7 -41 -21 q-10 -7 -21 -7q-21 0 -59 51q-5 7 -13 7q-15 0 -44 -22q-34 -25 -35 -26q-6 -3 -18 -13q-8 -7 -16 -7q-5 0 -11 2q-9 4 -25 2q-17 -3 -25 0q-32 9 -64 35q-38 29 -41 57q2 18 -4 54q-1 4 8 22.5t9 23t3 13t4 11.5q-2 9 -3 26q2 9 4 17q2 10 -2 17t-13 22q-4 7 -1 18 q1 10 3 19q2 35 -28 66q-11 11 -12 24v28q0 13 11.5 21.5t22.5 16.5q15 14 22 19q13 8 28 9q19 2 44 -30q6 -13 22 -40z" />
<glyph unicode="v" horiz-adv-x="484" d="M38 359q-16 20 -44 34q-34 18 -33 34q2 18 40 29l54 14q18 8 37 8q40 0 53 -30q5 -17 22 -43q10 -13 31 -40q8 -16 25 -48q12 -19 36 -58q6 -20 13 -39q9 -26 23 -26q7 0 15 5t15 17q8 17 11 20q27 35 28 58q0 41 -3 55q-8 33 -36 38q-9 1 -21.5 -3.5t-18.5 -4.5 q-29 1 -37 29q-3 9 -3 18q0 33 36 57q33 21 73 21q25 0 41 -9q12 -11 37 -32q13 -10 39 -31q16 -14 13 -44q3 -19 -2 -58q-2 -5 -12 -12t-13 -16t-7 -19.5t-1 -23.5q2 -9 -23 -46q-9 -19 -29 -54q-16 -17 -41 -57q-2 -4 -20 -23q-5 -5 -6.5 -16.5t-4.5 -15.5q-4 -10 -48 -48 q-6 -5 -16 -5q-12 0 -40 13q-32 15 -51 41q-10 14 -12 40q-3 35 -5 41q0 14 -6 37q-19 31 -56 95q-14 34 -53 98z" />
<glyph unicode="w" horiz-adv-x="757" d="M-25 328q5 17 20 44q16 10 44 37q8 18 24 55q14 28 45 28q21 0 32 -16t31 -44q6 -9 12.5 -30.5t12.5 -29.5q9 -11 17.5 -22.5t10.5 -26.5q9 -10 19 -19q14 -14 22 -14q13 0 29.5 33t20.5 35q16 11 28 43q13 36 25 47q27 24 43 21q39 -7 49 -36q5 -13 9.5 -26t14.5 -21 q23 -21 30 -49q2 -6 11 -25q8 -14 7 -27q0 -18 11 -41q12 -28 28 -28q9 0 17.5 13.5t18 26.5t23.5 35q1 6 1 12q0 25 -18 50q-11 14 -40.5 34t-39.5 36q-6 10 -6 20q0 26 55 62q19 13 49 -2q13 -12 41 -32q26 -12 40 -39q6 -12 20 -55q7 -21 3 -49q-6 -7 -14 -22 q-1 -9 -4 -26q-7 -25 -26 -52q-7 -8 -19 -27q1 -8 -1 -25q-7 -22 -11 -31q-8 -18 -19 -29t-33 -37q-7 -19 -29 -51q-15 -17 -39 -34q-6 -1 -41 21q-11 6 -30 46q-4 11 -5 28.5t-3 24.5q-3 17 -12 51q-6 22 -36 93q-10 24 -27 24q-16 0 -25.5 -15.5t-17.5 -29.5l-27 -27 q-17 -19 -17 -32q0 -12 13 -23q27 -22 27 -62q0 -11 -2 -24q-4 -20 -24 -48q-23 -32 -42 -32q-16 0 -36 26l-26 36q-6 5 -11 21q-8 23 -9 25q-1 8 -7 25q-5 7 -13 21q-7 6 -16 21q2 8 0 23q-10 25 -28 36q-12 8 -24 43q-9 28 -35 29q-13 0 -37.5 -17t-36.5 -17q-13 0 -25 13 q-7 25 8 54z" />
<glyph unicode="x" horiz-adv-x="543" d="M545 450q12 -16 12 -31q0 -13 -13 -18q-43 -16 -61.5 -13t-37 -6.5t-34.5 -19.5q-10 -6 -22.5 -21.5t-21.5 -20.5q-11 -8 -17 -25q-6 -9 -17.5 -28t-11.5 -29q0 -11 12 -22.5t36 -51.5q11 -18 36 -45q8 -6 29 -6q17 0 22.5 -10t5.5 -31q0 -26 -9 -50t-24 -28 q-48 -14 -63 -11q-12 -2 -37 -2q-1 0 -25 13.5t-41 53.5q-21 47 -34 60q-11 -13 -32 -39q-4 -8 -13 -23q-7 -6 -17.5 -20t-28.5 -44q-15 -14 -40 -47q-8 -17 -27 -45q-22 -19 -34 -41q-9 -14 -32.5 -42t-32.5 -45q-21 -40 -70 -62q-16 -8 -41 -8q-11 -1 -23 8q-18 13 -21 15 q-17 8 -17 14q0 -3 3 20q1 16 12 46q9 14 15 18.5t20 4.5q21 0 49 31q3 3 37 35q5 6 16 19q8 3 22 14q9 14 28 42q15 14 32 44q2 11 13 20.5t13 16.5q6 13 30 37q26 32 81 95q19 22 19 35q0 9 -13 26q-16 21 -18 27q-7 17 -25 49q-15 15 -45 48q-13 18 -42 28q-20 7 -20 24 q0 11 4 22t8 23.5t14 16.5q41 20 69 20q22 0 46 -20q34 -27 44 -32t17 -25q9 -24 14 -30q13 -16 35 -52q14 7 24 28q16 30 18 33t53 56q58 60 112 60q17 0 35 -5q11 -4 16 -24q5 -25 9 -30z" />
<glyph unicode="y" horiz-adv-x="584" d="M339 -203q43 -6 65 7l30 24q19 14 32 14q15 0 28 -17q9 -11 9 -24t-14 -38.5t-15 -37.5q-13 -10 -36 -29q-9 -7 -28 -11q-15 -2 -30 -5l-53 -12q-9 -4 -27 -9q-9 1 -28 0q-26 -5 -58 -14l-30 -12q-13 1 -40 1q-15 -1 -32.5 7t-17.5 23q0 7 6 18q9 16 10 17q8 14 23 43 q5 19 23 54q18 31 57 91q27 38 33 49q18 31 15 55q-6 36 -18 54q-3 4 -15 49q-3 12 -23 41q-3 4 -3 10q0 5 3 20t2 21q-6 35 -41 98q-13 23 -25 46q-17 21 -47 17q-10 0 -29 -1q-8 -4 -25 -10q-32 -7 -51 11q-4 12 -4 23q0 17 14 34l28 34q5 7 20.5 12t20.5 9q19 14 50 16 q50 4 55 3q6 -2 47 -28q56 -36 64 -73q5 -30 15 -52q8 -27 31 -76q12 -17 16 -24q8 -15 9 -26t2.5 -20.5t17.5 -11.5q23 -3 33 33l10 56q1 5 9 23q6 12 3 26q-2 16 -26 56q-6 10 -36 34q-24 19 -24 37q0 11 7.5 25t12.5 19q8 10 19 11q19 5 57 13q26 5 52 -13.5t36 -43.5 q6 -19 20 -54q3 -7 3 -14q0 -6 -4.5 -19.5t-3.5 -22.5q1 -1 5 -15q2 -6 -2 -14q-23 -51 -30 -91q-10 -55 -48 -102l-33 -45q-9 -16 -32 -46q-25 -22 -55 -99q-6 -13 -42 -61q-31 -40 -33 -65q29 2 66 2z" />
<glyph unicode="z" horiz-adv-x="533" d="M141 479q10 -7 55 -5q20 0 53 -8q8 0 25 -1q5 -1 14 -7.5t18 -5.5q15 6 48 14q17 0 53 7q6 2 12 2q7 0 19 -5.5t20 -6.5q7 1 14 1t9 -7q1 -6 0 -35q-1 -22 -24 -44q-30 -27 -36 -39q-9 -11 -25 -42q-7 -23 -31 -59q-15 -21 -30 -41q-21 -30 -18 -45q1 -6 12.5 -14.5 t17.5 -9.5q8 2 25 3q3 -1 16 -5q9 -3 16 -1q24 3 48 13q16 4 40 16q9 12 20.5 25.5t22.5 13.5q22 0 34 -13t12 -26q0 -16 -38 -56q-8 -12 -25 -33q-7 -3 -20 -8q-4 -2 -17 -22t-45 -27l-52 -8q-45 -9 -53 -9q-22 6 -65 12q-15 -4 -51 -2q-39 11 -52 4q-9 -6 -26 -6 q-23 0 -41 9q-21 11 -23 27q-1 12 -3 25q0 14 9 22.5t30 35.5q10 12 44 29q30 16 40.5 35.5t32.5 36.5q7 5 13 22t14 24q27 23 31 39q1 8 17.5 28t17.5 27q-62 3 -77 -8q-22 -17 -64 -7q-13 12 -36 26q-15 -2 -42 -4q-8 0 -22 -3t-21 -3q-11 0 -19.5 7.5t-18.5 29.5l-14 32 q-2 5 -2 10q0 1 12 30q9 22 10 24q5 8 18 15q25 13 44 13q20 0 34 -13q5 -12 20 -29z" />
<glyph unicode="{" horiz-adv-x="508" d="M374 -47q8 3 19 -5q15 -11 19 -11q19 -6 34.5 -28.5t15.5 -43.5q0 -7 -2 -13q-13 -44 -14 -45q-12 -26 -33 -26q-19 0 -61 20q-20 7 -58 23q-17 6 -52 20q-9 4 -45 32q-12 13 -38 38q-29 23 -31 46q-5 34 -16 103q-5 29 17 47q16 13 27 55q3 9 1 26q-2 20 -2 27 q3 31 -12 50q-5 6 -50 36q-33 21 -29 47q2 14 14.5 22t24.5 15.5t40 36.5q9 9 18.5 19.5t11.5 20.5q1 5 -4 25q-2 10 4 36q1 9 -7 21t-7 20q3 39 -2 51q-29 63 -29 97q0 43 27 65q13 15 41 39q17 10 46 34q12 14 53 35q10 8 32 19q15 3 46 7q34 6 42.5 0t33.5 -29 q6 -6 9 -20q4 -20 5 -22q14 -35 -9 -49q-12 -8 -24 -8t-31 9q-22 10 -32 11q-22 3 -37 -14q-14 -4 -31 -23q-10 -28 -9 -39q-1 -11 2 -31q8 -15 4 -24q-11 -28 -5 -40q1 -3 23 -11q3 -9 7 -27q-1 -15 -1 -45q1 -6 5.5 -23.5t4.5 -28.5q3 -15 0 -42q-9 -16 -27 -30 q-11 -7 -30 -27q-5 -9 -18 -19q-16 -14 -20 -18q-19 -21 -18 -38q1 -9 13 -19t15 -16q8 -18 26 -33q32 -25 34 -26q32 -32 32 -64q0 -7 -9 -20.5t-10 -24.5q-1 -24 -1 -25q-2 -12 -12 -21t-22 -30q-1 -9 6.5 -24t8.5 -21q-4 -11 -2 -36q13 -28 36 -36q10 -4 21 7 q16 15 21 16z" />
<glyph unicode="|" horiz-adv-x="388" d="M220 756q3 -39 17 -120q3 -8 9 -43q-1 -6 0 -17q6 -20 17 -68q9 -53 8 -60q-1 -18 -10 -43q-14 -37 -15.5 -42t-1.5 -8q0 -10 15 -15.5t12 -19.5q-5 -2 -5 -5q0 -1 3 -8t2 -13q-4 -2 -8 -8q-1 -4 4 -26q7 -25 7 -41q0 -10 -3 -19q-4 -27 -25 -68q0 -6 12.5 -8t13.5 -8 t1 -11q0 -6 -6 -14.5t-4 -18.5q9 -13 8 -25q1 -5 9 -8t8 -9q-2 -10 -8 -35q-6 -39 -17 -102q-3 -11 -10 -28q-4 -11 -9 -22.5t-17 -11.5q-8 0 -7 -6q-41 -3 -43 17q-26 -4 -42 8q0 59 17 111q-8 17 -17 51q-2 15 4.5 54t3.5 66q-9 93 -8 128q-1 8 0 17q4 4 4 7l-2.5 11 t-1.5 25q0 7 4 24.5t4 26.5q0 11 -5 50q-5 34 -3 61q0 11 5 35q5 21 5 34q0 9 -2 17q1 12 -12 21.5t-14 20.5q-1 46 21 87q20 34 39 67q6 2 10 2q6 0 15 -6t18 -4z" />
<glyph unicode="}" horiz-adv-x="490" d="M88 -167q6 8 3 27q9 10 19.5 18.5t47.5 23.5q31 14 44 31q26 33 22 54q-3 13 -13 25q-18 21 -18 22q-30 45 -30 85q0 14 3 27q-1 18 1 56q7 17 18 52q8 31 26 47q14 12 29 25.5t15 28.5t-13 40q-16 31 -18 37q-4 18 -17 48q-13 18 -13 30q0 10 8 24q5 9 0 55q-4 34 3 56 q13 37 13 66q0 20 -7 45q-9 32 -24 32q-5 0 -26 -8q-10 0 -30 -5q-7 -6 -23 -16q-4 11 -19 16q-23 8 -24 9q-11 7 -11 17t14 26q7 7 19 51q9 34 31 38q19 3 51 -5q38 -11 60 -23q19 -7 50 -26q17 -12 42 -39q9 -16 26 -49q18 -4 32 -37q3 -8 1 -19q-3 -15 -3 -19 q1 -7 3.5 -23.5t2.5 -25.5q-1 -11 -14.5 -28.5t-11.5 -32.5t-9 -37q-5 -10 -2 -38q-1 -26 6 -78q5 -16 19 -30l28 -28q10 -9 20 -19q13 -13 13 -23q0 -8 -6 -15q-8 -10 -31.5 -22.5t-31.5 -22.5q-22 -28 -26 -78q-3 -53 15 -76q12 -15 11 -30q-2 -10 2 -49q1 -14 6 -39 q3 -16 11 -48q-10 -34 -43 -63q-28 -25 -64 -45q-23 -9 -66 -32q-6 -5 -17.5 -4.5t-16.5 -0.5q-9 -10 -36 -19q-13 -1 -42 -10q-11 -4 -23 1.5t-12 16.5q0 7 10 17q14 13 16 16z" />
<glyph unicode="~" horiz-adv-x="703" d="M660 263q-20 -20 -34 -24q-3 -1 -21 -1q-13 0 -20 -9q-45 -52 -75 -69q-9 -5 -23 -5q-2 0 -69 13q-7 7 -27 16q-10 1 -20.5 1.5t-17 9t-11.5 16t-14.5 7.5t-29 24t-29.5 24q-6 0 -19 -4t-21.5 -3.5t-24.5 -21.5t-21.5 -24t-18.5 -11.5t-19 -8.5q-6 0 -16 9t-18 10 q-17 1 -17 15q0 15 18 43q12 18 29 29q8 15 22 36q4 7 13 19q10 5 29 24q10 16 40 17q6 1 18 7t20 4q23 -5 48 -19q11 -10 34 -30q9 -2 25 -9q4 -1 10.5 -17.5t10 -18t35.5 -14.5q22 -10 36 -10q10 0 18 4q13 6 40 18q5 3 17.5 25.5t20.5 23.5q52 8 86 -15q13 -9 13 -32 q0 -31 -17 -49z" />
<glyph unicode="&#xa1;" horiz-adv-x="354" d="M240 499q-2 -41 -5 -123q-6 -19 -15 -55q-7 -30 -8.5 -57t-3.5 -56q0 -34 8 -57q18 -52 72 -80q9 -5 18 -23q11 -21 16 -26t5 -11t-6 -16q-10 -13 -11 -15q-22 -43 -67 -43q-13 0 -26 5q-42 16 -56 25q-29 19 -31 49q-6 20 -16 55q-4 16 -11 48q-2 17 -11 53q-2 4 -2 10 q0 9 6 27.5t7 23.5q3 22 1 61q-2 42 0 61q3 8 7 24q0 9 -1 25q1 4 3.5 12t2.5 13q0 4 -5 16q-3 9 -1 16q3 10 2 25q-3 16 -1 24q1 4 -8 23.5t-9 30.5q0 34 67 41q52 8 71 -41q10 -27 8 -65zM125 663q-28 7 -32 9q-20 9 -23 21t-3 23q0 28 23 53q7 6 50 40q15 13 43 13 q29 0 50 -20q6 -12 23 -34q15 -13 15 -23q-1 -21 -12 -41q-10 -9 -26 -29q-8 -15 -32 -20q-27 -6 -76 8z" />
<glyph unicode="&#xa2;" horiz-adv-x="471" d="M206 493q-57 -17 -94 -64q-27 -35 -34 -70q-2 -10 -12 -25q-14 -19 -16 -23q-11 -20 -7 -54q-1 -21 -2 -63q-2 -8 -3 -26q3 -9 8 -27q5 -24 26 -47q20 -19 40 -37q31 -30 91 -48q8 -2 6 -65q-3 -78 -3 -82q1 -8 2 -8h54q-5 142 0 146q29 5 58 11q58 11 76 27q61 51 61 94 q0 17 -10.5 28.5t-24.5 11.5q-16 0 -29 -14q-21 -24 -60 -24q-13 0 -44 4q-19 1 -55 9q-12 11 -39 29q-38 18 -38 78q0 14 2 32q10 80 44 90q6 2 13 2q17 0 42 -18q29 -22 42 -25q16 -7 51 -16q10 -1 21.5 4.5t21.5 11.5q34 14 34 65q0 21 -11 35t-42 31q-8 4 -60 15 q-57 12 -62 14l4 128h-49z" />
<glyph unicode="&#xa3;" horiz-adv-x="632" d="M571 593q-9 -9 -29 -24q-8 -1 -23 -5q-7 -3 -21 -8q-31 -3 -85 32q-29 19 -54 19q-20 0 -46 -22q-19 -18 -39 -36q-33 -27 -37 -75q-1 -7 -4 -29q-2 -18 -2 -29q0 -19 7 -33q1 -2 7 -41q5 -29 17 -30q16 -1 41 3q35 6 41 7q58 5 81 -12q8 -5 8 -45q0 -22 -31 -19 q-7 1 -17 -3l-17 -6q-15 -1 -46 -4q-7 -2 -28.5 2.5t-30.5 4.5q-15 0 -21 -8q-10 -17 -14 -37q1 -8 -1 -24q-6 -4 -15.5 -15t-29.5 -32q-6 -3 -19 -10q-4 -5 -13 -13q9 -10 36 -3q18 4 45 1q77 -7 97 -7q13 1 42 3.5t44 2.5q6 0 22 -4q13 -3 22 -1t24 -1l25 -5q42 -2 86 27 q9 12 30 27q34 10 48 -4q7 -8 7 -16q0 -10 -17 -27q-21 -20 -24 -26q-10 -17 -23.5 -29t-39.5 -34q-24 -16 -89 -27q-17 -2 -46 6q-10 4 -29 2q-25 -1 -30 -1q-36 3 -42 1q-24 -6 -45 -2q-34 1 -99 15q-12 5 -25 5q-31 0 -59 -23q-10 -8 -24 -8q-18 0 -37 13t-19 31 q0 14 19 34q24 24 27 29q8 14 16 28.5t9 26.5q0 5 9 26q15 23 19 37q1 3 6 14q4 8 4 13q0 17 -32 17q-14 0 -44 -13q-26 -11 -40 -8q-8 3 -23 8q0 5 1.5 13t1.5 11q-2 12 5 38q4 9 32 25q11 7 28 -4q5 -3 34 -1q13 0 39 1q19 1 5 37q-2 4 -8 37q2 15 -1 45q-2 8 -2 16 q0 12 20 67q-1 13 8 37q9 10 26 29q10 2 27 12q10 7 31 24q15 19 50 55q10 7 29 22q14 5 38 20q16 16 46 16q15 0 28 -4q10 -5 32 -12q9 -2 16 -10q9 -12 12 -14q18 -14 39 -14t39 15q10 6 30 20q12 12 21 12q25 0 25 -28q0 -31 -22 -54t-59 -47z" />
<glyph unicode="&#xa5;" horiz-adv-x="865" d="M458 72q-21 -40 -49 -94q-6 -12 -43 -53q-8 -17 -27 -48q-5 -8 -8.5 -26.5t-9.5 -27.5q-15 -22 -17 -51q-5 -90 27 -117q24 -25 48 -50.5t62 -25.5q61 0 102 29q-1 11 1 30.5t2 27.5q0 5 -3.5 14.5t-3.5 14.5l3 12q3 8 -3 16q-9 5 -23 6q-9 -2 -26 1q-8 5 -24 51 q-12 33 -10 52q2 14 12 24l19 19q10 20 24 61q3 12 13 25q14 18 16 23q7 18 25 47q11 10 26 42q3 7 48 7q19 0 64.5 -2t63.5 -2q33 0 39 6.5t10.5 46.5t9.5 47q1 2 1 4q0 13 -98.5 13t-98.5 13q0 7 51 64q56 63 62 73q11 13 28 42q6 19 19 56q9 18 21 55q2 15 16 54 q14 35 14 54q0 8 -3.5 19t-3.5 16q0 8 4.5 25t4.5 24q0 11 -6.5 32.5t-7.5 29.5q-4 30 -29 55q-6 7 -48 40q-16 13 -42 13q-14 0 -37 -5q-28 -5 -36 -6q-32 -3 -57 -35q-5 -6 -8 -28t0 -29q4 -10 22 -18.5t31.5 -10t19.5 -12t12 -21.5q10 -10 23 -34q2 -10 9 -28 q9 -13 10 -26t2 -27q6 -46 3 -57q-8 -14 -21 -44l-14 -66q-10 -39 -27 -62q-13 -14 -35 -43l-8 -19q-4 -11 -13 -13q-1 8 -28 53q-6 9 -17 64q-5 21 -22 51q-24 40 -28 50q-3 6 -33 98l-21 48q-13 29 -12 49q0 11 -11 27q-18 25 -19 25q-8 16 -12 21q-7 9 -19 16 q-3 1 -40 31q-26 20 -44 20q3 0 -66 9q-6 0 -39 -10q-15 -5 -25 -3q-4 -3 -24 -15q-51 -31 -69 -44q-36 -28 -53 -61q-5 -10 -4 -26q2 -16 11 -23q13 -10 53 -3q19 4 52.5 27t54.5 25q12 0 33 -6t30 -7q11 -44 21 -65q3 -13 15 -37q6 -5 15 -17q8 -18 23 -53q5 -18 20 -53 q12 -11 31 -38q7 -11 18 -34q43 -94 90 -198q4 -9 -107 -10.5t-106 -10.5q-3 -9 -30 -71q11 -27 150 -27l46 -1q42 0 38 -4z" />
<glyph unicode="&#xa7;" horiz-adv-x="563" d="M504 314q0 -102 -126 -144q101 -41 101 -129q0 -80 -80 -121q-63 -33 -149 -33q-92 0 -139 33q-38 27 -38 65q0 61 62 61q53 0 81 -77q7 -19 15 -41q7 -1 14 -1q106 0 106 74q0 42 -39 68q-24 17 -110 52q-143 57 -143 161q0 98 127 144q-105 43 -105 135q0 76 81 117 q64 32 147 32q92 0 139 -34q37 -27 37 -64q0 -62 -62 -62q-38 0 -63 41q-8 12 -32 77q-5 2 -14 2q-105 0 -105 -74q0 -37 29 -61q19 -16 62 -34l62 -25q68 -27 100 -58q42 -41 42 -104zM380 282q0 45 -44 75q-19 13 -53 28l-58 25q-41 -36 -41 -95q0 -62 96 -103l58 -25 q42 36 42 95z" />
<glyph unicode="&#xa8;" d="M449 659q0 -33 -23 -57.5t-55 -24.5t-55 24.5t-23 57.5t23 57.5t55 24.5t55 -25t23 -57zM207 659q0 -33 -23 -57.5t-55 -24.5q-33 0 -55.5 24.5t-22.5 57.5t22.5 57.5t55.5 24.5q32 0 55 -25t23 -57z" />
<glyph unicode="&#xa9;" horiz-adv-x="942" d="M261 194q-4 9 -9 27q2 9 4 28.5t2 61.5q-4 33 7 54q12 15 28 48q11 54 58 86q31 15 92 48q14 10 39 10q30 0 65 -12q14 -9 44 -26t41 -30.5t11 -34.5q0 -52 -34 -65q-10 -6 -21.5 -11.5t-21.5 -4.5q-16 5 -51 16q-13 3 -42 24q-25 19 -42 19q-7 0 -14 -2q-33 -10 -43 -90 q-2 -18 -2 -32q0 -60 38 -79q12 -11 39 -28q4 -2 55 -9q31 -5 44 -5q39 0 60 24q13 14 28 14t25.5 -11.5t10.5 -28.5q0 -42 -61 -94q-56 -48 -108 -48q-17 0 -32 7q-27 12 -69 24q-54 16 -74.5 35.5t-40.5 38.5q-21 23 -26 46zM934 303q0 -103 -24 -172q-26 -76 -93 -143 q-140 -139 -337 -139q-215 0 -337 122q-68 67 -97 142q-26 70 -26 172q0 50 13.5 124t19.5 66q3 -5 36 51q41 69 64 92q69 69 144 99t175 30q84 0 181.5 -27t89.5 -46q-1 -3 -1 -5q0 -15 31 -36l40 -26q69 -69 95 -136t26 -168zM855 294q0 96 -33 166q-24 54 -78 109 q-112 114 -273 114q-141 0 -262 -124q-111 -114 -111 -275q0 -80 22.5 -133t79.5 -111q111 -114 272 -114q69 0 219 48q12 8 25 16q46 25 55 34q24 25 44 88q17 57 19 57q1 0 2 -1l1 -1q6 0 12 48q6 45 6 79z" />
<glyph unicode="&#xaa;" horiz-adv-x="591" d="M564 164q1 0 25 7q9 0 27 -1q22 0 22 -15q0 -3 -3 -21q-4 -30 -18 -50.5t-41 -48.5q-13 -13 -42 -31q-3 -1 -32 -11q-22 -8 -31 -8q-4 0 -25 13q-25 16 -46 36q-10 9 -20 9q-13 0 -37.5 -18.5t-35.5 -20.5q-47 -9 -69 -9q-36 0 -54.5 17t-43.5 16q-13 -1 -45 25 q-9 7 -18.5 23.5t-14.5 21.5q-24 27 -22 62q1 9 -2.5 28t-3.5 27q0 -4 5 57q2 26 22 49q19 20 39 40q19 14 52 40q6 6 19 17q5 3 29 22q8 8 17 17.5t20 10.5q1 0 41 16q14 7 45 15q23 2 56 -8q29 -8 53.5 -22t25.5 -42q0 -8 5 -26.5t3.5 -29t3 -27.5t3.5 -26q-3 -22 9 -59 q12 -40 12 -59t13.5 -37.5t29.5 -18.5t27 20zM362 173q1 6 -4.5 19.5t-6.5 17.5q-3 21 1 43q1 9 -4.5 19.5t-6.5 15.5q-1 14 -2.5 28t-7.5 24.5t-11 20t-16 12.5q-20 6 -48 -10q-6 -7 -29 -21q-10 -3 -15 -10l-10 -14q-19 -23 -22 -41q-1 -8 -15 -20.5t-15 -20.5 q-4 -44 51 -83q22 -15 42 -16q7 -1 20.5 -8t22.5 -5q71 11 76 49z" />
<glyph unicode="&#xab;" horiz-adv-x="610" d="M552 68l-26 -21q-69 48 -204 149q-35 28 -35 71q0 41 34.5 69t86.5 66l118 84l26 -21l-151 -200zM337 68l-25 -21q-69 48 -204 149q-36 28 -36 71q0 41 36 70q33 27 86 65l118 84l25 -21l-150 -200z" />
<glyph unicode="&#xad;" horiz-adv-x="443" d="M45 243q10 24 39 38q26 12 54 12q7 0 50 -6q8 -2 37 -12q25 -10 39 -10q16 0 35 13t27.5 15.5t23.5 2.5q14 0 28 -2q19 -10 19 -19q0 -1 -1 -3v-2q0 -3 3 -11.5t3 -13.5q0 -12 -13 -21q-16 -10 -53 -27q-40 -29 -58 -29q-67 0 -83 12q-45 35 -54 35q-4 0 -9 -3t-9 -3 t-9 1.5t-7 1.5q-4 0 -7.5 -5.5t-12.5 -5.5q-12 0 -33 9q-12 8 -12 21q0 6 3 12z" />
<glyph unicode="&#xae;" horiz-adv-x="942" d="M934 303q0 -103 -24 -172q-26 -76 -93 -143q-140 -139 -337 -139q-215 0 -337 122q-68 67 -97 142q-26 70 -26 172q0 50 13.5 124t19.5 66q3 -5 36 51q41 69 64 92q69 69 144 99t175 30q84 0 181.5 -27t89.5 -46q-1 -3 -1 -5q0 -15 31 -36l40 -26q69 -69 95 -136t26 -168 zM855 294q0 96 -33 166q-24 54 -78 109q-112 114 -273 114q-141 0 -262 -124q-111 -114 -111 -275q0 -162 101 -265q111 -114 272 -114q53 0 150 37l70 32q12 8 25 16q46 25 55 34q24 25 44 88q17 57 19 57q1 0 2 -1l1 -1q6 0 12 48q6 45 6 79zM703 46q-1 0 -20 6 q-10 7 -27 18q-1 5 -5 14q-7 3 -17 10q-4 8 -13 19q-8 6 -11 13t-10.5 12.5t-14.5 16.5q-17 6 -38 19q-7 8 -21 22q-6 7 -18 11q-20 7 -22 8t-20.5 4t-21.5 3q-14 -2 -33 11q-2 3 -14 12q-7 5 -8 22t14 26q13 6 27 12q31 3 70 15q10 8 25 23q24 27 16 63q-5 24 -23 31l-3 1 q0 2 2 2q-47 0 -61 -5l-24 -12q-8 -2 -33 -14q-21 -11 -28 -43q-3 -10 -6 -52q-1 -9 -2 -27q-3 -44 -3 -36q-2 -13 -3 -31q1 -14 3 -31q1 -8 2 -23t5 -38q8 -15 16 -18t9 -5q23 -28 21 -44q-2 -18 -18 -31q-11 -9 -47 -14q-41 -6 -62 5q-14 7 -17 35q-2 20 -2 19 q1 30 7.5 69.5t6.5 56.5q-2 42 2 127q-4 21 -4 59q2 13 2 21v18q1 16 -32 50q-13 14 -13 21q-1 4 -3.5 9.5t-2.5 16.5q0 5 14 21q25 22 64 17q6 0 21.5 -7t15.5 -8q9 -8 19 -19q1 -6 1 -22q-1 -12 6 -20q2 -2 7 -12q3 -6 9 -6q7 0 25.5 6.5t50.5 24.5q6 6 32 15q31 11 33 12 q8 4 25 17q9 7 25 8q34 2 63 -44q7 -12 11 -43q5 -46 -36 -106q-8 -11 -22 -26q-18 -15 -50 -46q15 -10 48 -28q19 -8 45 -19q20 -12 31 -29q4 -9 25 -32q11 -7 31 -23q32 -36 32 -62q0 -10 -2 -19t-23 -19.5t-28 -7.5z" />
<glyph unicode="&#xaf;" d="M433 608q-86 7 -163 0.5t-203 -0.5q-6 16 -23 37q-2 1 -2 4q0 12 25 44q86 -9 117 0q47 13 97 13q32 0 40 -10q17 -19 107 -15q10 -12 33 -27q3 -1 3 -3q0 -10 -31 -43z" />
<glyph unicode="&#x2c9;" d="M433 608q-86 7 -163 0.5t-203 -0.5q-6 16 -23 37q-2 1 -2 4q0 12 25 44q86 -9 117 0q47 13 97 13q32 0 40 -10q17 -19 107 -15q10 -12 33 -27q3 -1 3 -3q0 -10 -31 -43z" />
<glyph unicode="&#xb0;" horiz-adv-x="420" d="M377 551q0 -71 -47.5 -116t-120.5 -45q-71 0 -119 45t-48 116t48 116.5t119 45.5q72 0 120 -45t48 -117zM290 547q0 121 -81 121q-42 0 -63 -39q-16 -30 -16 -76q0 -119 81 -119q40 0 61 38q18 32 18 75z" />
<glyph unicode="&#xb1;" horiz-adv-x="703" d="M631 366q-8 -9 -28 -22q-7 -2 -26 3.5t-27 5.5q1 0 -57 -14.5t-83 -9.5q-2 0 -2 -8t5.5 -59.5t5.5 -79.5q0 -33 -7 -46q-12 -25 -41 -25t-52 35q-1 67 -2 151q-2 40 -7 40q-65 2 -85 2q-7 0 -19 3t-18 3q-16 1 -51 -11q-4 -1 -17 -10.5t-19 -8.5q-6 0 -16 9t-18 10 q-20 1 -20 37q0 42 14 63q2 4 8 4q1 0 14 -3q10 -2 14 1q8 3 22 11q5 5 30 -4q9 -3 17 -10q5 -5 14 -4q13 5 39 11q26 1 54 -5q8 -2 15.5 11.5t11.5 13.5q3 0 5 -2q-2 32 -2 58q5 14 10 23q-12 37 -23 68q-2 35 -1 38q15 23 61 23q31 0 38 -6q22 -17 24 -78q0 -1 -5.5 -12.5 t-5.5 -16.5q3 -11 6 -30q-5 -82 -3 -83q16 -5 24 -4q16 2 28 1q36 -3 54 8q23 13 47 17q12 2 21 2q28 0 57 -19q13 -9 13 -33q0 -30 -17 -48zM621 34q-20 -21 -34 -25q-3 -1 -21 -1q-13 0 -20 -8q-13 -15 -34 -25.5t-41 -19.5q-32 -18 -75 -18q-10 0 -17 1q-7 8 -27 17h-21 q-10 2 -16.5 10t-12 15.5t-14.5 7.5q6 0 -58 -1q-7 0 -19.5 -3.5t-20.5 -3.5q-2 0 -24 4q-15 2 -24 -1q-4 -2 -17 -11t-19 -9q-6 1 -16 10t-19 9q-16 2 -16 16q0 15 18 43q3 8 16 24q14 10 25 20q9 5 23 16q2 2 4 2q4 0 10.5 -8t10.5 -8q2 0 4 3q10 16 40 17q6 0 19 7 q10 6 18 4q12 1 37 -6q6 -3 33 -16q8 0 23 -4t36 -10t42 -6q26 0 46 11q14 5 41 18q11 11 38 24q52 9 86 -14q13 -9 13 -33q0 -30 -17 -48z" />
<glyph unicode="&#xb2;" horiz-adv-x="730" d="M493 200q-9 -10 -39 -26q-17 -7 -51 -23q-1 -8 13 -9.5t17 -4.5q18 -21 51 -21q11 0 23 8q6 3 23 1l50 3q10 1 22 12q10 4 30 15q15 11 30 23q20 13 34 13q12 0 21 -9q2 -7 2 -14q0 -25 -13.5 -50t-33.5 -36q-10 -5 -17 -15q-9 -13 -13 -17q-15 -8 -45 -26 q-10 -8 -20.5 -15.5t-25.5 -8.5q-14 1 -29 1q-12 -1 -22 -17q-23 16 -41 14q-43 -4 -53 -1q-8 3 -25 2t-25 2q-20 7 -63 16q-25 4 -29 4q-13 4 -26 12q-16 -10 -48 -27q-9 1 -28 -2q-8 -3 -25 -9q-8 -5 -25 -12q-12 2 -37 4q-27 -1 -51 13q-28 15 -23 40q1 4 -1 22 q-1 15 5 22q3 3 11 2q5 -2 11 -3q22 -1 31 12q14 20 42 29l50 16q9 5 28 12h29q8 4 24 11q11 1 32 11q16 15 43 30q36 20 43.5 25.5t24.5 9.5t24 10q11 17 34 39q19 9 29 33t18 47q11 15 24 46q1 7 -2.5 21.5t-3.5 20.5q0 7 5.5 15t5.5 18q0 -9 -7 37q-2 11 -11 26.5t-12 25 t-12 15.5q-14 10 -16 13q-12 12 -38 33q-20 12 -47.5 17t-53.5 9q-14 4 -48 9q-5 0 -12 -2q-10 -2 -13 -2q-10 2 -31 -2q-25 -11 -35 -18q-16 -11 -25 -29q-23 -45 -64 -42q-18 2 -22 3q-8 4 -8 19q-3 13 -2 40q7 24 17 39q10 9 29 29q10 14 31 30q13 11 38 30q15 5 44 21 q8 6 48 6q8 0 24.5 1.5t23.5 2t18 5t19 4.5q18 -1 43 -9q32 -10 43 -12q50 -8 84 -31l42 -24q8 -5 22 -33q7 -14 14 -47q0 -9 6 -19q9 -13 11 -18q12 -38 9 -85q-1 -13 10 -44q5 -12 3 -23q-2 -12 -4 -23l-2 -46q-2 -29 -10 -45q-37 -73 -77 -117q-9 0 -26 -5 q-6 -4 -10 -13.5t-8 -14.5z" />
<glyph unicode="&#xb3;" horiz-adv-x="701" d="M653 730q-13 -22 -34 -32q-11 -12 -37 -26q-22 -3 -44.5 -16.5t-42.5 -26.5q-36 -19 -76 -60q14 -12 51 -17t50 -13q15 -12 45 -34q6 -4 35 -15q22 -8 28 -20q10 -17 28 -53q2 -6 0 -19q-1 -12 5 -21q11 -14 14 -46q-3 -7 -5 -24l12 -27q7 -26 -5 -46q-23 -41 -26 -67 q-3 -22 -23 -37q-33 -25 -36 -29q-14 -16 -41 -34l-46 -28q-10 -7 -26 -10q-24 -4 -27 -5q-19 -4 -57 -14q-18 -9 -54 -23q-9 -1 -28 -4q-8 -3 -24 -8q-36 -2 -107 6q-10 1 -19 7q-13 8 -18 10q-16 2 -43 13q-10 14 -32 41q-9 11 -18.5 22t-12.5 24q-4 19 -4 37q0 45 27 53 q15 3 45 13q2 1 6 1q6 0 21.5 -8.5t23.5 -9.5q4 -17 27 -38q11 -11 44 -22q13 -6 47 -14q19 2 57 3q59 -5 71 -3q17 3 74 28q5 3 16 25q4 7 21 21q12 10 15 27v34q1 16 3 33q1 18 -5 33q-18 44 -40 67q-10 9 -57 34q-42 22 -55 22q-4 0 -11.5 -2t-11.5 -2q-10 0 -27.5 7 t-25.5 7q-12 -3 -38 -6q-22 2 -45 -12q-23 3 -68 12q-20 6 -20 24q0 17 16 31q21 15 60 49q29 11 77 40q23 12 48.5 25.5t39.5 29.5q11 8 31 26q-10 -6 -35 -7q-26 -2 -35 4q-3 3 -9 11q-4 5 -8 5q-5 0 -17.5 -3t-23.5 -2q-26 2 -66 12q-55 15 -71 -2q-10 -12 -20 -24.5 t-27 -11.5q-25 2 -34 7q-14 7 -21 28.5t-7 34.5q0 15 9 32q12 1 34 10q19 14 37 13q6 0 29 9q7 3 18 2q13 -2 18 -1q12 4 39 11q11 0 33 2q17 3 33 -5q11 -1 33 -4q29 -1 88 -5q22 -1 68 -6q11 -4 34 -8q-2 0 42 8q21 4 55 35q31 28 49 28q15 0 28 -11.5t13 -26.5 q0 -13 -34 -68z" />
<glyph unicode="&#xb4;" d="M393 737q0 -8 -5.5 -20.5t-4.5 -14.5q1 -8 -12 -19.5t-20 -8.5q-3 2 -6 2q-9 0 -30 -17q-28 -22 -38.5 -28t-62.5 -45q-39 -30 -53 -28q-11 7 -24 23q-2 13 26 45q20 23 41 46q1 1 19 39q10 22 21 18q5 -1 20 18.5t20 22.5q19 10 48 10q7 0 24 -8q14 -7 18 -4q2 1 4 1 q15 0 15 -32z" />
<glyph unicode="&#xb6;" horiz-adv-x="549" d="M525 652h-54v-757h-60v757h-81v-757h-60v412q-99 0 -160 45q-68 51 -68 147q0 88 58.5 141t147.5 53h277v-41z" />
<glyph unicode="&#xb7;" horiz-adv-x="338" d="M206 327q28 -8 33 -10q20 -9 23.5 -21.5t3.5 -22.5q0 -29 -25 -54q-6 -7 -50 -42q-16 -13 -44 -13q-29 0 -51 20q-6 13 -23 36q-16 13 -15 22q1 23 12 43q10 8 26 29q8 16 33 21q28 6 77 -8z" />
<glyph unicode="&#x2219;" horiz-adv-x="338" d="M206 327q28 -8 33 -10q20 -9 23.5 -21.5t3.5 -22.5q0 -29 -25 -54q-6 -7 -50 -42q-16 -13 -44 -13q-29 0 -51 20q-6 13 -23 36q-16 13 -15 22q1 23 12 43q10 8 26 29q8 16 33 21q28 6 77 -8z" />
<glyph unicode="&#xb8;" d="M355 -123q0 -78 -120 -90q-39 -4 -97 -4v38q94 0 112 15q10 8 10 24q0 32 -68 32v116h42v-55q121 0 121 -76z" />
<glyph unicode="&#xb9;" horiz-adv-x="617" d="M433 125q8 -1 59 4q10 1 23 -6t22 -6q45 1 58 -8q8 -13 8 -25q-3 -13 -4.5 -25t-2.5 -24q-2 -8 -14 -17q-5 -3 -16 -18q-7 -11 -20 -13t-41 0l-95 5q-22 2 -67 7q-23 1 -69 6q-7 8 -23 16q-6 -4 -20 -8q-7 1 -18.5 5t-18.5 4q-8 0 -31 -8.5t-35 -9.5q-20 -3 -50 -33 q-4 -3 -9 -3q-19 0 -39 25q-9 11 -9 39t7.5 40.5t15 25.5t21 16.5t32.5 2.5q35 -1 33 -1q54 0 107 8h25q14 1 14 14q-2 13 -6 49l-4 28q-2 15 1 27q2 10 -1 28t-1 28q-1 18 6 55q5 13 4 31l-4 32q0 10 7 25.5t8 24.5q1 43 -7 63t-2.5 54.5t-1.5 54.5q-15 38 -77 38 q-7 0 -30 1q-19 2 -30 0q-15 -2 -28 -10q-44 -29 -59 -29q-9 0 -16 4q-12 7 -23.5 31t-11.5 44q0 14 7 21q47 48 161 54q13 0 35.5 5.5t34.5 5.5q6 0 16 -3t15 -3q7 0 28 14q12 9 34 -1q37 -15 40 -17q20 -13 20 -36q0 -6 -4 -20.5t-3 -21.5q6 -13 13 -39q8 -74 3 -94 q-2 -8 1 -24q3 -15 0 -23q-4 -12 -2 -23q3 -18 3 -23q-3 -15 -8 -46q0 -16 -1 -46q4 -31 5 -93q5 -15 9 -47q-1 -6 -10 -24q-4 -7 -4 -13q0 -4 3.5 -12t4.5 -13q2 -7 -2 -23.5t-2 -23.5q4 -20 36 -23z" />
<glyph unicode="&#xba;" horiz-adv-x="504" d="M286 517q7 1 18.5 -5.5t16.5 -7.5q12 -1 23 -12q17 -15 20 -18q37 -23 44 -28q22 -16 35 -38q9 -11 22 -38q1 -18 7 -53q19 -62 19 -85q0 -12 -3 -21q0 -2 -8 -55q-5 -36 -17 -49q-24 -27 -72 -70q-22 -19 -94 -23q-10 -1 -25 -8.5t-23 -8.5q-30 -4 -47 -4q-66 0 -87 19 q-8 8 -46 32q-6 4 -34 35q-9 19 -28 52q-9 14 -6 41q-4 19 -5 58q7 15 19 46q4 10 4 29q0 6 -1 18v19q0 36 15 49q13 9 39 29q5 4 9 16.5t11 15.5l42 24q27 14 45 16q11 0 24.5 9t20.5 11q25 2 62 5zM136 299q-14 -37 -14 -59q0 -18 8 -32q11 -21 21 -41q15 -24 37 -25 q16 0 49.5 -9.5t51.5 -8.5q60 1 61 57q-4 14 -6 43q6 36 4 58q-3 35 -22 51q-11 12 -34 36q-27 22 -73 22q-28 0 -45 -10q-10 -6 -22 -11.5t-15 -14.5t-1 -29q3 -19 0 -27z" />
<glyph unicode="&#xbb;" horiz-adv-x="610" d="M538 267q0 -43 -36 -71q-59 -47 -204 -149l-25 21l150 197l-150 200l25 21q70 -48 204 -149q36 -29 36 -70zM324 267q0 -43 -36 -71q-59 -47 -204 -149l-25 21l150 197l-150 200l25 21q69 -48 204 -149q36 -29 36 -70z" />
<glyph unicode="&#xbf;" horiz-adv-x="548" d="M244 480q-8 8 -24 6q-19 -2 -25 1q-26 11 -21 41q2 19 31 42q13 14 43 39q46 27 71 27q12 0 21 -5q27 -13 33 -43q1 -6 3 -57q3 -55 -27 -96q-12 -17 -78 -73q-55 -46 -68 -85q-4 -13 -30 -38q-6 -7 -11 -54t-3 -54q2 -9 24 -45q16 -25 44 -27q11 -1 29 -12t27 -12 q15 -3 47.5 4.5t48.5 5.5q31 16 39 28q7 9 5 26q-2 18 -10 25q-6 3 -10 6t-1.5 11t-3.5 22q-9 22 5 45q20 35 31.5 32.5t25.5 6t22 7.5q15 -1 21 -14t11 -26q8 -16 21 -48q10 -30 6 -52q-2 -11 -13 -24t-14 -22q-17 -45 -32 -53q-9 -3 -24 -14q-4 -9 -16 -22 q-10 -8 -32 -14.5t-30.5 -12.5t-16.5 -5h-18q-14 -4 -43 -11q-11 -6 -34 -12q-8 -1 -21 2t-19 3h-32q-20 1 -31 6q-17 13 -53 37q-16 9 -46 54q-7 11 -7 28v30q0 7 -6.5 17.5t-6.5 14.5q0 5 4.5 13t5.5 11q-1 11 5 33q10 16 7 32q-2 13 11.5 29t13.5 28q0 19 29 53 q25 30 32 67q2 12 20 27l28 22q7 7 24 19q9 4 12 13t6 17zM342 734q0 -9 -3 -26l-19.5 -18.5t-44.5 -26.5q-36 -11 -59 -11q-36 0 -39 27q-4 33 13.5 62t49.5 42q39 15 66 3q15 -7 27 -22q4 -6 6 -14q1 -12 3 -16z" />
<glyph unicode="&#xc0;" horiz-adv-x="758" d="M613 332q7 -29 -3 -49q-16 -34 -15 -47q0 -9 22 -42q5 -19 23 -54q13 -15 17 -45t11 -43t26 -37q21 -16 13 -47q-2 -8 9 -25l16 -22q12 -22 18 -44q65 2 106 52q17 21 35 21q26 0 29 -40q2 -29 -17 -54q-9 -12 -42 -40q-5 -8 -18 -21q-9 -1 -26 -8t-35 -31t-52 -28 q-10 -2 -26 8.5t-23 11.5q-18 4 -30 33q-17 40 -19 43q-11 12 -29 40q-7 20 -27 56q-11 15 -22 45.5t-19 42.5t-10.5 30.5t-6 26t-8.5 23.5q1 12 -4 35q-21 39 -35 96q-7 25 -50 25q-68 0 -60 -2l-35 9q-25 6 -40 6q-64 0 -79 -119q18 -16 45 -6q10 4 56 4q15 0 27 -14.5 t12 -30.5q0 -11 -14 -34q-31 -48 -87 -60q-19 -1 -55 -2q-7 -3 -20 -8h-35q-42 -2 -50 -1q-34 2 -44 18q-11 20 2 45q6 21 20 62q7 16 30 41q28 30 34.5 37t16.5 21q2 5 0 13q-3 12 -3 13q-1 22 -6 29t-25 13q-49 14 -50 14q-32 14 -27 36q5 26 27 45.5t48 21t51.5 3.5 t43.5 21q10 10 28 44q2 9 8 25q9 9 23 27q5 18 20 53q11 17 29 52q10 26 10 43t-12 41q-27 57 -95 57q-30 0 -56 -16q-7 -4 -26 -25q-15 -15 -26 -15q-15 0 -24 12t-9 27q0 20 11 36q12 22 35 65q8 15 10 17q6 9 15 11q23 7 43 14q38 14 44 14q15 3 45 7q42 -1 82 -32 q15 -12 24 -26q4 -7 14 -13t13 -11q12 -18 34 -52q3 -5 1 -12t1.5 -13.5t3.5 -22.5q0 -9 3.5 -15.5t8.5 -63.5q5 -13 15 -41q7 -24 23 -74q21 -60 19 -83q-7 -59 29 -74q13 -7 38 -16q13 -3 18 -10zM387 467q-5 14 -9 29q-6 19 -15 19q-6 0 -16 -12t-22 -39q-2 -48 -3 -44 q4 -24 19 -32q10 -5 38 -5q26 -1 26 23q0 5 -18 61zM430 935l-21 -18q-81 48 -122 70q-82 44 -103 69q-5 7 -9 19.5t-1 16.5q4 11 19 30q26 18 34 18q5 0 8 -4.5t22.5 -5.5t25.5 -4q3 -2 18 -25q12 -20 22.5 -17t21.5 -19q18 -39 22 -43q27 -39 63 -87z" />
<glyph unicode="&#xc1;" horiz-adv-x="758" d="M613 332q7 -29 -3 -49q-16 -34 -15 -47q0 -9 22 -42q5 -19 23 -54q13 -15 17 -45t11 -43t26 -37q21 -16 13 -47q-2 -8 9 -25l16 -22q12 -22 18 -44q65 2 106 52q17 21 35 21q26 0 29 -40q2 -29 -17 -54q-9 -12 -42 -40q-5 -8 -18 -21q-9 -1 -26 -8t-35 -31t-52 -28 q-10 -2 -26 8.5t-23 11.5q-18 4 -30 33q-17 40 -19 43q-11 12 -29 40q-7 20 -27 56q-11 15 -22 45.5t-19 42.5t-10.5 30.5t-6 26t-8.5 23.5q1 12 -4 35q-21 39 -35 96q-7 25 -50 25q-68 0 -60 -2l-35 9q-25 6 -40 6q-64 0 -79 -119q18 -16 45 -6q10 4 56 4q15 0 27 -14.5 t12 -30.5q0 -11 -14 -34q-31 -48 -87 -60q-19 -1 -55 -2q-7 -3 -20 -8h-35q-42 -2 -50 -1q-34 2 -44 18q-11 20 2 45q6 21 20 62q7 16 30 41q28 30 34.5 37t16.5 21q2 5 0 13q-3 12 -3 13q-1 22 -6 29t-25 13q-49 14 -50 14q-32 14 -27 36q5 26 27 45.5t48 21t51.5 3.5 t43.5 21q10 10 28 44q2 9 8 25q9 9 23 27q5 18 20 53q11 17 29 52q10 26 10 43t-12 41q-27 57 -95 57q-30 0 -56 -16q-7 -4 -26 -25q-15 -15 -26 -15q-15 0 -24 12t-9 27q0 20 11 36q12 22 35 65q8 15 10 17q6 9 15 11q23 7 43 14q38 14 44 14q15 3 45 7q42 -1 82 -32 q15 -12 24 -26q4 -7 14 -13t13 -11q12 -18 34 -52q3 -5 1 -12t1.5 -13.5t3.5 -22.5q0 -9 3.5 -15.5t8.5 -63.5q5 -13 15 -41q7 -24 23 -74q21 -60 19 -83q-7 -59 29 -74q13 -7 38 -16q13 -3 18 -10zM387 467q-5 14 -9 29q-6 19 -15 19q-6 0 -16 -12t-22 -39q-2 -48 -3 -44 q4 -24 19 -32q10 -5 38 -5q26 -1 26 23q0 5 -18 61zM511 1103q0 -8 -5.5 -20.5t-4.5 -14.5q1 -8 -12 -19.5t-20 -8.5q-3 2 -6 2q-9 0 -30 -17q-28 -22 -38.5 -28t-62.5 -45q-39 -30 -53 -28q-11 7 -24 23q-2 13 26 45q20 23 41 46q1 1 19 39q10 22 21 18q5 -1 20 18.5 t20 22.5q19 10 48 10q7 0 24 -8q14 -7 18 -4q2 1 4 1q15 0 15 -32z" />
<glyph unicode="&#xc2;" horiz-adv-x="758" d="M613 332q7 -29 -3 -49q-16 -34 -15 -47q0 -9 22 -42q5 -19 23 -54q13 -15 17 -45t11 -43t26 -37q21 -16 13 -47q-2 -8 9 -25l16 -22q12 -22 18 -44q65 2 106 52q17 21 35 21q26 0 29 -40q2 -29 -17 -54q-9 -12 -42 -40q-5 -8 -18 -21q-9 -1 -26 -8t-35 -31t-52 -28 q-10 -2 -26 8.5t-23 11.5q-18 4 -30 33q-17 40 -19 43q-11 12 -29 40q-7 20 -27 56q-11 15 -22 45.5t-19 42.5t-10.5 30.5t-6 26t-8.5 23.5q1 12 -4 35q-21 39 -35 96q-7 25 -50 25q-68 0 -60 -2l-35 9q-25 6 -40 6q-64 0 -79 -119q18 -16 45 -6q10 4 56 4q15 0 27 -14.5 t12 -30.5q0 -11 -14 -34q-31 -48 -87 -60q-19 -1 -55 -2q-7 -3 -20 -8h-35q-42 -2 -50 -1q-34 2 -44 18q-11 20 2 45q6 21 20 62q7 16 30 41q28 30 34.5 37t16.5 21q2 5 0 13q-3 12 -3 13q-1 22 -6 29t-25 13q-49 14 -50 14q-32 14 -27 36q5 26 27 45.5t48 21t51.5 3.5 t43.5 21q10 10 28 44q2 9 8 25q9 9 23 27q5 18 20 53q11 17 29 52q10 26 10 43t-12 41q-27 57 -95 57q-30 0 -56 -16q-7 -4 -26 -25q-15 -15 -26 -15q-15 0 -24 12t-9 27q0 20 11 36q12 22 35 65q8 15 10 17q6 9 15 11q23 7 43 14q38 14 44 14q15 3 45 7q42 -1 82 -32 q15 -12 24 -26q4 -7 14 -13t13 -11q12 -18 34 -52q3 -5 1 -12t1.5 -13.5t3.5 -22.5q0 -9 3.5 -15.5t8.5 -63.5q5 -13 15 -41q7 -24 23 -74q21 -60 19 -83q-7 -59 29 -74q13 -7 38 -16q13 -3 18 -10zM387 467q-5 14 -9 29q-6 19 -15 19q-6 0 -16 -12t-22 -39q-2 -48 -3 -44 q4 -24 19 -32q10 -5 38 -5q26 -1 26 23q0 5 -18 61zM554 921q-8 -16 -19 -16q-4 0 -8 1q-99 67 -95.5 76.5t-45.5 52.5q-17 2 -28 2q-6 0 -22.5 -22t-25.5 -25q-24 -8 -93 -84q-7 -12 -17 -12q-6 0 -12 5l-2 22q41 67 42 67q19 30 33 38q8 5 21 29q16 30 23 39q18 24 23 24 q1 0 4.5 -2t6.5 -2q10 0 29 17q3 2 7 2q6 0 38 -16q3 -2 6.5 -11.5t15.5 -13.5q8 -3 18 -16q8 -9 16 -19q6 -6 5.5 -15.5t2.5 -13.5q9 -7 23 -21q23 -36 54 -86z" />
<glyph unicode="&#xc3;" horiz-adv-x="731" d="M613 332q7 -29 -3 -49q-16 -34 -15 -47q0 -9 22 -42q5 -19 23 -54q13 -15 17 -45t11 -43t26 -37q21 -16 13 -47q-2 -8 9 -25l16 -22q12 -22 18 -44q65 2 106 52q17 21 35 21q26 0 29 -40q2 -29 -17 -54q-9 -12 -42 -40q-5 -8 -18 -21q-9 -1 -26 -8t-35 -31t-52 -28 q-10 -2 -26 8.5t-23 11.5q-18 4 -30 33q-17 40 -19 43q-11 12 -29 40q-7 20 -27 56q-11 15 -22 45.5t-19 42.5t-10.5 30.5t-6 26t-8.5 23.5q1 12 -4 35q-21 39 -35 96q-7 25 -50 25q-68 0 -60 -2l-35 9q-25 6 -40 6q-64 0 -79 -119q18 -16 45 -6q10 4 56 4q15 0 27 -14.5 t12 -30.5q0 -11 -14 -34q-31 -48 -87 -60q-19 -1 -55 -2q-7 -3 -20 -8h-35q-42 -2 -50 -1q-34 2 -44 18q-11 20 2 45q6 21 20 62q7 16 30 41q28 30 34.5 37t16.5 21q2 5 0 13q-3 12 -3 13q-1 22 -6 29t-25 13q-49 14 -50 14q-32 14 -27 36q5 26 27 45.5t48 21t51.5 3.5 t43.5 21q10 10 28 44q2 9 8 25q9 9 23 27q5 18 20 53q11 17 29 52q10 26 10 43t-12 41q-27 57 -95 57q-30 0 -56 -16q-7 -4 -26 -25q-15 -15 -26 -15q-15 0 -24 12t-9 27q0 20 11 36q12 22 35 65q8 15 10 17q6 9 15 11q23 7 43 14q38 14 44 14q15 3 45 7q42 -1 82 -32 q15 -12 24 -26q4 -7 14 -13t13 -11q12 -18 34 -52q3 -5 1 -12t1.5 -13.5t3.5 -22.5q0 -9 3.5 -15.5t8.5 -63.5q5 -13 15 -41q7 -24 23 -74q21 -60 19 -83q-7 -59 29 -74q13 -7 38 -16q13 -3 18 -10zM387 467q-5 14 -9 29q-6 19 -15 19q-6 0 -16 -12t-22 -39q-2 -48 -3 -44 q4 -24 19 -32q10 -5 38 -5q26 -1 26 23q0 5 -18 61zM564 1182q-15 -53 -51 -95q-47 -52 -97 -52q-55 0 -107 27t-74 27q-25 0 -45 -25q-9 -12 -27 -47l-35 15q31 90 93 129q25 16 51 16q51 0 104 -26.5t73 -26.5q34 0 52 19q13 13 26 51z" />
<glyph unicode="&#xc4;" horiz-adv-x="758" d="M613 332q7 -29 -3 -49q-16 -34 -15 -47q0 -9 22 -42q5 -19 23 -54q13 -15 17 -45t11 -43t26 -37q21 -16 13 -47q-2 -8 9 -25l16 -22q12 -22 18 -44q65 2 106 52q17 21 35 21q26 0 29 -40q2 -29 -17 -54q-9 -12 -42 -40q-5 -8 -18 -21q-9 -1 -26 -8t-35 -31t-52 -28 q-10 -2 -26 8.5t-23 11.5q-18 4 -30 33q-17 40 -19 43q-11 12 -29 40q-7 20 -27 56q-11 15 -22 45.5t-19 42.5t-10.5 30.5t-6 26t-8.5 23.5q1 12 -4 35q-21 39 -35 96q-7 25 -50 25q-68 0 -60 -2l-35 9q-25 6 -40 6q-64 0 -79 -119q18 -16 45 -6q10 4 56 4q15 0 27 -14.5 t12 -30.5q0 -11 -14 -34q-31 -48 -87 -60q-19 -1 -55 -2q-7 -3 -20 -8h-35q-42 -2 -50 -1q-34 2 -44 18q-11 20 2 45q6 21 20 62q7 16 30 41q28 30 34.5 37t16.5 21q2 5 0 13q-3 12 -3 13q-1 22 -6 29t-25 13q-49 14 -50 14q-32 14 -27 36q5 26 27 45.5t48 21t51.5 3.5 t43.5 21q10 10 28 44q2 9 8 25q9 9 23 27q5 18 20 53q11 17 29 52q10 26 10 43t-12 41q-27 57 -95 57q-30 0 -56 -16q-7 -4 -26 -25q-15 -15 -26 -15q-15 0 -24 12t-9 27q0 20 11 36q12 22 35 65q8 15 10 17q6 9 15 11q23 7 43 14q38 14 44 14q15 3 45 7q42 -1 82 -32 q15 -12 24 -26q4 -7 14 -13t13 -11q12 -18 34 -52q3 -5 1 -12t1.5 -13.5t3.5 -22.5q0 -9 3.5 -15.5t8.5 -63.5q5 -13 15 -41q7 -24 23 -74q21 -60 19 -83q-7 -59 29 -74q13 -7 38 -16q13 -3 18 -10zM387 467q-5 14 -9 29q-6 19 -15 19q-6 0 -16 -12t-22 -39q-2 -48 -3 -44 q4 -24 19 -32q10 -5 38 -5q26 -1 26 23q0 5 -18 61zM522 1093q0 -33 -23 -57.5t-55 -24.5t-55 24.5t-23 57.5t23 57.5t55 24.5t55 -25t23 -57zM280 1093q0 -33 -23 -57.5t-55 -24.5q-33 0 -55.5 24.5t-22.5 57.5t22.5 57.5t55.5 24.5q32 0 55 -25t23 -57z" />
<glyph unicode="&#xc5;" horiz-adv-x="768" d="M613 332q7 -29 -3 -49q-16 -34 -15 -47q0 -9 22 -42q5 -19 23 -54q13 -15 17 -45t11 -43t26 -37q21 -16 13 -47q-2 -8 9 -25l16 -22q12 -22 18 -44q65 2 106 52q17 21 35 21q26 0 29 -40q2 -29 -17 -54q-9 -12 -42 -40q-5 -8 -18 -21q-9 -1 -26 -8t-35 -31t-52 -28 q-10 -2 -26 8.5t-23 11.5q-18 4 -30 33q-17 40 -19 43q-11 12 -29 40q-7 20 -27 56q-11 15 -22 45.5t-19 42.5t-10.5 30.5t-6 26t-8.5 23.5q1 12 -4 35q-21 39 -35 96q-7 25 -50 25q-68 0 -60 -2l-35 9q-25 6 -40 6q-64 0 -79 -119q18 -16 45 -6q10 4 56 4q15 0 27 -14.5 t12 -30.5q0 -11 -14 -34q-31 -48 -87 -60q-19 -1 -55 -2q-7 -3 -20 -8h-35q-42 -2 -50 -1q-34 2 -44 18q-11 20 2 45q6 21 20 62q7 16 30 41q28 30 34.5 37t16.5 21q2 5 0 13q-3 12 -3 13q-1 22 -6 29t-25 13q-49 14 -50 14q-32 14 -27 36q5 26 27 45.5t48 21t51.5 3.5 t43.5 21q10 10 28 44q2 9 8 25q9 9 23 27q5 18 20 53q11 17 29 52q10 26 10 43t-12 41q-27 57 -95 57q-30 0 -56 -16q-7 -4 -26 -25q-15 -15 -26 -15q-15 0 -24 12t-9 27q0 20 11 36q12 22 35 65q8 15 10 17q6 9 15 11q23 7 43 14q38 14 44 14q15 3 45 7q42 -1 82 -32 q15 -12 24 -26q4 -7 14 -13t13 -11q12 -18 34 -52q3 -5 1 -12t1.5 -13.5t3.5 -22.5q0 -9 3.5 -15.5t8.5 -63.5q5 -13 15 -41q7 -24 23 -74q21 -60 19 -83q-7 -59 29 -74q13 -7 38 -16q13 -3 18 -10zM387 467q-5 14 -9 29q-6 19 -15 19q-6 0 -16 -12t-22 -39q-2 -48 -3 -44 q4 -24 19 -32q10 -5 38 -5q26 -1 26 23q0 5 -18 61z" />
<glyph unicode="&#xc6;" horiz-adv-x="768" d="M559 99q-9 9 -25 31q-23 41 -45 130q-4 19 -27 19q-12 0 -44 -8q-28 -7 -39 -5q-49 9 -64 9q-35 0 -52 -18q-36 -39 -45 -111q19 -18 48 -7q11 4 59 4q16 1 28.5 -15t12.5 -32q0 -12 -15 -36q-33 -51 -91 -63q-20 -1 -58 -2q-7 -3 -21 -8q-13 0 -37 -1q-44 -2 -53 -1 q-36 2 -46 20q-12 20 2 46q6 11 11.5 34t8.5 32q8 17 32 43q30 32 36.5 39.5t17.5 22.5q2 5 0 14q-3 12 -3 13q-1 23 -6 30.5t-27 13.5q-51 15 -52 15q-34 14 -29 38q6 28 29 48t50.5 21.5t54 4t46.5 22.5q10 11 29 47q2 9 9 26q8 9 24 29q5 18 21 55l20 34q13 22 13 36 q0 18 -23 40q-28 28 -32 37q-15 31 -46.5 52t-65.5 21q-20 0 -49.5 -14.5t-50.5 -14.5q-17 0 -32 6q-25 10 -25 39q0 21 12 37q8 12 29 20t28.5 21.5t9.5 15.5q7 10 16 12q25 7 45 15q40 14 47 14q16 4 48 7q44 -1 86 -33q15 -12 25 -28l52 -68q51 -68 72 -111q36 19 87 49 q9 7 38 17t39 20q21 21 72 13q23 -3 54 -1q18 5 56 12q15 1 38 -3q36 -6 38 -6q25 -3 48 -23q31 -27 41 -33q6 -3 50 -15q25 -7 34 -54q3 -15 3 -30q0 -45 -29 -52q-42 -10 -59 -10q-21 0 -37 9q-19 10 -38 21q-23 13 -34 27t-34 22q-9 0 -27 3q-7 6 -22 15q-22 6 -43 5 q-24 0 -62 -7q-35 -14 -86 -33q-35 -16 -97 -76q5 -10 20 -45q6 -35 24 -95q1 -4 8 -4q13 0 50 17q48 22 54 24q27 10 53 5q9 -2 41 2q10 1 26 -4l26 -8q9 -2 45 -3q29 -1 43 -8q26 -14 39 -12q8 1 51 17q20 8 79 48q49 34 74 34q28 0 28 -19q0 -21 -14 -38q-9 -10 -16 -19 t-6 -26q-28 -21 -82 -64q-29 -25 -42 -32q-22 -11 -51 -10q-12 0 -53 -17q-10 -4 -27 2q-13 -1 -38 -1q-8 2 -19 -1q-8 -3 -16.5 2t-27.5 7l-28 2q-7 1 -23.5 -5.5t-23.5 -6.5q-3 0 -7.5 2t-7.5 2q-13 0 -46.5 -22t-44.5 -22q6 -9 14.5 -39.5t13.5 -39.5q43 -80 110 -85 q8 -4 26 -9q9 2 27 3q8 -2 26 -4q21 4 61 5q23 -4 52 11t40 36q26 48 71 48q35 0 35 -26q0 -6 -2.5 -18t-2.5 -16q-3 -33 -22 -45q-7 -5 -14 -18.5t-13 -18.5q-18 -12 -54 -38q-18 -15 -50 -29q-40 -18 -51 -24q-21 -12 -59 2q-5 1 -11 1q-4 0 -16.5 -1t-22.5 -1 q-50 0 -120 36q-54 28 -75 60zM408 493q-4 15 -9 30q-7 20 -16 20q-7 0 -15 -11.5t-15 -20.5q-9 -12 -10 -22q-2 -50 -3 -46q4 -25 19 -33q11 -6 41 -6q27 -1 27 24q0 5 -19 65z" />
<glyph unicode="&#xc7;" horiz-adv-x="744" d="M713 208q6 -16 -1 -44q-4 -19 -26 -46q-7 -10 -14 -19t-19 -15q-8 -4 -18.5 -18.5t-19.5 -18.5q-25 -16 -52 -32t-55 -19q-14 -2 -61 -1q-39 1 -61 -5q-15 -5 -30 -5q-20 0 -48 8q-23 7 -47 14q-9 3 -27 0.5t-26 -0.5q-10 4 -27 17q-20 16 -26 19l-46 26q-24 17 -32 41 q-11 18 -26 56q-7 22 -19 66q-5 20 -9 56q-1 21 -11 59q-11 19 -11 44q0 13 5 41t5 43q0 37 5 58q1 9 6 28q6 8 16 24q0 10 6 29q5 8 16 24q16 25 17 26q11 15 24 20q19 6 43 33t39 34q14 12 45 32q21 7 61 21q14 11 48 29q11 5 21 9t24 1q30 -6 53 2q18 7 58 5 q63 -3 103 -35q16 -14 52 -39q2 -1 30 -9q17 -5 23 -18q21 -48 21 -73q0 -26 -17 -42q-7 -7 -25 -10q-24 -4 -28 -6q-7 -3 -15 -3q-21 0 -53 17q-11 6 -41 33q-24 22 -44 27q-8 1 -45 22q-30 16 -49 12q-16 1 -51 0q-11 -1 -26 -12.5t-24 -14.5q-19 -4 -57 -17 q-14 -7 -53 -44q-16 -11 -46 -38q-11 -11 -9 -24q1 -19 0 -24q-10 -36 -5 -58t5 -34q-3 -14 -3 -41q0 -16 7 -49q2 -6 0 -15q-2 -11 -1 -15q4 -8 11 -25l16 -56q13 -36 32 -48q13 -13 43 -32q19 -3 52 -17q13 -10 44 -26q8 -2 29 3q8 1 19 -2q16 -4 19 -4q8 -1 58 -1 q10 -2 29 -4q9 4 28 10q10 0 29 2q9 6 25 15q37 20 47 33q33 37 60 37q12 0 24 -8zM490 -155q0 -78 -120 -90q-39 -4 -97 -4v38q94 0 112 15q10 8 10 24q0 32 -68 32v116h42v-55q121 0 121 -76z" />
<glyph unicode="&#xc8;" horiz-adv-x="788" d="M813 518q-8 -10 -15.5 -19t-6.5 -26q-27 -21 -82 -64q-29 -25 -42 -32q-22 -11 -51 -10q-12 0 -53 -17q-10 -4 -27 2q-12 -1 -37 -1q-15 3 -47 15q-7 5 -25 5q-25 1 -27 1q-8 1 -21 -3t-18 -4t-9 2q-32 16 -63 16q-46 0 -54 4q-23 13 -26 13q-6 0 -14 -5q-25 -18 -25 -51 q0 -25 13 -58q4 -13 9 -27t13 -20.5t14 -19t12 -16.5q13 -5 37 -20q7 -8 25.5 -13t26.5 -12q11 -10 45 -14q9 1 27 1q8 -4 26 -9q9 2 27 3q9 -2 26 -4q21 4 61 5q23 -4 52 11t40 36q26 48 72 48q34 0 34 -26q0 -6 -2.5 -18t-2.5 -16q-3 -33 -22 -45q-7 -5 -14 -18.5 t-13 -18.5q-18 -12 -54 -38q-17 -15 -49 -29q-41 -18 -52 -24q-21 -12 -59 2q-10 3 -20 3q-14 0 -49 -13q-34 -12 -57 5q-18 13 -57 14l-31 1q-18 1 -29 10q-18 9 -53 31q-3 3 -28 15q-17 9 -21 19q-11 18 -33 56q-6 10 -7 27.5t-5 26.5q-11 20 -26 67q-3 30 -5 59 q-4 35 -18.5 57t-14.5 42q0 10 11.5 30t11.5 36q3 56 26 111q28 67 71 85q4 2 39 37q16 16 46 35q41 26 49 32t31 9.5t33 13.5q27 26 46 23q24 -3 54 -1q19 5 56 12q15 1 38 -3q36 -6 38 -6q25 -3 48 -23q31 -27 42 -33q5 -3 50 -15q24 -7 33 -54q4 -15 4 -30q0 -45 -30 -52 q-42 -10 -59 -10q-21 0 -37 9q-19 10 -37 21q-24 13 -33 26q-13 15 -36 23q-4 2 -13 2v0q-9 0 -14 1q-6 6 -22 15q-21 6 -43 5q-6 -1 -16.5 3.5t-15.5 4.5q-9 0 -23 -14q-16 -17 -23 -20q-19 -3 -55 -14q-60 -24 -83 -56q-12 -10 -30 -32q-6 -9 -8.5 -23.5t-5 -26.5 t-2.5 -21q0 -22 14 -22q8 0 20 8q27 17 53 17q11 0 41 -5q15 -2 45 -7q15 2 46 0q33 -6 48 -4q10 1 26 -4l26 -8q9 -2 45 -3q29 -1 43 -8q26 -14 39 -12q8 1 52 17q19 8 78 48q49 34 75 34q27 0 27 -19q0 -21 -14 -38zM505 873l-21 -18q-81 48 -122 70q-82 44 -103 69 q-5 7 -9 19.5t-1 16.5q4 11 19 30q26 18 34 18q5 0 8 -4.5t22.5 -5.5t25.5 -4q3 -2 18 -25q12 -20 22.5 -17t21.5 -19q18 -39 22 -43q27 -39 63 -87z" />
<glyph unicode="&#xc9;" horiz-adv-x="788" d="M813 518q-8 -10 -15.5 -19t-6.5 -26q-27 -21 -82 -64q-29 -25 -42 -32q-22 -11 -51 -10q-12 0 -53 -17q-10 -4 -27 2q-12 -1 -37 -1q-15 3 -47 15q-7 5 -25 5q-25 1 -27 1q-8 1 -21 -3t-18 -4t-9 2q-32 16 -63 16q-46 0 -54 4q-23 13 -26 13q-6 0 -14 -5q-25 -18 -25 -51 q0 -25 13 -58q4 -13 9 -27t13 -20.5t14 -19t12 -16.5q13 -5 37 -20q7 -8 25.5 -13t26.5 -12q11 -10 45 -14q9 1 27 1q8 -4 26 -9q9 2 27 3q9 -2 26 -4q21 4 61 5q23 -4 52 11t40 36q26 48 72 48q34 0 34 -26q0 -6 -2.5 -18t-2.5 -16q-3 -33 -22 -45q-7 -5 -14 -18.5 t-13 -18.5q-18 -12 -54 -38q-17 -15 -49 -29q-41 -18 -52 -24q-21 -12 -59 2q-10 3 -20 3q-14 0 -49 -13q-34 -12 -57 5q-18 13 -57 14l-31 1q-18 1 -29 10q-18 9 -53 31q-3 3 -28 15q-17 9 -21 19q-11 18 -33 56q-6 10 -7 27.5t-5 26.5q-11 20 -26 67q-3 30 -5 59 q-4 35 -18.5 57t-14.5 42q0 10 11.5 30t11.5 36q3 56 26 111q28 67 71 85q4 2 39 37q16 16 46 35q41 26 49 32t31 9.5t33 13.5q27 26 46 23q24 -3 54 -1q19 5 56 12q15 1 38 -3q36 -6 38 -6q25 -3 48 -23q31 -27 42 -33q5 -3 50 -15q24 -7 33 -54q4 -15 4 -30q0 -45 -30 -52 q-42 -10 -59 -10q-21 0 -37 9q-19 10 -37 21q-24 13 -33 26q-13 15 -36 23q-4 2 -13 2v0q-9 0 -14 1q-6 6 -22 15q-21 6 -43 5q-6 -1 -16.5 3.5t-15.5 4.5q-9 0 -23 -14q-16 -17 -23 -20q-19 -3 -55 -14q-60 -24 -83 -56q-12 -10 -30 -32q-6 -9 -8.5 -23.5t-5 -26.5 t-2.5 -21q0 -22 14 -22q8 0 20 8q27 17 53 17q11 0 41 -5q15 -2 45 -7q15 2 46 0q33 -6 48 -4q10 1 26 -4l26 -8q9 -2 45 -3q29 -1 43 -8q26 -14 39 -12q8 1 52 17q19 8 78 48q49 34 75 34q27 0 27 -19q0 -21 -14 -38zM539 1017q0 -8 -5.5 -20.5t-4.5 -14.5q1 -8 -12 -19.5 t-20 -8.5q-3 2 -6 2q-9 0 -30 -17q-28 -22 -38.5 -28t-62.5 -45q-39 -30 -53 -28q-11 7 -24 23q-2 13 26 45q20 23 41 46q1 1 19 39q10 22 21 18q5 -1 20 18.5t20 22.5q19 10 48 10q7 0 24 -8q14 -7 18 -4q2 1 4 1q15 0 15 -32z" />
<glyph unicode="&#xca;" horiz-adv-x="788" d="M813 518q-8 -10 -15.5 -19t-6.5 -26q-27 -21 -82 -64q-29 -25 -42 -32q-22 -11 -51 -10q-12 0 -53 -17q-10 -4 -27 2q-12 -1 -37 -1q-15 3 -47 15q-7 5 -25 5q-25 1 -27 1q-8 1 -21 -3t-18 -4t-9 2q-32 16 -63 16q-46 0 -54 4q-23 13 -26 13q-6 0 -14 -5q-25 -18 -25 -51 q0 -25 13 -58q4 -13 9 -27t13 -20.5t14 -19t12 -16.5q13 -5 37 -20q7 -8 25.5 -13t26.5 -12q11 -10 45 -14q9 1 27 1q8 -4 26 -9q9 2 27 3q9 -2 26 -4q21 4 61 5q23 -4 52 11t40 36q26 48 72 48q34 0 34 -26q0 -6 -2.5 -18t-2.5 -16q-3 -33 -22 -45q-7 -5 -14 -18.5 t-13 -18.5q-18 -12 -54 -38q-17 -15 -49 -29q-41 -18 -52 -24q-21 -12 -59 2q-10 3 -20 3q-14 0 -49 -13q-34 -12 -57 5q-18 13 -57 14l-31 1q-18 1 -29 10q-18 9 -53 31q-3 3 -28 15q-17 9 -21 19q-11 18 -33 56q-6 10 -7 27.5t-5 26.5q-11 20 -26 67q-3 30 -5 59 q-4 35 -18.5 57t-14.5 42q0 10 11.5 30t11.5 36q3 56 26 111q28 67 71 85q4 2 39 37q16 16 46 35q41 26 49 32t31 9.5t33 13.5q27 26 46 23q24 -3 54 -1q19 5 56 12q15 1 38 -3q36 -6 38 -6q25 -3 48 -23q31 -27 42 -33q5 -3 50 -15q24 -7 33 -54q4 -15 4 -30q0 -45 -30 -52 q-42 -10 -59 -10q-21 0 -37 9q-19 10 -37 21q-24 13 -33 26q-13 15 -36 23q-4 2 -13 2v0q-9 0 -14 1q-6 6 -22 15q-21 6 -43 5q-6 -1 -16.5 3.5t-15.5 4.5q-9 0 -23 -14q-16 -17 -23 -20q-19 -3 -55 -14q-60 -24 -83 -56q-12 -10 -30 -32q-6 -9 -8.5 -23.5t-5 -26.5 t-2.5 -21q0 -22 14 -22q8 0 20 8q27 17 53 17q11 0 41 -5q15 -2 45 -7q15 2 46 0q33 -6 48 -4q10 1 26 -4l26 -8q9 -2 45 -3q29 -1 43 -8q26 -14 39 -12q8 1 52 17q19 8 78 48q49 34 75 34q27 0 27 -19q0 -21 -14 -38zM554 921q-8 -16 -19 -16q-4 0 -8 1q-99 67 -95.5 76.5 t-45.5 52.5q-17 2 -28 2q-6 0 -22.5 -22t-25.5 -25q-24 -8 -93 -84q-7 -12 -17 -12q-6 0 -12 5l-2 22q41 67 42 67q19 30 33 38q8 5 21 29q16 30 23 39q18 24 23 24q1 0 4.5 -2t6.5 -2q10 0 29 17q3 2 7 2q6 0 38 -16q3 -2 6.5 -11.5t15.5 -13.5q8 -3 18 -16q8 -9 16 -19 q6 -6 5.5 -15.5t2.5 -13.5q9 -7 23 -21q23 -36 54 -86z" />
<glyph unicode="&#xcb;" horiz-adv-x="788" d="M813 518q-8 -10 -15.5 -19t-6.5 -26q-27 -21 -82 -64q-29 -25 -42 -32q-22 -11 -51 -10q-12 0 -53 -17q-10 -4 -27 2q-12 -1 -37 -1q-15 3 -47 15q-7 5 -25 5q-25 1 -27 1q-8 1 -21 -3t-18 -4t-9 2q-32 16 -63 16q-46 0 -54 4q-23 13 -26 13q-6 0 -14 -5q-25 -18 -25 -51 q0 -25 13 -58q4 -13 9 -27t13 -20.5t14 -19t12 -16.5q13 -5 37 -20q7 -8 25.5 -13t26.5 -12q11 -10 45 -14q9 1 27 1q8 -4 26 -9q9 2 27 3q9 -2 26 -4q21 4 61 5q23 -4 52 11t40 36q26 48 72 48q34 0 34 -26q0 -6 -2.5 -18t-2.5 -16q-3 -33 -22 -45q-7 -5 -14 -18.5 t-13 -18.5q-18 -12 -54 -38q-17 -15 -49 -29q-41 -18 -52 -24q-21 -12 -59 2q-10 3 -20 3q-14 0 -49 -13q-34 -12 -57 5q-18 13 -57 14l-31 1q-18 1 -29 10q-18 9 -53 31q-3 3 -28 15q-17 9 -21 19q-11 18 -33 56q-6 10 -7 27.5t-5 26.5q-11 20 -26 67q-3 30 -5 59 q-4 35 -18.5 57t-14.5 42q0 10 11.5 30t11.5 36q3 56 26 111q28 67 71 85q4 2 39 37q16 16 46 35q41 26 49 32t31 9.5t33 13.5q27 26 46 23q24 -3 54 -1q19 5 56 12q15 1 38 -3q36 -6 38 -6q25 -3 48 -23q31 -27 42 -33q5 -3 50 -15q24 -7 33 -54q4 -15 4 -30q0 -45 -30 -52 q-42 -10 -59 -10q-21 0 -37 9q-19 10 -37 21q-24 13 -33 26q-13 15 -36 23q-4 2 -13 2v0q-9 0 -14 1q-6 6 -22 15q-21 6 -43 5q-6 -1 -16.5 3.5t-15.5 4.5q-9 0 -23 -14q-16 -17 -23 -20q-19 -3 -55 -14q-60 -24 -83 -56q-12 -10 -30 -32q-6 -9 -8.5 -23.5t-5 -26.5 t-2.5 -21q0 -22 14 -22q8 0 20 8q27 17 53 17q11 0 41 -5q15 -2 45 -7q15 2 46 0q33 -6 48 -4q10 1 26 -4l26 -8q9 -2 45 -3q29 -1 43 -8q26 -14 39 -12q8 1 52 17q19 8 78 48q49 34 75 34q27 0 27 -19q0 -21 -14 -38zM588 944q0 -33 -23 -57.5t-55 -24.5t-55 24.5t-23 57.5 t23 57.5t55 24.5t55 -25t23 -57zM346 944q0 -33 -23 -57.5t-55 -24.5q-33 0 -55.5 24.5t-22.5 57.5t22.5 57.5t55.5 24.5q32 0 55 -25t23 -57z" />
<glyph unicode="&#xcc;" horiz-adv-x="381" d="M317 243q-5 -12 -5 -27v-27q-2 -14 -5 -44q2 -9 2 -27q-8 -30 -21 -45q-16 -15 -53 -56q-31 -35 -38 -41q-24 -20 -50 -19q-36 2 -36 43q0 13 4.5 24.5t15 21.5t20.5 19q2 2 28 46q1 9 2 27q4 9 8 29q-3 22 -2 66q2 8 -5 76q-8 76 -8 95q0 10 1 13q-7 16 -7 39 q0 14 10 75q5 36 17 107q2 8 -8.5 23t-10.5 22t1.5 17.5t1.5 13.5q0 12 -13 17q-63 -14 -102 5q-15 7 -15 23t15 38q13 19 27 29q52 39 104 31q45 -7 54 -6q55 5 70 -2q10 -5 23.5 -21t13.5 -27q0 -1 -17 -22t-22 -53q0 -4 -3 -56q3 -20 0 -55q-12 -25 -9 -50q4 -8 8 -27 q-1 12 -6 -102q-1 -12 6.5 -47t7.5 -44q1 -12 0 -51q-1 -43 -4 -51zM292 931l-21 -18q-81 48 -122 70q-82 44 -103 69q-5 7 -9 19.5t-1 16.5q4 11 19 30q26 18 34 18q5 0 8 -4.5t22.5 -5.5t25.5 -4q3 -2 18 -25q12 -20 22.5 -17t21.5 -19q18 -39 22 -43q27 -39 63 -87z" />
<glyph unicode="&#xcd;" horiz-adv-x="381" d="M317 243q-5 -12 -5 -27v-27q-2 -14 -5 -44q2 -9 2 -27q-8 -30 -21 -45q-16 -15 -53 -56q-31 -35 -38 -41q-24 -20 -50 -19q-36 2 -36 43q0 13 4.5 24.5t15 21.5t20.5 19q2 2 28 46q1 9 2 27q4 9 8 29q-3 22 -2 66q2 8 -5 76q-8 76 -8 95q0 10 1 13q-7 16 -7 39 q0 14 10 75q5 36 17 107q2 8 -8.5 23t-10.5 22t1.5 17.5t1.5 13.5q0 12 -13 17q-63 -14 -102 5q-15 7 -15 23t15 38q13 19 27 29q52 39 104 31q45 -7 54 -6q55 5 70 -2q10 -5 23.5 -21t13.5 -27q0 -1 -17 -22t-22 -53q0 -4 -3 -56q3 -20 0 -55q-12 -25 -9 -50q4 -8 8 -27 q-1 12 -6 -102q-1 -12 6.5 -47t7.5 -44q1 -12 0 -51q-1 -43 -4 -51zM338 1069q0 -8 -5.5 -20.5t-4.5 -14.5q1 -8 -12 -19.5t-20 -8.5q-3 2 -6 2q-9 0 -30 -17q-28 -22 -38.5 -28t-62.5 -45q-39 -30 -53 -28q-11 7 -24 23q-2 13 26 45q20 23 41 46q1 1 19 39q10 22 21 18 q5 -1 20 18.5t20 22.5q19 10 48 10q7 0 24 -8q14 -7 18 -4q2 1 4 1q15 0 15 -32z" />
<glyph unicode="&#xce;" horiz-adv-x="381" d="M317 243q-5 -12 -5 -27v-27q-2 -14 -5 -44q2 -9 2 -27q-8 -30 -21 -45q-16 -15 -53 -56q-31 -35 -38 -41q-24 -20 -50 -19q-36 2 -36 43q0 13 4.5 24.5t15 21.5t20.5 19q2 2 28 46q1 9 2 27q4 9 8 29q-3 22 -2 66q2 8 -5 76q-8 76 -8 95q0 10 1 13q-7 16 -7 39 q0 14 10 75q5 36 17 107q2 8 -8.5 23t-10.5 22t1.5 17.5t1.5 13.5q0 12 -13 17q-63 -14 -102 5q-15 7 -15 23t15 38q13 19 27 29q52 39 104 31q45 -7 54 -6q55 5 70 -2q10 -5 23.5 -21t13.5 -27q0 -1 -17 -22t-22 -53q0 -4 -3 -56q3 -20 0 -55q-12 -25 -9 -50q4 -8 8 -27 q-1 12 -6 -102q-1 -12 6.5 -47t7.5 -44q1 -12 0 -51q-1 -43 -4 -51zM382 903q-8 -16 -19 -16q-4 0 -8 1q-99 67 -95.5 76.5t-45.5 52.5q-17 2 -28 2q-6 0 -22.5 -22t-25.5 -25q-24 -8 -93 -84q-7 -12 -17 -12q-6 0 -12 5l-2 22q41 67 42 67q19 30 33 38q8 5 21 29 q16 30 23 39q18 24 23 24q1 0 4.5 -2t6.5 -2q10 0 29 17q3 2 7 2q6 0 38 -16q3 -2 6.5 -11.5t15.5 -13.5q8 -3 18 -16q8 -9 16 -19q6 -6 5.5 -15.5t2.5 -13.5q9 -7 23 -21q23 -36 54 -86z" />
<glyph unicode="&#xcf;" horiz-adv-x="381" d="M317 243q-5 -12 -5 -27v-27q-2 -14 -5 -44q2 -9 2 -27q-8 -30 -21 -45q-16 -15 -53 -56q-31 -35 -38 -41q-24 -20 -50 -19q-36 2 -36 43q0 13 4.5 24.5t15 21.5t20.5 19q2 2 28 46q1 9 2 27q4 9 8 29q-3 22 -2 66q2 8 -5 76q-8 76 -8 95q0 10 1 13q-7 16 -7 39 q0 14 10 75q5 36 17 107q2 8 -8.5 23t-10.5 22t1.5 17.5t1.5 13.5q0 12 -13 17q-63 -14 -102 5q-15 7 -15 23t15 38q13 19 27 29q52 39 104 31q45 -7 54 -6q55 5 70 -2q10 -5 23.5 -21t13.5 -27q0 -1 -17 -22t-22 -53q0 -4 -3 -56q3 -20 0 -55q-12 -25 -9 -50q4 -8 8 -27 q-1 12 -6 -102q-1 -12 6.5 -47t7.5 -44q1 -12 0 -51q-1 -43 -4 -51zM367 986q0 -33 -23 -57.5t-55 -24.5t-55 24.5t-23 57.5t23 57.5t55 24.5t55 -25t23 -57zM125 986q0 -33 -23 -57.5t-55 -24.5q-33 0 -55.5 24.5t-22.5 57.5t22.5 57.5t55.5 24.5q32 0 55 -25t23 -57z" />
<glyph unicode="&#xd1;" horiz-adv-x="962" d="M348 787q19 3 56 12q21 7 64 22q4 1 58 9q16 4 31 7q17 3 31 -2q11 -3 31 -1q28 2 32 2q17 0 72 -27q18 -9 36 -38q7 -11 22 -25q19 -16 24 -22q8 -11 28 -51q5 -8 -3 -28q-5 -10 0 -40q2 -11 -4 -62q3 -10 5 -32q-3 -11 -10 -32q-10 -37 -10 -60q0 -65 1 -32 q0 -14 -11 -28.5t-35 -51.5q-6 -19 -25 -53q-58 -68 -58 -99q0 -33 66 -33q12 0 47 4q75 6 107 52q15 22 41 22q40 0 37 -42q-1 -21 -29 -55q-6 -9 -21 -25q-11 -6 -32 -24q-30 -41 -90 -63q-27 -9 -72 -10h-35q-17 0 -29 -1t-33 2q-29 4 -34 4.5t-23 4.5t-27 4 q-10 0 -33.5 -7.5t-40.5 -6.5q-16 1 -37 10t-30 21t-9 30q0 15 8 24q9 14 30 39q5 8 18 20q10 0 29 5q15 8 52 42q11 16 38 47q10 10 11 23q2 17 5 23q8 6 21 18q4 8 15 22q18 20 21 23q14 16 15.5 25t14.5 60q1 3 10 25q5 12 3 26q-1 10 4 28q6 22 7 28q2 17 -10 35 q-20 29 -20 31q-5 8 -14 25q-1 10 -8 28q-10 13 -50 27q-23 7 -55 10q-9 4 -28 8q-13 -1 -38 -1q-13 2 -25 -3q-16 -7 -23 -7q-10 2 -30 3q-9 -4 -29 -8t-57 -15q-12 -5 -27 -19q-19 -18 -25 -22q-19 -13 -19 -37q0 -13 7 -36q8 -27 9 -34q-1 -20 -1 -59q0 -9 1.5 -32.5 t1.5 -35.5q0 -16 -16 -58q-3 -9 -1 -63q0 -7 8 -26q6 -15 4 -25q-14 -53 9 -65q8 -4 49 -3q14 0 20 -10t11.5 -20.5t5.5 -19.5q0 -14 -14.5 -27t-29.5 -24q-8 -11 -30 -29q-16 -6 -46 -20q-37 -22 -60 -22q-19 0 -30 16q-22 35 -31 79q-2 8 1 23.5t2 23.5l-3 48q0 11 -6 51 q-5 31 -4 51q-1 39 7 117q0 4 2 56q0 7 4 23t4 24q0 -1 -4 18q1 12 -1 38q-9 19 -20 61v36q0 20 -7 34q-4 11 -9 22t-13.5 17t-28.5 9.5t-28 9.5q-13 10 -13 24q0 11 9 27q7 13 14 25t17 16q20 7 22 8q7 11 31 24q17 7 49 14q16 0 44 -19q18 -13 27 -38q5 -18 10.5 -36 t18.5 -22q7 -2 47 17q47 21 59 24zM724 1016q-15 -53 -51 -95q-47 -52 -97 -52q-55 0 -107 27t-74 27q-25 0 -45 -25q-9 -12 -27 -47l-35 15q31 90 93 129q25 16 51 16q51 0 104 -26.5t73 -26.5q34 0 52 19q13 13 26 51z" />
<glyph unicode="&#xd2;" horiz-adv-x="901" d="M131 59q-39 61 -54 108q-5 10 -14 30q-1 12 -3 33t-6 62q-2 16 -13.5 51t-12.5 54q0 12 5 28q7 21 8 28q-3 11 -3 33q2 13 7 38q14 49 46 102q9 17 33 46q21 10 58 35q55 52 96 68q31 12 63 24q37 13 65 16q34 3 53 12q9 4 27 3q19 -2 28 0q46 13 115 -31q15 -9 45 -32 q7 -7 23.5 -8.5t23.5 -6.5t12.5 -21.5t11.5 -21.5q12 -12 36 -43q2 -9 10 -27q8 -7 21 -22q14 -22 12 -50q-1 -9 7 -58q2 -13 4 -30q4 -13 9 -40q0 -6 -2.5 -16t-3.5 -15q4 -10 6 -30q-1 -14 -17 -64q-11 -40 -43 -122q-48 -92 -129 -144q-9 -10 -29 -27q-16 -6 -46 -22 q-32 -23 -83 -18q-60 6 -84 -11q-11 -8 -22 -8q-13 0 -34.5 12t-31.5 13l-52 6q-29 4 -50 13q-15 11 -45 30q-15 8 -47 23zM540 680q-35 11 -107 25q-41 4 -124 -29q-26 -11 -53 -22q-29 -14 -43 -35q-13 -13 -37 -42q-6 -10 -10 -29q-6 -25 -8 -30t-2 -11q0 -7 5 -20.5 t4 -22.5q-3 -75 -3 -68q0 -7 4 -19t5 -20q0 -11 6.5 -32.5t6 -33t8.5 -23.5q11 -16 13 -21q13 -36 74 -84q8 -6 26.5 -10.5t26.5 -12.5q18 -17 50 -19q28 0 56 -1q62 -6 81 -6q31 0 52 7q11 3 23 12q16 12 23 16t17.5 17t17.5 17q30 20 41.5 31t16.5 30l6 32q8 34 13 58 q5 9 12 29q-6 8 -13 27q-1 11 5 28q7 21 8 28q4 26 -17 59q0 1 -23 58q-14 36 -39 43q-71 22 -122 74zM574 923l-21 -18q-81 48 -122 70q-82 44 -103 69q-5 7 -9 19.5t-1 16.5q4 11 19 30q26 18 34 18q5 0 8 -4.5t22.5 -5.5t25.5 -4q3 -2 18 -25q12 -20 22.5 -17t21.5 -19 q18 -39 22 -43q27 -39 63 -87z" />
<glyph unicode="&#xd3;" horiz-adv-x="901" d="M131 59q-39 61 -54 108q-5 10 -14 30q-1 12 -3 33t-6 62q-2 16 -13.5 51t-12.5 54q0 12 5 28q7 21 8 28q-3 11 -3 33q2 13 7 38q14 49 46 102q9 17 33 46q21 10 58 35q55 52 96 68q31 12 63 24q37 13 65 16q34 3 53 12q9 4 27 3q19 -2 28 0q46 13 115 -31q15 -9 45 -32 q7 -7 23.5 -8.5t23.5 -6.5t12.5 -21.5t11.5 -21.5q12 -12 36 -43q2 -9 10 -27q8 -7 21 -22q14 -22 12 -50q-1 -9 7 -58q2 -13 4 -30q4 -13 9 -40q0 -6 -2.5 -16t-3.5 -15q4 -10 6 -30q-1 -14 -17 -64q-11 -40 -43 -122q-48 -92 -129 -144q-9 -10 -29 -27q-16 -6 -46 -22 q-32 -23 -83 -18q-60 6 -84 -11q-11 -8 -22 -8q-13 0 -34.5 12t-31.5 13l-52 6q-29 4 -50 13q-15 11 -45 30q-15 8 -47 23zM540 680q-35 11 -107 25q-41 4 -124 -29q-26 -11 -53 -22q-29 -14 -43 -35q-13 -13 -37 -42q-6 -10 -10 -29q-6 -25 -8 -30t-2 -11q0 -7 5 -20.5 t4 -22.5q-3 -75 -3 -68q0 -7 4 -19t5 -20q0 -11 6.5 -32.5t6 -33t8.5 -23.5q11 -16 13 -21q13 -36 74 -84q8 -6 26.5 -10.5t26.5 -12.5q18 -17 50 -19q28 0 56 -1q62 -6 81 -6q31 0 52 7q11 3 23 12q16 12 23 16t17.5 17t17.5 17q30 20 41.5 31t16.5 30l6 32q8 34 13 58 q5 9 12 29q-6 8 -13 27q-1 11 5 28q7 21 8 28q4 26 -17 59q0 1 -23 58q-14 36 -39 43q-71 22 -122 74zM592 1034q0 -8 -5.5 -20.5t-4.5 -14.5q1 -8 -12 -19.5t-20 -8.5q-3 2 -6 2q-9 0 -30 -17q-28 -22 -38.5 -28t-62.5 -45q-39 -30 -53 -28q-11 7 -24 23q-2 13 26 45 q20 23 41 46q1 1 19 39q10 22 21 18q5 -1 20 18.5t20 22.5q19 10 48 10q7 0 24 -8q14 -7 18 -4q2 1 4 1q15 0 15 -32z" />
<glyph unicode="&#xd4;" horiz-adv-x="901" d="M131 59q-39 61 -54 108q-5 10 -14 30q-1 12 -3 33t-6 62q-2 16 -13.5 51t-12.5 54q0 12 5 28q7 21 8 28q-3 11 -3 33q2 13 7 38q14 49 46 102q9 17 33 46q21 10 58 35q55 52 96 68q31 12 63 24q37 13 65 16q34 3 53 12q9 4 27 3q19 -2 28 0q46 13 115 -31q15 -9 45 -32 q7 -7 23.5 -8.5t23.5 -6.5t12.5 -21.5t11.5 -21.5q12 -12 36 -43q2 -9 10 -27q8 -7 21 -22q14 -22 12 -50q-1 -9 7 -58q2 -13 4 -30q4 -13 9 -40q0 -6 -2.5 -16t-3.5 -15q4 -10 6 -30q-1 -14 -17 -64q-11 -40 -43 -122q-48 -92 -129 -144q-9 -10 -29 -27q-16 -6 -46 -22 q-32 -23 -83 -18q-60 6 -84 -11q-11 -8 -22 -8q-13 0 -34.5 12t-31.5 13l-52 6q-29 4 -50 13q-15 11 -45 30q-15 8 -47 23zM540 680q-35 11 -107 25q-41 4 -124 -29q-26 -11 -53 -22q-29 -14 -43 -35q-13 -13 -37 -42q-6 -10 -10 -29q-6 -25 -8 -30t-2 -11q0 -7 5 -20.5 t4 -22.5q-3 -75 -3 -68q0 -7 4 -19t5 -20q0 -11 6.5 -32.5t6 -33t8.5 -23.5q11 -16 13 -21q13 -36 74 -84q8 -6 26.5 -10.5t26.5 -12.5q18 -17 50 -19q28 0 56 -1q62 -6 81 -6q31 0 52 7q11 3 23 12q16 12 23 16t17.5 17t17.5 17q30 20 41.5 31t16.5 30l6 32q8 34 13 58 q5 9 12 29q-6 8 -13 27q-1 11 5 28q7 21 8 28q4 26 -17 59q0 1 -23 58q-14 36 -39 43q-71 22 -122 74zM648 909q-8 -16 -19 -16q-4 0 -8 1q-99 67 -95.5 76.5t-45.5 52.5q-17 2 -28 2q-6 0 -22.5 -22t-25.5 -25q-24 -8 -93 -84q-7 -12 -17 -12q-6 0 -12 5l-2 22q41 67 42 67 q19 30 33 38q8 5 21 29q16 30 23 39q18 24 23 24q1 0 4.5 -2t6.5 -2q10 0 29 17q3 2 7 2q6 0 38 -16q3 -2 6.5 -11.5t15.5 -13.5q8 -3 18 -16q8 -9 16 -19q6 -6 5.5 -15.5t2.5 -13.5q9 -7 23 -21q23 -36 54 -86z" />
<glyph unicode="&#xd5;" horiz-adv-x="820" d="M131 59q-39 61 -54 108q-5 10 -14 30q-1 12 -3 33t-6 62q-2 16 -13.5 51t-12.5 54q0 12 5 28q7 21 8 28q-3 11 -3 33q2 13 7 38q14 49 46 102q9 17 33 46q21 10 58 35q55 52 96 68q31 12 63 24q37 13 65 16q34 3 53 12q9 4 27 3q19 -2 28 0q46 13 115 -31q15 -9 45 -32 q7 -7 23.5 -8.5t23.5 -6.5t12.5 -21.5t11.5 -21.5q12 -12 36 -43q2 -9 10 -27q8 -7 21 -22q14 -22 12 -50q-1 -9 7 -58q2 -13 4 -30q4 -13 9 -40q0 -6 -2.5 -16t-3.5 -15q4 -10 6 -30q-1 -14 -17 -64q-11 -40 -43 -122q-48 -92 -129 -144q-9 -10 -29 -27q-16 -6 -46 -22 q-32 -23 -83 -18q-60 6 -84 -11q-11 -8 -22 -8q-13 0 -34.5 12t-31.5 13l-52 6q-29 4 -50 13q-15 11 -45 30q-15 8 -47 23zM540 680q-35 11 -107 25q-41 4 -124 -29q-26 -11 -53 -22q-29 -14 -43 -35q-13 -13 -37 -42q-6 -10 -10 -29q-6 -25 -8 -30t-2 -11q0 -7 5 -20.5 t4 -22.5q-3 -75 -3 -68q0 -7 4 -19t5 -20q0 -11 6.5 -32.5t6 -33t8.5 -23.5q11 -16 13 -21q13 -36 74 -84q8 -6 26.5 -10.5t26.5 -12.5q18 -17 50 -19q28 0 56 -1q62 -6 81 -6q31 0 52 7q11 3 23 12q16 12 23 16t17.5 17t17.5 17q30 20 41.5 31t16.5 30l6 32q8 34 13 58 q5 9 12 29q-6 8 -13 27q-1 11 5 28q7 21 8 28q4 26 -17 59q0 1 -23 58q-14 36 -39 43q-71 22 -122 74zM685 1111q-15 -53 -51 -95q-47 -52 -97 -52q-55 0 -107 27t-74 27q-25 0 -45 -25q-9 -12 -27 -47l-35 15q31 90 93 129q25 16 51 16q51 0 104 -26.5t73 -26.5q34 0 52 19 q13 13 26 51z" />
<glyph unicode="&#xd6;" horiz-adv-x="901" d="M131 59q-39 61 -54 108q-5 10 -14 30q-1 12 -3 33t-6 62q-2 16 -13.5 51t-12.5 54q0 12 5 28q7 21 8 28q-3 11 -3 33q2 13 7 38q14 49 46 102q9 17 33 46q21 10 58 35q55 52 96 68q31 12 63 24q37 13 65 16q34 3 53 12q9 4 27 3q19 -2 28 0q46 13 115 -31q15 -9 45 -32 q7 -7 23.5 -8.5t23.5 -6.5t12.5 -21.5t11.5 -21.5q12 -12 36 -43q2 -9 10 -27q8 -7 21 -22q14 -22 12 -50q-1 -9 7 -58q2 -13 4 -30q4 -13 9 -40q0 -6 -2.5 -16t-3.5 -15q4 -10 6 -30q-1 -14 -17 -64q-11 -40 -43 -122q-48 -92 -129 -144q-9 -10 -29 -27q-16 -6 -46 -22 q-32 -23 -83 -18q-60 6 -84 -11q-11 -8 -22 -8q-13 0 -34.5 12t-31.5 13l-52 6q-29 4 -50 13q-15 11 -45 30q-15 8 -47 23zM540 680q-35 11 -107 25q-41 4 -124 -29q-26 -11 -53 -22q-29 -14 -43 -35q-13 -13 -37 -42q-6 -10 -10 -29q-6 -25 -8 -30t-2 -11q0 -7 5 -20.5 t4 -22.5q-3 -75 -3 -68q0 -7 4 -19t5 -20q0 -11 6.5 -32.5t6 -33t8.5 -23.5q11 -16 13 -21q13 -36 74 -84q8 -6 26.5 -10.5t26.5 -12.5q18 -17 50 -19q28 0 56 -1q62 -6 81 -6q31 0 52 7q11 3 23 12q16 12 23 16t17.5 17t17.5 17q30 20 41.5 31t16.5 30l6 32q8 34 13 58 q5 9 12 29q-6 8 -13 27q-1 11 5 28q7 21 8 28q4 26 -17 59q0 1 -23 58q-14 36 -39 43q-71 22 -122 74zM684 968q0 -33 -23 -57.5t-55 -24.5t-55 24.5t-23 57.5t23 57.5t55 24.5t55 -25t23 -57zM442 968q0 -33 -23 -57.5t-55 -24.5q-33 0 -55.5 24.5t-22.5 57.5t22.5 57.5 t55.5 24.5q32 0 55 -25t23 -57z" />
<glyph unicode="&#xd8;" horiz-adv-x="820" d="M694 688q0 -4 -1 -10q-4 -37 -89 -122q24 -23 24 -59q0 -18 -8.5 -59t-8.5 -61v-8q-3 -15 -5 -46v-5q0 -9 -2.5 -24.5t-3 -24t-6.5 -23.5q-8 -19 -10 -24q-4 -19 -17 -52q-1 -1 -14 -13q-6 -6 -8.5 -17.5t-30.5 -44.5q-5 -14 -23 -39q-14 -11 -42 -35q-7 -10 -33 -26 q-29 -10 -56 -10q-5 0 -14.5 1.5t-14.5 1.5q-4 0 -12.5 -1.5t-12.5 -1.5q-11 0 -32 6t-33 6h-9q-12 -1 -20.5 1.5t-15 29.5t-11.5 31q-81 -112 -103 -112q-2 0 -3 1q-65 21 -65 43q0 46 109 117q-3 8 -25.5 16t-22.5 17q-1 13 -12.5 34t-11.5 37q0 7 2.5 19.5t2.5 18.5 q0 10 -5 24q-8 22 -8 23q-2 6 -8 21q-5 12 -5 20q0 4 1 9q13 64 13 60q0 4 -1 12v13q0 13 20 62q22 55 60 87q20 16 35 41q6 10 23.5 23.5t22.5 20.5q40 48 133 48q33 0 66 -2q46 -4 56 -14q5 -6 55 -39q5 -7 27 -20q8 -12 21 -30q67 102 95 102q37 0 37 -23zM483 521h-1 q-2 0 -19 23q-19 27 -59 41q-29 11 -58 11q-33 0 -47 -6t-43 -16q-20 -8 -36 -17q-6 -6 -19 -15q-8 -3 -20.5 -11.5t-27.5 -31.5q-2 -15 -10 -45q-2 -7 -2 -14t4 -20t4 -18q2 -10 2 -22v-15q-1 -10 -1 -15v-1q0 -7 2 -20t2 -19l1 -1q0 -4 -2 -10.5t-2 -9.5q0 -1 7 -26 q4 -15 20 -34q21 -24 26 -32q1 6 140 161.5t139 162.5zM525 396q0 3 -1 7q0 24 -5 62l-269 -325q18 -15 54 -23l54 -12q8 -3 17 -3q34 0 71 28t43 60q9 27 26 81q6 22 6 42v2q-3 8 -7 24v1q1 -8 6 24z" />
<glyph unicode="&#xd9;" horiz-adv-x="967" d="M705 51q-20 -4 -59 -15q-4 -1 -23 -11q-11 -6 -24.5 -5t-35.5 -6q-33 -11 -34 -11q-77 -19 -110 -18q-9 3 -28 7q-9 -2 -27 -4q-14 1 -48 24q-8 6 -25.5 6.5t-23.5 5.5q-11 7 -21 25q-14 24 -18 29q-19 23 -27 35q-15 22 -19 41q8 15 5 31q-9 55 -9 64q4 21 11 63 q1 7 2 65q1 39 11 61q11 10 24 43q3 21 32 56q24 29 30 52q3 12 18 26t18 24t3 17q0 22 -31 27h-52q-19 0 -62 -7q-11 -1 -31 -8q-10 -10 -31 -29q-30 -23 -50 -23q-22 0 -37 26q-4 7 -4 15q0 27 70 90q6 3 19 8q3 1 26 23q12 13 39 35q23 12 58 11q12 -1 39 6q24 6 39 3 q9 -5 29 -12q10 2 31 4q21 -1 67 -8q18 -5 46 1q36 7 45 7q21 0 38 -10q23 -14 23 -39q0 -26 -22 -49.5t-49 -39.5q-15 -13 -47 -37q-57 -36 -69 -88q-6 -28 -31 -45q-7 -5 -35 -62q-10 -12 -24 -46q-3 -15 -12 -59q-7 -37 -5 -56q3 -21 25 -56q0 -10 5 -29q6 -7 15 -23 q20 -24 45 -34q3 -1 55 -8q37 -5 65 -3q22 -3 61 1q38 16 63 16q15 0 26 6.5t24 13.5t27.5 14t22.5 21q10 18 10 47q0 13 -2 34q-3 27 -3 33q-4 9 -8 28q0 5 3.5 14.5t3.5 14.5q-3 9 -6 29q1 11 8 47q7 31 6 47q-6 53 -6 58q-5 20 -5 56q10 38 -8 52q-12 9 -40 2 q-24 -5 -35.5 17t-11.5 26q0 8 5.5 14.5t40.5 36.5q25 22 88 62q12 8 35 8q43 0 54 -24q3 -11 13 -33q5 -6 5 -13q1 -5 0 -14q-1 -11 -1 -15q0 -9 -1 -25t-1 -23q-1 -9 3 -25l5 -25q-1 -17 -2 -53l1 -52q-2 -34 -9 -103q2 -17 2 -52q1 -17 -1 -51q-2 -22 5 -53q9 -39 9 -52 q2 -24 3 -48q2 -29 11 -46q5 -11 39 -19q8 -2 17.5 -9.5t14.5 -9.5q16 -9 16 -30q0 -31 -23 -51q-32 -27 -86 -43q-13 -4 -24 -4q-32 0 -58 29q-7 13 -23 39q-7 8 -12 23t-8 21q-19 -10 -57 -27zM631 890l-21 -18q-81 48 -122 70q-82 44 -103 69q-5 7 -9 19.5t-1 16.5 q4 11 19 30q26 18 34 18q5 0 8 -4.5t22.5 -5.5t25.5 -4q3 -2 18 -25q12 -20 22.5 -17t21.5 -19q18 -39 22 -43q27 -39 63 -87z" />
<glyph unicode="&#xda;" horiz-adv-x="967" d="M705 51q-20 -4 -59 -15q-4 -1 -23 -11q-11 -6 -24.5 -5t-35.5 -6q-33 -11 -34 -11q-77 -19 -110 -18q-9 3 -28 7q-9 -2 -27 -4q-14 1 -48 24q-8 6 -25.5 6.5t-23.5 5.5q-11 7 -21 25q-14 24 -18 29q-19 23 -27 35q-15 22 -19 41q8 15 5 31q-9 55 -9 64q4 21 11 63 q1 7 2 65q1 39 11 61q11 10 24 43q3 21 32 56q24 29 30 52q3 12 18 26t18 24t3 17q0 22 -31 27h-52q-19 0 -62 -7q-11 -1 -31 -8q-10 -10 -31 -29q-30 -23 -50 -23q-22 0 -37 26q-4 7 -4 15q0 27 70 90q6 3 19 8q3 1 26 23q12 13 39 35q23 12 58 11q12 -1 39 6q24 6 39 3 q9 -5 29 -12q10 2 31 4q21 -1 67 -8q18 -5 46 1q36 7 45 7q21 0 38 -10q23 -14 23 -39q0 -26 -22 -49.5t-49 -39.5q-15 -13 -47 -37q-57 -36 -69 -88q-6 -28 -31 -45q-7 -5 -35 -62q-10 -12 -24 -46q-3 -15 -12 -59q-7 -37 -5 -56q3 -21 25 -56q0 -10 5 -29q6 -7 15 -23 q20 -24 45 -34q3 -1 55 -8q37 -5 65 -3q22 -3 61 1q38 16 63 16q15 0 26 6.5t24 13.5t27.5 14t22.5 21q10 18 10 47q0 13 -2 34q-3 27 -3 33q-4 9 -8 28q0 5 3.5 14.5t3.5 14.5q-3 9 -6 29q1 11 8 47q7 31 6 47q-6 53 -6 58q-5 20 -5 56q10 38 -8 52q-12 9 -40 2 q-24 -5 -35.5 17t-11.5 26q0 8 5.5 14.5t40.5 36.5q25 22 88 62q12 8 35 8q43 0 54 -24q3 -11 13 -33q5 -6 5 -13q1 -5 0 -14q-1 -11 -1 -15q0 -9 -1 -25t-1 -23q-1 -9 3 -25l5 -25q-1 -17 -2 -53l1 -52q-2 -34 -9 -103q2 -17 2 -52q1 -17 -1 -51q-2 -22 5 -53q9 -39 9 -52 q2 -24 3 -48q2 -29 11 -46q5 -11 39 -19q8 -2 17.5 -9.5t14.5 -9.5q16 -9 16 -30q0 -31 -23 -51q-32 -27 -86 -43q-13 -4 -24 -4q-32 0 -58 29q-7 13 -23 39q-7 8 -12 23t-8 21q-19 -10 -57 -27zM737 1029q0 -8 -5.5 -20.5t-4.5 -14.5q1 -8 -12 -19.5t-20 -8.5q-3 2 -6 2 q-9 0 -30 -17q-28 -22 -38.5 -28t-62.5 -45q-39 -30 -53 -28q-11 7 -24 23q-2 13 26 45q20 23 41 46q1 1 19 39q10 22 21 18q5 -1 20 18.5t20 22.5q19 10 48 10q7 0 24 -8q14 -7 18 -4q2 1 4 1q15 0 15 -32z" />
<glyph unicode="&#xdb;" horiz-adv-x="967" d="M705 51q-20 -4 -59 -15q-4 -1 -23 -11q-11 -6 -24.5 -5t-35.5 -6q-33 -11 -34 -11q-77 -19 -110 -18q-9 3 -28 7q-9 -2 -27 -4q-14 1 -48 24q-8 6 -25.5 6.5t-23.5 5.5q-11 7 -21 25q-14 24 -18 29q-19 23 -27 35q-15 22 -19 41q8 15 5 31q-9 55 -9 64q4 21 11 63 q1 7 2 65q1 39 11 61q11 10 24 43q3 21 32 56q24 29 30 52q3 12 18 26t18 24t3 17q0 22 -31 27h-52q-19 0 -62 -7q-11 -1 -31 -8q-10 -10 -31 -29q-30 -23 -50 -23q-22 0 -37 26q-4 7 -4 15q0 27 70 90q6 3 19 8q3 1 26 23q12 13 39 35q23 12 58 11q12 -1 39 6q24 6 39 3 q9 -5 29 -12q10 2 31 4q21 -1 67 -8q18 -5 46 1q36 7 45 7q21 0 38 -10q23 -14 23 -39q0 -26 -22 -49.5t-49 -39.5q-15 -13 -47 -37q-57 -36 -69 -88q-6 -28 -31 -45q-7 -5 -35 -62q-10 -12 -24 -46q-3 -15 -12 -59q-7 -37 -5 -56q3 -21 25 -56q0 -10 5 -29q6 -7 15 -23 q20 -24 45 -34q3 -1 55 -8q37 -5 65 -3q22 -3 61 1q38 16 63 16q15 0 26 6.5t24 13.5t27.5 14t22.5 21q10 18 10 47q0 13 -2 34q-3 27 -3 33q-4 9 -8 28q0 5 3.5 14.5t3.5 14.5q-3 9 -6 29q1 11 8 47q7 31 6 47q-6 53 -6 58q-5 20 -5 56q10 38 -8 52q-12 9 -40 2 q-24 -5 -35.5 17t-11.5 26q0 8 5.5 14.5t40.5 36.5q25 22 88 62q12 8 35 8q43 0 54 -24q3 -11 13 -33q5 -6 5 -13q1 -5 0 -14q-1 -11 -1 -15q0 -9 -1 -25t-1 -23q-1 -9 3 -25l5 -25q-1 -17 -2 -53l1 -52q-2 -34 -9 -103q2 -17 2 -52q1 -17 -1 -51q-2 -22 5 -53q9 -39 9 -52 q2 -24 3 -48q2 -29 11 -46q5 -11 39 -19q8 -2 17.5 -9.5t14.5 -9.5q16 -9 16 -30q0 -31 -23 -51q-32 -27 -86 -43q-13 -4 -24 -4q-32 0 -58 29q-7 13 -23 39q-7 8 -12 23t-8 21q-19 -10 -57 -27zM711 870q-8 -16 -19 -16q-4 0 -8 1q-99 67 -95.5 76.5t-45.5 52.5 q-17 2 -28 2q-6 0 -22.5 -22t-25.5 -25q-24 -8 -93 -84q-7 -12 -17 -12q-6 0 -12 5l-2 22q41 67 42 67q19 30 33 38q8 5 21 29q16 30 23 39q18 24 23 24q1 0 4.5 -2t6.5 -2q10 0 29 17q3 2 7 2q6 0 38 -16q3 -2 6.5 -11.5t15.5 -13.5q8 -3 18 -16q8 -9 16 -19 q6 -6 5.5 -15.5t2.5 -13.5q9 -7 23 -21q23 -36 54 -86z" />
<glyph unicode="&#xdc;" horiz-adv-x="967" d="M705 51q-20 -4 -59 -15q-4 -1 -23 -11q-11 -6 -24.5 -5t-35.5 -6q-33 -11 -34 -11q-77 -19 -110 -18q-9 3 -28 7q-9 -2 -27 -4q-14 1 -48 24q-8 6 -25.5 6.5t-23.5 5.5q-11 7 -21 25q-14 24 -18 29q-19 23 -27 35q-15 22 -19 41q8 15 5 31q-9 55 -9 64q4 21 11 63 q1 7 2 65q1 39 11 61q11 10 24 43q3 21 32 56q24 29 30 52q3 12 18 26t18 24t3 17q0 22 -31 27h-52q-19 0 -62 -7q-11 -1 -31 -8q-10 -10 -31 -29q-30 -23 -50 -23q-22 0 -37 26q-4 7 -4 15q0 27 70 90q6 3 19 8q3 1 26 23q12 13 39 35q23 12 58 11q12 -1 39 6q24 6 39 3 q9 -5 29 -12q10 2 31 4q21 -1 67 -8q18 -5 46 1q36 7 45 7q21 0 38 -10q23 -14 23 -39q0 -26 -22 -49.5t-49 -39.5q-15 -13 -47 -37q-57 -36 -69 -88q-6 -28 -31 -45q-7 -5 -35 -62q-10 -12 -24 -46q-3 -15 -12 -59q-7 -37 -5 -56q3 -21 25 -56q0 -10 5 -29q6 -7 15 -23 q20 -24 45 -34q3 -1 55 -8q37 -5 65 -3q22 -3 61 1q38 16 63 16q15 0 26 6.5t24 13.5t27.5 14t22.5 21q10 18 10 47q0 13 -2 34q-3 27 -3 33q-4 9 -8 28q0 5 3.5 14.5t3.5 14.5q-3 9 -6 29q1 11 8 47q7 31 6 47q-6 53 -6 58q-5 20 -5 56q10 38 -8 52q-12 9 -40 2 q-24 -5 -35.5 17t-11.5 26q0 8 5.5 14.5t40.5 36.5q25 22 88 62q12 8 35 8q43 0 54 -24q3 -11 13 -33q5 -6 5 -13q1 -5 0 -14q-1 -11 -1 -15q0 -9 -1 -25t-1 -23q-1 -9 3 -25l5 -25q-1 -17 -2 -53l1 -52q-2 -34 -9 -103q2 -17 2 -52q1 -17 -1 -51q-2 -22 5 -53q9 -39 9 -52 q2 -24 3 -48q2 -29 11 -46q5 -11 39 -19q8 -2 17.5 -9.5t14.5 -9.5q16 -9 16 -30q0 -31 -23 -51q-32 -27 -86 -43q-13 -4 -24 -4q-32 0 -58 29q-7 13 -23 39q-7 8 -12 23t-8 21q-19 -10 -57 -27zM735 962q0 -33 -23 -57.5t-55 -24.5t-55 24.5t-23 57.5t23 57.5t55 24.5 t55 -25t23 -57zM493 962q0 -33 -23 -57.5t-55 -24.5q-33 0 -55.5 24.5t-22.5 57.5t22.5 57.5t55.5 24.5q32 0 55 -25t23 -57z" />
<glyph unicode="&#xdd;" horiz-adv-x="865" d="M942 1098q0 -8 -5.5 -20.5t-4.5 -14.5q1 -8 -12 -19.5t-20 -8.5q-3 2 -6 2q-9 0 -30 -17q-28 -22 -38.5 -28t-62.5 -45q-39 -30 -53 -28q-11 7 -24 23q-2 13 26 45q20 23 41 46q1 1 19 39q10 22 21 18q5 -1 20 18.5t20 22.5q19 10 48 10q7 0 24 -8q14 -7 18 -4q2 1 4 1 q15 0 15 -32zM539 -305q0 -5 3.5 -14.5t3.5 -14.5q0 -8 -2 -27.5t-1 -30.5q-41 -29 -102 -29q-38 0 -62 25.5t-48 50.5q-32 27 -27 117q2 29 17 51q6 9 9.5 27.5t8.5 26.5q8 17 27 48q16 15 43 53q18 34 30 48q8 17 28 50q16 19 16 45q0 21 -23 82.5t-47 109.5 q-11 16 -29 51q-2 10 -7 30l-18 34q-11 12 -31 38q-6 17 -20 53q-7 18 -23 53q0 1 -15 17q-5 6 -8 18q-5 16 -7 19q-10 21 -21 65q-9 1 -30 7t-33 6q-21 -2 -54.5 -25t-52.5 -27q-44 -7 -55 5q-19 20 -5 47q17 33 53 61q18 13 69 44q9 4 24 15q10 -2 25 3q33 10 39 10 q69 -9 66 -9q18 0 44 -20q37 -30 40 -31q17 -9 31 -37q1 0 19 -25q11 -16 11 -27q-1 -20 12 -49l21 -48q10 -33 33 -98q4 -10 28 -50q17 -30 21 -52t18 -63q12 -16 28 -53q9 2 13 13l8 19q12 14 35 43q17 23 27 62l14 66q9 14 21 44q3 11 -3 57q-1 14 -2 27t-10 26 q-3 5 -9 28q-1 3 -23 34q-6 11 -12 21.5t-19.5 12t-31.5 10t-22 18.5q-3 7 0 29t8 28q25 32 57 35q8 1 36 6q23 5 37 5q26 0 42 -13q42 -33 48 -40q25 -25 29 -55q1 -8 7.5 -29.5t6.5 -32.5q0 -7 -4.5 -24t-4.5 -25q0 -5 3.5 -16t3.5 -19q0 -19 -14 -54q-14 -39 -16 -54 q-1 -5 -21 -55q-6 -19 -19 -56q-9 -14 -28 -42q-9 -21 -30 -62q-22 -32 -65 -98q-17 -28 -35 -48q-8 -9 -13 -30q-6 -26 -9 -32q-5 -14 -26 -42q-7 -6 -14 -22q-10 -24 -11 -25q-12 -14 -29 -48q-8 -20 -24 -61l-19 -19t-12 -24q-2 -19 10 -52q5 -13 9 -27q8 -19 15 -24 q4 -3 12 -2q12 2 14 1q14 -1 23 -6q6 -8 3 -16z" />
<glyph unicode="&#xdf;" horiz-adv-x="658" d="M277 506q137 37 144 109q1 11 1 17q0 15 -6.5 22t-30.5 19q-17 9 -45 14q-39 7 -47 9q-16 -1 -49 2q-36 8 -57 4q-26 -5 -32 -32q-3 -13 -1 -18q5 -11 5 -17q3 -18 -2.5 -68.5t-3.5 -68.5q0 -4 10 -75q8 -66 7 -74t1.5 -20.5t2.5 -18.5q0 -5 -2.5 -14.5t-2.5 -14.5 q0 -6 3.5 -18.5t2.5 -20.5q-3 -65 -7 -102q-7 -85 -17 -98q-6 -9 -33 -26.5t-34 -14.5q-10 4 -37 -1q-51 -10 -60 -10q-22 0 -29 11q-21 37 -21 42q0 14 31 38q21 16 43 32q19 18 22 23q8 12 7 30q4 28 2 79q-5 20 2 40q4 8 0 20q-5 17 -5 20q-2 19 7 30q-4 7 -4 24v25 q-1 7 1.5 21t2.5 19q1 7 -1.5 20.5t-3.5 18.5q1 27 -2 80q-5 12 -10 39q0 6 -2 12q-1 5 0 13q1 38 11 68q20 59 70 98q60 48 116 49q-5 0 25 -8q17 -2 50 -7q16 -2 32.5 -5t25.5 -11q12 2 32 0q24 -2 31 -2q33 0 55 -11q10 -5 18 -14q13 -17 14 -18q9 -7 16.5 -13.5 t9.5 -19.5q7 -53 7 -43q0 -11 -5 -21q-7 -16 -8 -49q-1 -28 -14 -46q-10 -13 -28 -43q-3 -8 -3 -13q0 -8 8.5 -14t16.5 -12q16 -11 45 -36q18 -9 45 -33l40 -50q24 -30 26 -58q4 -41 1 -52q-5 -16 -14 -50q-2 -17 -34 -41q-10 -8 -20 -25q-12 -21 -17 -27q-39 -44 -80 -75 q-14 -14 -47 -34q-8 -4 -25 -4t-25 -4q-16 -8 -46 -8q-44 0 -77 16q-39 20 -39 54q0 13 6 27q15 48 112 48q11 0 18 -1q17 -3 69 11q9 2 18 18l14 26q11 13 23.5 26.5t13.5 32.5q4 45 -21 63q-10 4 -26 17q-6 8 -22 20q-21 3 -62 13q-2 0 -26 18q-17 13 -31 12 q-22 -1 -25 -1q-62 7 -67 58q-1 11 15 30t28 23z" />
<glyph unicode="&#xe0;" horiz-adv-x="596" d="M564 164q1 0 25 7q9 0 27 -1q22 0 22 -15q0 -3 -3 -21q-4 -30 -18 -50.5t-41 -48.5q-13 -13 -42 -31q-3 -1 -32 -11q-22 -8 -31 -8q-4 0 -25 13q-25 16 -46 36q-10 9 -20 9q-13 0 -37.5 -18.5t-35.5 -20.5q-47 -9 -69 -9q-36 0 -54.5 17t-43.5 16q-13 -1 -45 25 q-9 7 -18.5 23.5t-14.5 21.5q-24 27 -22 62q1 9 -2.5 28t-3.5 27q0 -4 5 57q2 26 22 49q19 20 39 40q19 14 52 40q6 6 19 17q5 3 29 22q8 8 17 17.5t20 10.5q1 0 41 16q14 7 45 15q23 2 56 -8q29 -8 53.5 -22t25.5 -42q0 -8 5 -26.5t3.5 -29t3 -27.5t3.5 -26q-3 -22 9 -59 q12 -40 12 -59t13.5 -37.5t29.5 -18.5t27 20zM362 173q1 6 -4.5 19.5t-6.5 17.5q-3 21 1 43q1 9 -4.5 19.5t-6.5 15.5q-1 14 -2.5 28t-7.5 24.5t-11 20t-16 12.5q-20 6 -48 -10q-6 -7 -29 -21q-10 -3 -15 -10l-10 -14q-19 -23 -22 -41q-1 -8 -15 -20.5t-15 -20.5 q-4 -44 51 -83q22 -15 42 -16q7 -1 20.5 -8t22.5 -5q71 11 76 49zM401 556l-21 -18q-81 48 -122 70q-82 44 -103 69q-5 7 -9 19.5t-1 16.5q4 11 19 30q26 18 34 18q5 0 8 -4.5t22.5 -5.5t25.5 -4q3 -2 18 -25q12 -20 22.5 -17t21.5 -19q18 -39 22 -43q27 -39 63 -87z" />
<glyph unicode="&#xe1;" horiz-adv-x="596" d="M564 164q1 0 25 7q9 0 27 -1q22 0 22 -15q0 -3 -3 -21q-4 -30 -18 -50.5t-41 -48.5q-13 -13 -42 -31q-3 -1 -32 -11q-22 -8 -31 -8q-4 0 -25 13q-25 16 -46 36q-10 9 -20 9q-13 0 -37.5 -18.5t-35.5 -20.5q-47 -9 -69 -9q-36 0 -54.5 17t-43.5 16q-13 -1 -45 25 q-9 7 -18.5 23.5t-14.5 21.5q-24 27 -22 62q1 9 -2.5 28t-3.5 27q0 -4 5 57q2 26 22 49q19 20 39 40q19 14 52 40q6 6 19 17q5 3 29 22q8 8 17 17.5t20 10.5q1 0 41 16q14 7 45 15q23 2 56 -8q29 -8 53.5 -22t25.5 -42q0 -8 5 -26.5t3.5 -29t3 -27.5t3.5 -26q-3 -22 9 -59 q12 -40 12 -59t13.5 -37.5t29.5 -18.5t27 20zM362 173q1 6 -4.5 19.5t-6.5 17.5q-3 21 1 43q1 9 -4.5 19.5t-6.5 15.5q-1 14 -2.5 28t-7.5 24.5t-11 20t-16 12.5q-20 6 -48 -10q-6 -7 -29 -21q-10 -3 -15 -10l-10 -14q-19 -23 -22 -41q-1 -8 -15 -20.5t-15 -20.5 q-4 -44 51 -83q22 -15 42 -16q7 -1 20.5 -8t22.5 -5q71 11 76 49zM432 737q0 -8 -5.5 -20.5t-4.5 -14.5q1 -8 -12 -19.5t-20 -8.5q-3 2 -6 2q-9 0 -30 -17q-28 -22 -38.5 -28t-62.5 -45q-39 -30 -53 -28q-11 7 -24 23q-2 13 26 45q20 23 41 46q1 1 19 39q10 22 21 18 q5 -1 20 18.5t20 22.5q19 10 48 10q7 0 24 -8q14 -7 18 -4q2 1 4 1q15 0 15 -32z" />
<glyph unicode="&#xe2;" horiz-adv-x="596" d="M564 164q1 0 25 7q9 0 27 -1q22 0 22 -15q0 -3 -3 -21q-4 -30 -18 -50.5t-41 -48.5q-13 -13 -42 -31q-3 -1 -32 -11q-22 -8 -31 -8q-4 0 -25 13q-25 16 -46 36q-10 9 -20 9q-13 0 -37.5 -18.5t-35.5 -20.5q-47 -9 -69 -9q-36 0 -54.5 17t-43.5 16q-13 -1 -45 25 q-9 7 -18.5 23.5t-14.5 21.5q-24 27 -22 62q1 9 -2.5 28t-3.5 27q0 -4 5 57q2 26 22 49q19 20 39 40q19 14 52 40q6 6 19 17q5 3 29 22q8 8 17 17.5t20 10.5q1 0 41 16q14 7 45 15q23 2 56 -8q29 -8 53.5 -22t25.5 -42q0 -8 5 -26.5t3.5 -29t3 -27.5t3.5 -26q-3 -22 9 -59 q12 -40 12 -59t13.5 -37.5t29.5 -18.5t27 20zM362 173q1 6 -4.5 19.5t-6.5 17.5q-3 21 1 43q1 9 -4.5 19.5t-6.5 15.5q-1 14 -2.5 28t-7.5 24.5t-11 20t-16 12.5q-20 6 -48 -10q-6 -7 -29 -21q-10 -3 -15 -10l-10 -14q-19 -23 -22 -41q-1 -8 -15 -20.5t-15 -20.5 q-4 -44 51 -83q22 -15 42 -16q7 -1 20.5 -8t22.5 -5q71 11 76 49zM465 542q-8 -16 -19 -16q-4 0 -8 1q-99 67 -95.5 76.5t-45.5 52.5q-17 2 -28 2q-6 0 -22.5 -22t-25.5 -25q-24 -8 -93 -84q-7 -12 -17 -12q-6 0 -12 5l-2 22q41 67 42 67q19 30 33 38q8 5 21 29q16 30 23 39 q18 24 23 24q1 0 4.5 -2t6.5 -2q10 0 29 17q3 2 7 2q6 0 38 -16q3 -2 6.5 -11.5t15.5 -13.5q8 -3 18 -16q8 -9 16 -19q6 -6 5.5 -15.5t2.5 -13.5q9 -7 23 -21q23 -36 54 -86z" />
<glyph unicode="&#xe3;" horiz-adv-x="596" d="M564 164q1 0 25 7q9 0 27 -1q22 0 22 -15q0 -3 -3 -21q-4 -30 -18 -50.5t-41 -48.5q-13 -13 -42 -31q-3 -1 -32 -11q-22 -8 -31 -8q-4 0 -25 13q-25 16 -46 36q-10 9 -20 9q-13 0 -37.5 -18.5t-35.5 -20.5q-47 -9 -69 -9q-36 0 -54.5 17t-43.5 16q-13 -1 -45 25 q-9 7 -18.5 23.5t-14.5 21.5q-24 27 -22 62q1 9 -2.5 28t-3.5 27q0 -4 5 57q2 26 22 49q19 20 39 40q19 14 52 40q6 6 19 17q5 3 29 22q8 8 17 17.5t20 10.5q1 0 41 16q14 7 45 15q23 2 56 -8q29 -8 53.5 -22t25.5 -42q0 -8 5 -26.5t3.5 -29t3 -27.5t3.5 -26q-3 -22 9 -59 q12 -40 12 -59t13.5 -37.5t29.5 -18.5t27 20zM362 173q1 6 -4.5 19.5t-6.5 17.5q-3 21 1 43q1 9 -4.5 19.5t-6.5 15.5q-1 14 -2.5 28t-7.5 24.5t-11 20t-16 12.5q-20 6 -48 -10q-6 -7 -29 -21q-10 -3 -15 -10l-10 -14q-19 -23 -22 -41q-1 -8 -15 -20.5t-15 -20.5 q-4 -44 51 -83q22 -15 42 -16q7 -1 20.5 -8t22.5 -5q71 11 76 49zM507 722q-15 -53 -51 -95q-47 -52 -97 -52q-55 0 -107 27t-74 27q-25 0 -45 -25q-9 -12 -27 -47l-35 15q31 90 93 129q25 16 51 16q51 0 104 -26.5t73 -26.5q34 0 52 19q13 13 26 51z" />
<glyph unicode="&#xe4;" horiz-adv-x="596" d="M564 164q1 0 25 7q9 0 27 -1q22 0 22 -15q0 -3 -3 -21q-4 -30 -18 -50.5t-41 -48.5q-13 -13 -42 -31q-3 -1 -32 -11q-22 -8 -31 -8q-4 0 -25 13q-25 16 -46 36q-10 9 -20 9q-13 0 -37.5 -18.5t-35.5 -20.5q-47 -9 -69 -9q-36 0 -54.5 17t-43.5 16q-13 -1 -45 25 q-9 7 -18.5 23.5t-14.5 21.5q-24 27 -22 62q1 9 -2.5 28t-3.5 27q0 -4 5 57q2 26 22 49q19 20 39 40q19 14 52 40q6 6 19 17q5 3 29 22q8 8 17 17.5t20 10.5q1 0 41 16q14 7 45 15q23 2 56 -8q29 -8 53.5 -22t25.5 -42q0 -8 5 -26.5t3.5 -29t3 -27.5t3.5 -26q-3 -22 9 -59 q12 -40 12 -59t13.5 -37.5t29.5 -18.5t27 20zM362 173q1 6 -4.5 19.5t-6.5 17.5q-3 21 1 43q1 9 -4.5 19.5t-6.5 15.5q-1 14 -2.5 28t-7.5 24.5t-11 20t-16 12.5q-20 6 -48 -10q-6 -7 -29 -21q-10 -3 -15 -10l-10 -14q-19 -23 -22 -41q-1 -8 -15 -20.5t-15 -20.5 q-4 -44 51 -83q22 -15 42 -16q7 -1 20.5 -8t22.5 -5q71 11 76 49zM495 620q0 -33 -23 -57.5t-55 -24.5t-55 24.5t-23 57.5t23 57.5t55 24.5t55 -25t23 -57zM253 620q0 -33 -23 -57.5t-55 -24.5q-33 0 -55.5 24.5t-22.5 57.5t22.5 57.5t55.5 24.5q32 0 55 -25t23 -57z" />
<glyph unicode="&#xe5;" horiz-adv-x="596" d="M564 164q1 0 25 7q9 0 27 -1q22 0 22 -15q0 -3 -3 -21q-4 -30 -18 -50.5t-41 -48.5q-13 -13 -42 -31q-3 -1 -32 -11q-22 -8 -31 -8q-4 0 -25 13q-25 16 -46 36q-10 9 -20 9q-13 0 -37.5 -18.5t-35.5 -20.5q-47 -9 -69 -9q-36 0 -54.5 17t-43.5 16q-13 -1 -45 25 q-9 7 -18.5 23.5t-14.5 21.5q-24 27 -22 62q1 9 -2.5 28t-3.5 27q0 -4 5 57q2 26 22 49q19 20 39 40q19 14 52 40q6 6 19 17q5 3 29 22q8 8 17 17.5t20 10.5q1 0 41 16q14 7 45 15q23 2 56 -8q29 -8 53.5 -22t25.5 -42q0 -8 5 -26.5t3.5 -29t3 -27.5t3.5 -26q-3 -22 9 -59 q12 -40 12 -59t13.5 -37.5t29.5 -18.5t27 20zM362 173q1 6 -4.5 19.5t-6.5 17.5q-3 21 1 43q1 9 -4.5 19.5t-6.5 15.5q-1 14 -2.5 28t-7.5 24.5t-11 20t-16 12.5q-20 6 -48 -10q-6 -7 -29 -21q-10 -3 -15 -10l-10 -14q-19 -23 -22 -41q-1 -8 -15 -20.5t-15 -20.5 q-4 -44 51 -83q22 -15 42 -16q7 -1 20.5 -8t22.5 -5q71 11 76 49zM425 648q0 -54 -42 -85q-37 -28 -94 -28q-59 0 -95 27q-41 30 -41 86q0 54 42 85q38 28 94 28t94 -27q42 -31 42 -86zM353 648q0 79 -64 79t-64 -79t64 -79t64 79z" />
<glyph unicode="&#xe6;" horiz-adv-x="857" d="M277 -19q-32 0 -56 13q-17 11 -33 23t-44 36q-9 7 -19 23.5t-14 21.5q-24 27 -22 62q1 9 -2.5 28t-3.5 27q0 -4 5 57q3 39 59 97q8 9 38 36q7 6 21 17q9 1 25 9q3 2 12 16q6 10 17 11q34 5 65 17q15 11 47 24q22 2 49 -18q36 -27 48 -79q19 33 59 61q20 9 49 22 q14 4 38 13q13 7 42 10q37 6 55 -2q8 -3 25 -9q8 -6 27 -17q10 -4 20 -15q12 -14 18 -18.5t14 -26t8 -38.5q0 -7 -2 -11q-1 -13 -11 -22q-17 -16 -40 -21q-8 -2 -21 -13t-20.5 -13.5t-18 -14.5t-17.5 -15q-16 -6 -47 -26q-12 -14 -40 -35q-21 -9 -37 -32q-3 -5 -3 -10 q0 -15 27 -32q24 -15 41 -18q19 -2 46 15q22 14 43 28q12 6 22 6q18 0 28 -16t10 -37q0 -7 -1 -14q-4 -23 -35 -39q-39 -20 -46 -29q-12 -15 -42 -23q-18 -8 -56 -19q-11 -3 -30 -3q-61 0 -95 27q-7 5 -17.5 33.5t-17.5 33.5q-17 -3 -61 -48t-65.5 -49t-40.5 -4zM411 173 q1 6 -4.5 19.5t-6.5 17.5q-3 21 0 43q2 9 -3.5 19t-6.5 16q-1 14 -2.5 28t-7.5 24.5t-11 20t-16 12.5q-20 6 -49 -10q-9 -5 -23 -7q-18 -2 -24 -4q-11 -4 -36 -34q-13 -16 -14 -17q-5 -8 -7 -19q0 -15 -1 -46q-4 -44 51 -83q22 -15 41 -16q8 -1 21.5 -8t22.5 -5q71 11 76 49 zM601 322q16 6 32 13q21 9 23 22q4 18 -19 20q-17 0 -34 1q-20 3 -49 -53q-4 -7 -4 -11q0 -6 9 -6q12 0 42 14z" />
<glyph unicode="&#xe7;" horiz-adv-x="531" d="M307 5l1 -52q121 0 121 -76q0 -78 -121 -90q-38 -4 -96 -4v38q94 0 112 15q9 8 9 24q0 32 -67 32v116q-27 2 -82 19q-59 17 -72 30q-20 18 -40 37q-21 23 -26 47q-4 8 -8 27q1 8 3 26q2 22 2 63q-4 34 7 54q12 15 28 48q11 54 58 86q32 15 92 49q15 9 39 9q30 0 65 -12 q14 -8 44 -25t41 -31t11 -35q0 -51 -34 -65q-10 -6 -21.5 -11.5t-21.5 -4.5q-16 6 -51 16q42 -11 42 -14h-3q-22 0 -83 16q-67 17 -67 30q0 5 14 9q-34 -10 -44 -90q-2 -18 -2 -32q0 -60 38 -78q12 -12 39 -29q4 -2 55 -9q31 -4 44 -4q39 0 60 24q13 14 29 14 q14 0 24.5 -11.5t10.5 -28.5q0 -43 -61 -94q-43 -33 -89 -33z" />
<glyph unicode="&#xe8;" horiz-adv-x="469" d="M420 349q-16 -16 -39 -21q-9 -2 -21.5 -13t-20.5 -13.5t-18.5 -14.5t-17.5 -15q-16 -6 -46 -26q-13 -14 -41 -35q-15 -7 -32 -21q-21 -17 -21 -30q0 -16 23 -33q20 -15 36 -18q19 -2 66 27q32 21 63 41q10 5 18 5q26 0 26 -51q0 -15 -3 -30q-4 -23 -34 -39 q-39 -20 -46 -29q-13 -15 -43 -23q-18 -8 -55 -19q-28 -6 -47 -7q-17 -1 -53 23q-16 9 -49 26q-24 13 -31 49q-2 7 -23 52q-9 18 -7 62q1 22 13 50q5 20 21 58q5 10 14 47q7 29 23 41t42 40q7 13 45 40q6 7 21 18q4 2 20.5 -1t20.5 -1q12 9 42 20q37 6 55 -2q8 -3 25 -9 q9 -6 28 -17q10 -4 19 -15q12 -14 18 -18.5t14 -26t8 -38.5q0 -7 -1 -11q-2 -13 -12 -22zM209 310q53 25 57 47q3 18 -19 20q-17 0 -35 1q-16 3 -34 -17.5t-24 -49.5q-2 -10 -2 -16q0 -13 9 -13t27 12q11 8 21 16zM403 556l-21 -18q-81 48 -122 70q-82 44 -103 69 q-5 7 -9 19.5t-1 16.5q4 11 19 30q26 18 34 18q5 0 8 -4.5t22.5 -5.5t25.5 -4q3 -2 18 -25q12 -20 22.5 -17t21.5 -19q18 -39 22 -43q27 -39 63 -87z" />
<glyph unicode="&#xe9;" horiz-adv-x="473" d="M420 349q-16 -16 -39 -21q-9 -2 -21.5 -13t-20.5 -13.5t-18.5 -14.5t-17.5 -15q-16 -6 -46 -26q-13 -14 -41 -35q-15 -7 -32 -21q-21 -17 -21 -30q0 -16 23 -33q20 -15 36 -18q19 -2 66 27q32 21 63 41q10 5 18 5q26 0 26 -51q0 -15 -3 -30q-4 -23 -34 -39 q-39 -20 -46 -29q-13 -15 -43 -23q-18 -8 -55 -19q-28 -6 -47 -7q-17 -1 -53 23q-16 9 -49 26q-24 13 -31 49q-2 7 -23 52q-9 18 -7 62q1 22 13 50q5 20 21 58q5 10 14 47q7 29 23 41t42 40q7 13 45 40q6 7 21 18q4 2 20.5 -1t20.5 -1q12 9 42 20q37 6 55 -2q8 -3 25 -9 q9 -6 28 -17q10 -4 19 -15q12 -14 18 -18.5t14 -26t8 -38.5q0 -7 -1 -11q-2 -13 -12 -22zM209 310q53 25 57 47q3 18 -19 20q-17 0 -35 1q-16 3 -34 -17.5t-24 -49.5q-2 -10 -2 -16q0 -13 9 -13t27 12q11 8 21 16zM432 737q0 -8 -5.5 -20.5t-4.5 -14.5q1 -8 -12 -19.5 t-20 -8.5q-3 2 -6 2q-9 0 -30 -17q-28 -22 -38.5 -28t-62.5 -45q-39 -30 -53 -28q-11 7 -24 23q-2 13 26 45q20 23 41 46q1 1 19 39q10 22 21 18q5 -1 20 18.5t20 22.5q19 10 48 10q7 0 24 -8q14 -7 18 -4q2 1 4 1q15 0 15 -32z" />
<glyph unicode="&#xea;" horiz-adv-x="482" d="M420 349q-16 -16 -39 -21q-9 -2 -21.5 -13t-20.5 -13.5t-18.5 -14.5t-17.5 -15q-16 -6 -46 -26q-13 -14 -41 -35q-15 -7 -32 -21q-21 -17 -21 -30q0 -16 23 -33q20 -15 36 -18q19 -2 66 27q32 21 63 41q10 5 18 5q26 0 26 -51q0 -15 -3 -30q-4 -23 -34 -39 q-39 -20 -46 -29q-13 -15 -43 -23q-18 -8 -55 -19q-28 -6 -47 -7q-17 -1 -53 23q-16 9 -49 26q-24 13 -31 49q-2 7 -23 52q-9 18 -7 62q1 22 13 50q5 20 21 58q5 10 14 47q7 29 23 41t42 40q7 13 45 40q6 7 21 18q4 2 20.5 -1t20.5 -1q12 9 42 20q37 6 55 -2q8 -3 25 -9 q9 -6 28 -17q10 -4 19 -15q12 -14 18 -18.5t14 -26t8 -38.5q0 -7 -1 -11q-2 -13 -12 -22zM209 310q53 25 57 47q3 18 -19 20q-17 0 -35 1q-16 3 -34 -17.5t-24 -49.5q-2 -10 -2 -16q0 -13 9 -13t27 12q11 8 21 16zM423 556q-8 -16 -19 -16q-4 0 -8 1q-99 67 -95.5 76.5 t-45.5 52.5q-17 2 -28 2q-6 0 -22.5 -22t-25.5 -25q-24 -8 -93 -84q-7 -12 -17 -12q-6 0 -12 5l-2 22q41 67 42 67q19 30 33 38q8 5 21 29q16 30 23 39q18 24 23 24q1 0 4.5 -2t6.5 -2q10 0 29 17q3 2 7 2q6 0 38 -16q3 -2 6.5 -11.5t15.5 -13.5q8 -3 18 -16q8 -9 16 -19 q6 -6 5.5 -15.5t2.5 -13.5q9 -7 23 -21q23 -36 54 -86z" />
<glyph unicode="&#xeb;" horiz-adv-x="469" d="M420 349q-16 -16 -39 -21q-9 -2 -21.5 -13t-20.5 -13.5t-18.5 -14.5t-17.5 -15q-16 -6 -46 -26q-13 -14 -41 -35q-15 -7 -32 -21q-21 -17 -21 -30q0 -16 23 -33q20 -15 36 -18q19 -2 66 27q32 21 63 41q10 5 18 5q26 0 26 -51q0 -15 -3 -30q-4 -23 -34 -39 q-39 -20 -46 -29q-13 -15 -43 -23q-18 -8 -55 -19q-28 -6 -47 -7q-17 -1 -53 23q-16 9 -49 26q-24 13 -31 49q-2 7 -23 52q-9 18 -7 62q1 22 13 50q5 20 21 58q5 10 14 47q7 29 23 41t42 40q7 13 45 40q6 7 21 18q4 2 20.5 -1t20.5 -1q12 9 42 20q37 6 55 -2q8 -3 25 -9 q9 -6 28 -17q10 -4 19 -15q12 -14 18 -18.5t14 -26t8 -38.5q0 -7 -1 -11q-2 -13 -12 -22zM209 310q53 25 57 47q3 18 -19 20q-17 0 -35 1q-16 3 -34 -17.5t-24 -49.5q-2 -10 -2 -16q0 -13 9 -13t27 12q11 8 21 16zM435 664q0 -33 -23 -57.5t-55 -24.5t-55 24.5t-23 57.5 t23 57.5t55 24.5t55 -25t23 -57zM193 664q0 -33 -23 -57.5t-55 -24.5q-33 0 -55.5 24.5t-22.5 57.5t22.5 57.5t55.5 24.5q32 0 55 -25t23 -57z" />
<glyph unicode="&#xec;" horiz-adv-x="354" d="M215 444v-7.5v-14.5q1 -9 1 -14v-8q0 -7 3 -22t3 -22q-1 -8 -7 -20t-6 -19q0 -4 2 -7q9 -23 9 -61q0 -5 -1.5 -15t-1.5 -15q0 -4 1.5 -12.5t1.5 -13.5q0 -3 -1.5 -8.5t-1.5 -8.5q0 -14 22 -26q18 -11 33 -11h1q29 2 26 2q30 0 31 -26q1 -8 1 -14q0 -44 -24 -61 q-15 -5 -43 -18q-14 -11 -45 -27q-13 -5 -29 -5q-42 0 -58 26q-9 14 -16 34q-8 9 -21 31q-2 7 -2 22v5q0 7 -1.5 20t-1.5 20q0 21 6 64.5t6 65.5q0 46 -17 77l-22 23l-27 39q-7 9 -7 20q0 32 33 46q14 7 44 16q3 1 17 6t20 5q24 0 72 -66zM284 556l-21 -18q-81 48 -122 70 q-82 44 -103 69q-5 7 -9 19.5t-1 16.5q4 11 19 30q26 18 34 18q5 0 8 -4.5t22.5 -5.5t25.5 -4q3 -2 18 -25q12 -20 22.5 -17t21.5 -19q18 -39 22 -43q27 -39 63 -87z" />
<glyph unicode="&#xed;" horiz-adv-x="354" d="M211 444v-7.5v-14.5q1 -9 1 -14v-8q0 -7 3 -22t3 -22q-1 -8 -7 -20t-6 -19q0 -4 2 -7q9 -23 9 -61q0 -5 -1.5 -15t-1.5 -15q0 -4 1.5 -12.5t1.5 -13.5q0 -3 -1.5 -8.5t-1.5 -8.5q0 -14 22 -26q18 -11 33 -11h1q29 2 26 2q30 0 31 -26q1 -8 1 -14q0 -44 -24 -61 q-15 -5 -43 -18q-14 -11 -45 -27q-13 -5 -29 -5q-42 0 -58 26q-9 14 -16 34q-8 9 -21 31q-2 7 -2 22v5q0 7 -1.5 20t-1.5 20q0 21 6 64.5t6 65.5q0 46 -17 77l-22 23l-27 39q-7 9 -7 20q0 32 33 46q14 7 44 16q3 1 17 6t20 5q24 0 72 -66zM310 737q0 -8 -5.5 -20.5 t-4.5 -14.5q1 -8 -12 -19.5t-20 -8.5q-3 2 -6 2q-9 0 -30 -17q-28 -22 -38.5 -28t-62.5 -45q-39 -30 -53 -28q-11 7 -24 23q-2 13 26 45q20 23 41 46q1 1 19 39q10 22 21 18q5 -1 20 18.5t20 22.5q19 10 48 10q7 0 24 -8q14 -7 18 -4q2 1 4 1q15 0 15 -32z" />
<glyph unicode="&#xee;" horiz-adv-x="354" d="M333 553l-26 -14l-146 124l-145 -124l-25 14l62 107q20 34 40.5 65t69.5 31q45 0 65 -28q24 -34 46 -72zM215 444q1 -13 1 -41q3 -17 5 -50q0 -7 -6 -18t-6 -18q0 -4 2 -7q2 -6 9 -55q-2 -13 -3 -39q0 -1 3 -17q1 -8 -2 -18q-5 -16 19 -30q21 -13 36 -12q32 2 37 1 q19 -4 20 -25q4 -55 -23 -75q-15 -5 -43 -18q-14 -11 -45 -27q-13 -5 -29 -5q-42 0 -58 26q-9 14 -16 34q-8 9 -21 31q0 15 -3 44q-3 18 -1 43q11 118 11 110q0 46 -17 77l-22 23l-27 39q-7 9 -7 20q0 32 33 46q14 7 44 16q2 1 21 7q13 5 20 3q24 -5 68 -65z" />
<glyph unicode="&#xef;" horiz-adv-x="354" d="M351 659q0 -33 -22.5 -57.5t-55.5 -24.5q-32 0 -55 24.5t-23 57.5t23 57.5t55 24.5q33 0 55.5 -25t22.5 -57zM127 659q0 -33 -23 -57.5t-55 -24.5q-33 0 -55.5 24.5t-22.5 57.5t22.5 57.5t55.5 24.5q32 0 55 -25t23 -57zM215 444q1 -13 1 -41q3 -17 5 -50q0 -7 -6 -18 t-6 -18q0 -4 2 -7q2 -6 9 -55q-2 -13 -3 -39q0 -1 3 -17q1 -8 -2 -18q-5 -16 19 -30q21 -13 36 -12q32 2 37 1q19 -4 20 -25q4 -55 -23 -75q-15 -5 -43 -18q-14 -11 -45 -27q-13 -5 -29 -5q-42 0 -58 26q-9 14 -16 34q-8 9 -21 31q0 15 -3 44q-3 18 -1 43q11 118 11 110 q0 46 -17 77l-22 23l-27 39q-7 9 -7 20q0 32 33 46q14 7 44 16q2 1 21 7q13 5 20 3q24 -5 68 -65z" />
<glyph unicode="&#xf1;" horiz-adv-x="517" d="M511 109l18 -9q10 -5 12 -14q7 -30 -16 -46q-11 -15 -41 -41q-28 -18 -67 -18q-24 0 -41 9q-43 23 -44 97q0 20 3 102q0 17 3 50q10 51 7 63q-2 15 -16 47q-10 13 -33 13q-12 0 -17 -7.5t-10 -15.5q-7 -4 -19 -15l-15 -18q-10 -2 -27 -15q-19 -35 -17 -44.5t-5 -33.5 t-6 -32q1 -32 10 -49q6 -12 24 -23q22 -13 28 -19q13 -14 13 -28q0 -26 -40.5 -49.5t-108.5 -14.5q-21 3 -30 41q-2 8 -7 56q4 17 2 56q-2 5 -2 13q0 10 4 36q4 23 4 33q-1 14 3.5 35.5t4.5 30.5q0 16 -7 30q-2 3 -1 23q0 16 -6 18q-17 1 -49 6l-24 7q-12 5 -15 20 q-7 32 26 52q7 4 17 18t18 18q32 19 60 12q35 -8 53 -25q2 -1 16 -23q10 -14 23 -17q24 -3 44 25q32 46 85 46q51 0 87 -33q26 -23 35 -51q3 -8 8 -25q-2 -10 3 -40q3 -10 1 -58q-1 -14 -3 -27q-1 -8 1 -18q3 -13 3 -18q0 -11 -3.5 -35.5t-3.5 -36.5q0 -30 17 -44 q7 -6 21 -7t20 -7zM482 722q-15 -53 -51 -95q-47 -52 -97 -52q-55 0 -107 27t-74 27q-25 0 -45 -25q-9 -12 -27 -47l-35 15q31 90 93 129q25 16 51 16q51 0 104 -26.5t73 -26.5q34 0 52 19q13 13 26 51z" />
<glyph unicode="&#xf2;" horiz-adv-x="528" d="M286 517q7 1 18.5 -5.5t16.5 -7.5q12 -1 23 -12q17 -15 20 -18q37 -23 44 -28q22 -16 35 -38q9 -11 22 -38q1 -18 7 -53q19 -62 19 -85q0 -12 -3 -21q0 -2 -8 -55q-5 -36 -17 -49q-24 -27 -72 -70q-22 -19 -94 -23q-10 -1 -25 -8.5t-23 -8.5q-30 -4 -47 -4q-66 0 -87 19 q-8 8 -46 32q-6 4 -34 35q-9 19 -28 52q-9 14 -6 41q-4 19 -5 58q7 15 19 46q4 10 4 29q0 6 -1 18v19q0 36 15 49q13 9 39 29q5 4 9 16.5t11 15.5l42 24q27 14 45 16q11 0 24.5 9t20.5 11q25 2 62 5zM136 299q-14 -37 -14 -59q0 -18 8 -32q11 -21 21 -41q15 -24 37 -25 q16 0 49.5 -9.5t51.5 -8.5q60 1 61 57q-4 14 -6 43q6 36 4 58q-3 35 -22 51q-11 12 -34 36q-27 22 -73 22q-28 0 -45 -10q-10 -6 -22 -11.5t-15 -14.5t-1 -29q3 -19 0 -27zM379 556l-21 -18q-81 48 -122 70q-82 44 -103 69q-5 7 -9 19.5t-1 16.5q4 11 19 30q26 18 34 18 q5 0 8 -4.5t22.5 -5.5t25.5 -4q3 -2 18 -25q12 -20 22.5 -17t21.5 -19q18 -39 22 -43q27 -39 63 -87z" />
<glyph unicode="&#xf3;" horiz-adv-x="533" d="M286 517q7 1 18.5 -5.5t16.5 -7.5q12 -1 23 -12q17 -15 20 -18q37 -23 44 -28q22 -16 35 -38q9 -11 22 -38q1 -18 7 -53q19 -62 19 -85q0 -12 -3 -21q0 -2 -8 -55q-5 -36 -17 -49q-24 -27 -72 -70q-22 -19 -94 -23q-10 -1 -25 -8.5t-23 -8.5q-30 -4 -47 -4q-66 0 -87 19 q-8 8 -46 32q-6 4 -34 35q-9 19 -28 52q-9 14 -6 41q-4 19 -5 58q7 15 19 46q4 10 4 29q0 6 -1 18v19q0 36 15 49q13 9 39 29q5 4 9 16.5t11 15.5l42 24q27 14 45 16q11 0 24.5 9t20.5 11q25 2 62 5zM136 299q-14 -37 -14 -59q0 -18 8 -32q11 -21 21 -41q15 -24 37 -25 q16 0 49.5 -9.5t51.5 -8.5q60 1 61 57q-4 14 -6 43q6 36 4 58q-3 35 -22 51q-11 12 -34 36q-27 22 -73 22q-28 0 -45 -10q-10 -6 -22 -11.5t-15 -14.5t-1 -29q3 -19 0 -27zM461 737q0 -8 -5.5 -20.5t-4.5 -14.5q1 -8 -12 -19.5t-20 -8.5q-3 2 -6 2q-9 0 -30 -17 q-28 -22 -38.5 -28t-62.5 -45q-39 -30 -53 -28q-11 7 -24 23q-2 13 26 45q20 23 41 46q1 1 19 39q10 22 21 18q5 -1 20 18.5t20 22.5q19 10 48 10q7 0 24 -8q14 -7 18 -4q2 1 4 1q15 0 15 -32z" />
<glyph unicode="&#xf4;" horiz-adv-x="519" d="M286 517q7 1 18.5 -5.5t16.5 -7.5q12 -1 23 -12q17 -15 20 -18q37 -23 44 -28q22 -16 35 -38q9 -11 22 -38q1 -18 7 -53q19 -62 19 -85q0 -12 -3 -21q0 -2 -8 -55q-5 -36 -17 -49q-24 -27 -72 -70q-22 -19 -94 -23q-10 -1 -25 -8.5t-23 -8.5q-30 -4 -47 -4q-66 0 -87 19 q-8 8 -46 32q-6 4 -34 35q-9 19 -28 52q-9 14 -6 41q-4 19 -5 58q7 15 19 46q4 10 4 29q0 6 -1 18v19q0 36 15 49q13 9 39 29q5 4 9 16.5t11 15.5l42 24q27 14 45 16q11 0 24.5 9t20.5 11q25 2 62 5zM136 299q-14 -37 -14 -59q0 -18 8 -32q11 -21 21 -41q15 -24 37 -25 q16 0 49.5 -9.5t51.5 -8.5q60 1 61 57q-4 14 -6 43q6 36 4 58q-3 35 -22 51q-11 12 -34 36q-27 22 -73 22q-28 0 -45 -10q-10 -6 -22 -11.5t-15 -14.5t-1 -29q3 -19 0 -27zM460 552q-8 -16 -19 -16q-4 0 -8 1q-99 67 -95.5 76.5t-45.5 52.5q-17 2 -28 2q-6 0 -22.5 -22 t-25.5 -25q-24 -8 -93 -84q-7 -12 -17 -12q-6 0 -12 5l-2 22q41 67 42 67q19 30 33 38q8 5 21 29q16 30 23 39q18 24 23 24q1 0 4.5 -2t6.5 -2q10 0 29 17q3 2 7 2q6 0 38 -16q3 -2 6.5 -11.5t15.5 -13.5q8 -3 18 -16q8 -9 16 -19q6 -6 5.5 -15.5t2.5 -13.5q9 -7 23 -21 q23 -36 54 -86z" />
<glyph unicode="&#xf5;" horiz-adv-x="528" d="M286 517q7 1 18.5 -5.5t16.5 -7.5q12 -1 23 -12q17 -15 20 -18q37 -23 44 -28q22 -16 35 -38q9 -11 22 -38q1 -18 7 -53q19 -62 19 -85q0 -12 -3 -21q0 -2 -8 -55q-5 -36 -17 -49q-24 -27 -72 -70q-22 -19 -94 -23q-10 -1 -25 -8.5t-23 -8.5q-30 -4 -47 -4q-66 0 -87 19 q-8 8 -46 32q-6 4 -34 35q-9 19 -28 52q-9 14 -6 41q-4 19 -5 58q7 15 19 46q4 10 4 29q0 6 -1 18v19q0 36 15 49q13 9 39 29q5 4 9 16.5t11 15.5l42 24q27 14 45 16q11 0 24.5 9t20.5 11q25 2 62 5zM136 299q-14 -37 -14 -59q0 -18 8 -32q11 -21 21 -41q15 -24 37 -25 q16 0 49.5 -9.5t51.5 -8.5q60 1 61 57q-4 14 -6 43q6 36 4 58q-3 35 -22 51q-11 12 -34 36q-27 22 -73 22q-28 0 -45 -10q-10 -6 -22 -11.5t-15 -14.5t-1 -29q3 -19 0 -27zM503 727q-15 -53 -51 -95q-47 -52 -97 -52q-55 0 -107 27t-74 27q-25 0 -45 -25q-9 -12 -27 -47 l-35 15q31 90 93 129q25 16 51 16q51 0 104 -26.5t73 -26.5q34 0 52 19q13 13 26 51z" />
<glyph unicode="&#xf6;" horiz-adv-x="533" d="M286 517q7 1 18.5 -5.5t16.5 -7.5q12 -1 23 -12q17 -15 20 -18q37 -23 44 -28q22 -16 35 -38q9 -11 22 -38q1 -18 7 -53q19 -62 19 -85q0 -12 -3 -21q0 -2 -8 -55q-5 -36 -17 -49q-24 -27 -72 -70q-22 -19 -94 -23q-10 -1 -25 -8.5t-23 -8.5q-30 -4 -47 -4q-66 0 -87 19 q-8 8 -46 32q-6 4 -34 35q-9 19 -28 52q-9 14 -6 41q-4 19 -5 58q7 15 19 46q4 10 4 29q0 6 -1 18v19q0 36 15 49q13 9 39 29q5 4 9 16.5t11 15.5l42 24q27 14 45 16q11 0 24.5 9t20.5 11q25 2 62 5zM136 299q-14 -37 -14 -59q0 -18 8 -32q11 -21 21 -41q15 -24 37 -25 q16 0 49.5 -9.5t51.5 -8.5q60 1 61 57q-4 14 -6 43q6 36 4 58q-3 35 -22 51q-11 12 -34 36q-27 22 -73 22q-28 0 -45 -10q-10 -6 -22 -11.5t-15 -14.5t-1 -29q3 -19 0 -27zM468 659q0 -33 -23 -57.5t-55 -24.5t-55 24.5t-23 57.5t23 57.5t55 24.5t55 -25t23 -57zM226 659 q0 -33 -23 -57.5t-55 -24.5q-33 0 -55.5 24.5t-22.5 57.5t22.5 57.5t55.5 24.5q32 0 55 -25t23 -57z" />
<glyph unicode="&#xf7;" horiz-adv-x="703" d="M431 479q0 -33 -23 -57t-56 -24q-34 0 -57 24t-23 57q0 34 23 58t57 24q33 0 56 -24t23 -58zM431 81q0 -33 -23 -57t-56 -24q-34 0 -57 24t-23 57q0 34 23 58t57 24q33 0 56 -24.5t23 -57.5zM55 296q18 25 68 39q41 12 83 12q10 0 80 -7q14 -1 60 -12q40 -10 63 -10 q25 0 53 12q34 14 48.5 16.5t38.5 2.5q22 0 45 -2q30 -9 30 -19q0 -1 -1 -2v-3q0 -3 4.5 -11.5t4.5 -13.5q0 -12 -21 -21q-26 -10 -85 -27q-65 -29 -95 -29q-108 0 -133 12q-72 35 -88 35q-6 0 -14.5 -3t-14.5 -3t-14.5 1.5t-11.5 1.5q-7 0 -12 -5.5t-19 -5.5q-21 0 -54 10 q-19 7 -19 20q0 6 4 12z" />
<glyph unicode="&#xf8;" horiz-adv-x="636" />
<glyph unicode="&#xf9;" horiz-adv-x="502" d="M175 437q4 -6 10 -52q6 -23 14 -67q2 -8 -6.5 -21t-8.5 -19q0 -3 4 -11q6 -18 5 -44q0 -6 -5 -28.5t-5 -32.5q0 -39 69 -39q52 0 77 21q14 12 15 52v15q0 16 2 24.5t5 26.5q0 4 -3 12.5t-3 12.5q2 9 4 26q-5 11 -12 34q-2 8 5 16t5 16q-4 11 -11.5 20.5t-15.5 18.5 q-8 12 5 51q10 32 39 35q68 7 93 -37q12 -20 17 -46q3 -13 -1 -35q-4 -28 -4 -37t-5.5 -14.5t-7.5 -15.5q-1 -9 4 -20.5t3 -21.5q-14 -61 -14 -68q1 -35 15 -61q3 -6 11 -6q5 0 20 4t23 4q21 0 27 -22q8 -23 -9 -42q-4 -4 -11 -22q-5 -12 -18 -19t-37 -23q-14 -7 -41 -21 q-10 -7 -21 -7q-21 0 -59 51q-5 7 -13 7q-15 0 -44 -22q-34 -25 -35 -26q-6 -3 -18 -13q-8 -7 -16 -7q-5 0 -11 2q-9 4 -25 2q-17 -3 -25 0q-32 9 -64 35q-38 29 -41 57q2 18 -4 54q-1 4 8 22.5t9 23t3 13t4 11.5q-2 9 -3 26q2 9 4 17q2 10 -2 17t-13 22q-4 7 -1 18 q1 10 3 19q2 35 -28 66q-11 11 -12 24v28q0 13 11.5 21.5t22.5 16.5q15 14 22 19q13 8 28 9q19 2 44 -30q6 -13 22 -40zM324 556l-21 -18q-81 48 -122 70q-82 44 -103 69q-5 7 -9 19.5t-1 16.5q4 11 19 30q26 18 34 18q5 0 8 -4.5t22.5 -5.5t25.5 -4q3 -2 18 -25 q12 -20 22.5 -17t21.5 -19q18 -39 22 -43q27 -39 63 -87z" />
<glyph unicode="&#xfa;" d="M175 437q4 -6 10 -52q6 -23 14 -67q2 -8 -6.5 -21t-8.5 -19q0 -3 4 -11q6 -18 5 -44q0 -6 -5 -28.5t-5 -32.5q0 -39 69 -39q52 0 77 21q14 12 15 52v15q0 16 2 24.5t5 26.5q0 4 -3 12.5t-3 12.5q2 9 4 26q-5 11 -12 34q-2 8 5 16t5 16q-4 11 -11.5 20.5t-15.5 18.5 q-8 12 5 51q10 32 39 35q68 7 93 -37q12 -20 17 -46q3 -13 -1 -35q-4 -28 -4 -37t-5.5 -14.5t-7.5 -15.5q-1 -9 4 -20.5t3 -21.5q-14 -61 -14 -68q1 -35 15 -61q3 -6 11 -6q5 0 20 4t23 4q21 0 27 -22q8 -23 -9 -42q-4 -4 -11 -22q-5 -12 -18 -19t-37 -23q-14 -7 -41 -21 q-10 -7 -21 -7q-21 0 -59 51q-5 7 -13 7q-15 0 -44 -22q-34 -25 -35 -26q-6 -3 -18 -13q-8 -7 -16 -7q-5 0 -11 2q-9 4 -25 2q-17 -3 -25 0q-32 9 -64 35q-38 29 -41 57q2 18 -4 54q-1 4 8 22.5t9 23t3 13t4 11.5q-2 9 -3 26q2 9 4 17q2 10 -2 17t-13 22q-4 7 -1 18 q1 10 3 19q2 35 -28 66q-11 11 -12 24v28q0 13 11.5 21.5t22.5 16.5q15 14 22 19q13 8 28 9q19 2 44 -30q6 -13 22 -40zM413 737q0 -8 -5.5 -20.5t-4.5 -14.5q1 -8 -12 -19.5t-20 -8.5q-3 2 -6 2q-9 0 -30 -17q-28 -22 -38.5 -28t-62.5 -45q-39 -30 -53 -28q-11 7 -24 23 q-2 13 26 45q20 23 41 46q1 1 19 39q10 22 21 18q5 -1 20 18.5t20 22.5q19 10 48 10q7 0 24 -8q14 -7 18 -4q2 1 4 1q15 0 15 -32z" />
<glyph unicode="&#xfb;" horiz-adv-x="516" d="M175 437q4 -6 10 -52q6 -23 14 -67q2 -8 -6.5 -21t-8.5 -19q0 -3 4 -11q6 -18 5 -44q0 -6 -5 -28.5t-5 -32.5q0 -39 69 -39q52 0 77 21q14 12 15 52v15q0 16 2 24.5t5 26.5q0 4 -3 12.5t-3 12.5q2 9 4 26q-5 11 -12 34q-2 8 5 16t5 16q-4 11 -11.5 20.5t-15.5 18.5 q-8 12 5 51q10 32 39 35q68 7 93 -37q12 -20 17 -46q3 -13 -1 -35q-4 -28 -4 -37t-5.5 -14.5t-7.5 -15.5q-1 -9 4 -20.5t3 -21.5q-14 -61 -14 -68q1 -35 15 -61q3 -6 11 -6q5 0 20 4t23 4q21 0 27 -22q8 -23 -9 -42q-4 -4 -11 -22q-5 -12 -18 -19t-37 -23q-14 -7 -41 -21 q-10 -7 -21 -7q-21 0 -59 51q-5 7 -13 7q-15 0 -44 -22q-34 -25 -35 -26q-6 -3 -18 -13q-8 -7 -16 -7q-5 0 -11 2q-9 4 -25 2q-17 -3 -25 0q-32 9 -64 35q-38 29 -41 57q2 18 -4 54q-1 4 8 22.5t9 23t3 13t4 11.5q-2 9 -3 26q2 9 4 17q2 10 -2 17t-13 22q-4 7 -1 18 q1 10 3 19q2 35 -28 66q-11 11 -12 24v28q0 13 11.5 21.5t22.5 16.5q15 14 22 19q13 8 28 9q19 2 44 -30q6 -13 22 -40zM407 565q-8 -16 -19 -16q-4 0 -8 1q-99 67 -95.5 76.5t-45.5 52.5q-17 2 -28 2q-6 0 -22.5 -22t-25.5 -25q-24 -8 -93 -84q-7 -12 -17 -12q-6 0 -12 5 l-2 22q41 67 42 67q19 30 33 38q8 5 21 29q16 30 23 39q18 24 23 24q1 0 4.5 -2t6.5 -2q10 0 29 17q3 2 7 2q6 0 38 -16q3 -2 6.5 -11.5t15.5 -13.5q8 -3 18 -16q8 -9 16 -19q6 -6 5.5 -15.5t2.5 -13.5q9 -7 23 -21q23 -36 54 -86z" />
<glyph unicode="&#xfc;" horiz-adv-x="502" d="M175 437q4 -6 10 -52q6 -23 14 -67q2 -8 -6.5 -21t-8.5 -19q0 -3 4 -11q6 -18 5 -44q0 -6 -5 -28.5t-5 -32.5q0 -39 69 -39q52 0 77 21q14 12 15 52v15q0 16 2 24.5t5 26.5q0 4 -3 12.5t-3 12.5q2 9 4 26q-5 11 -12 34q-2 8 5 16t5 16q-4 11 -11.5 20.5t-15.5 18.5 q-8 12 5 51q10 32 39 35q68 7 93 -37q12 -20 17 -46q3 -13 -1 -35q-4 -28 -4 -37t-5.5 -14.5t-7.5 -15.5q-1 -9 4 -20.5t3 -21.5q-14 -61 -14 -68q1 -35 15 -61q3 -6 11 -6q5 0 20 4t23 4q21 0 27 -22q8 -23 -9 -42q-4 -4 -11 -22q-5 -12 -18 -19t-37 -23q-14 -7 -41 -21 q-10 -7 -21 -7q-21 0 -59 51q-5 7 -13 7q-15 0 -44 -22q-34 -25 -35 -26q-6 -3 -18 -13q-8 -7 -16 -7q-5 0 -11 2q-9 4 -25 2q-17 -3 -25 0q-32 9 -64 35q-38 29 -41 57q2 18 -4 54q-1 4 8 22.5t9 23t3 13t4 11.5q-2 9 -3 26q2 9 4 17q2 10 -2 17t-13 22q-4 7 -1 18 q1 10 3 19q2 35 -28 66q-11 11 -12 24v28q0 13 11.5 21.5t22.5 16.5q15 14 22 19q13 8 28 9q19 2 44 -30q6 -13 22 -40zM457 670q0 -33 -23 -57.5t-55 -24.5t-55 24.5t-23 57.5t23 57.5t55 24.5t55 -25t23 -57zM215 670q0 -33 -23 -57.5t-55 -24.5q-33 0 -55.5 24.5 t-22.5 57.5t22.5 57.5t55.5 24.5q32 0 55 -25t23 -57z" />
<glyph unicode="&#xfd;" horiz-adv-x="584" d="M683 756q0 -8 -5.5 -20.5t-4.5 -14.5q1 -8 -12 -19.5t-20 -8.5q-3 2 -6 2q-9 0 -30 -17q-28 -22 -38.5 -28t-62.5 -45q-39 -30 -53 -28q-11 7 -24 23q-2 13 26 45q20 23 41 46q1 1 19 39q10 22 21 18q5 -1 20 18.5t20 22.5q19 10 48 10q7 0 24 -8q14 -7 18 -4q2 1 4 1 q15 0 15 -32zM339 -203q43 -6 65 7l30 24q19 14 32 14q15 0 28 -17q9 -11 9 -24t-14 -38.5t-15 -37.5q-13 -10 -36 -29q-9 -7 -28 -11q-15 -2 -30 -5l-53 -12q-9 -4 -27 -9q-9 1 -28 0q-26 -5 -58 -14l-30 -12q-13 1 -40 1q-15 -1 -32.5 7t-17.5 23q0 7 6 18q9 16 10 17 q8 14 23 43q5 19 23 54q18 31 57 91q27 38 33 49q18 31 15 55q-6 36 -18 54q-3 4 -15 49q-3 12 -23 41q-3 4 -3 10q0 5 3 20t2 21q-6 35 -41 98q-13 23 -25 46q-17 21 -47 17q-10 0 -29 -1q-8 -4 -25 -10q-32 -7 -51 11q-4 12 -4 23q0 17 14 34l28 34q5 7 20.5 12t20.5 9 q19 14 50 16q50 4 55 3q6 -2 47 -28q56 -36 64 -73q5 -30 15 -52q8 -27 31 -76q12 -17 16 -24q8 -15 9 -26t2.5 -20.5t17.5 -11.5q23 -3 33 33l10 56q1 5 9 23q6 12 3 26q-2 16 -26 56q-6 10 -36 34q-24 19 -24 37q0 11 7.5 25t12.5 19q8 10 19 11q19 5 57 13q26 5 52 -13.5 t36 -43.5q6 -19 20 -54q3 -7 3 -14q0 -6 -4.5 -19.5t-3.5 -22.5q1 -1 5 -15q2 -6 -2 -14q-23 -51 -30 -91q-10 -55 -48 -102l-33 -45q-9 -16 -32 -46q-25 -22 -55 -99q-6 -13 -42 -61q-31 -40 -33 -65q29 2 66 2z" />
<glyph unicode="&#xff;" horiz-adv-x="562" d="M339 -203q43 -6 65 7l30 24q19 14 32 14q15 0 28 -17q9 -11 9 -24t-14 -38.5t-15 -37.5q-13 -10 -36 -29q-9 -7 -28 -11q-15 -2 -30 -5l-53 -12q-9 -4 -27 -9q-9 1 -28 0q-26 -5 -58 -14l-30 -12q-13 1 -40 1q-15 -1 -32.5 7t-17.5 23q0 7 6 18q9 16 10 17q8 14 23 43 q5 19 23 54q18 31 57 91q27 38 33 49q18 31 15 55q-6 36 -18 54q-3 4 -15 49q-3 12 -23 41q-3 4 -3 10q0 5 3 20t2 21q-6 35 -41 98q-13 23 -25 46q-17 21 -47 17q-10 0 -29 -1q-8 -4 -25 -10q-32 -7 -51 11q-4 12 -4 23q0 17 14 34l28 34q5 7 20.5 12t20.5 9q19 14 50 16 q50 4 55 3q6 -2 47 -28q56 -36 64 -73q5 -30 15 -52q8 -27 31 -76q12 -17 16 -24q8 -15 9 -26t2.5 -20.5t17.5 -11.5q23 -3 33 33l10 56q1 5 9 23q6 12 3 26q-2 16 -26 56q-6 10 -36 34q-24 19 -24 37q0 11 7.5 25t12.5 19q8 10 19 11q19 5 57 13q26 5 52 -13.5t36 -43.5 q6 -19 20 -54q3 -7 3 -14q0 -6 -4.5 -19.5t-3.5 -22.5q1 -1 5 -15q2 -6 -2 -14q-23 -51 -30 -91q-10 -55 -48 -102l-33 -45q-9 -16 -32 -46q-25 -22 -55 -99q-6 -13 -42 -61q-31 -40 -33 -65q29 2 66 2zM508 659q0 -33 -23 -57.5t-55 -24.5t-55 24.5t-23 57.5t23 57.5 t55 24.5t55 -25t23 -57zM266 659q0 -33 -23 -57.5t-55 -24.5q-33 0 -55.5 24.5t-22.5 57.5t22.5 57.5t55.5 24.5q32 0 55 -25t23 -57z" />
<glyph unicode="&#x131;" horiz-adv-x="332" d="M215 444v-7.5v-14.5q1 -9 1 -14v-8q0 -7 3 -22t3 -22q-1 -8 -7 -20t-6 -19q0 -4 2 -7q9 -23 9 -61q0 -5 -1.5 -15t-1.5 -15q0 -4 1.5 -12.5t1.5 -13.5q0 -3 -1.5 -8.5t-1.5 -8.5q0 -14 22 -26q18 -11 33 -11h1q29 2 26 2q30 0 31 -26q1 -8 1 -14q0 -44 -24 -61 q-15 -5 -43 -18q-14 -11 -45 -27q-13 -5 -29 -5q-42 0 -58 26q-9 14 -16 34q-8 9 -21 31q-2 7 -2 22v5q0 7 -1.5 20t-1.5 20q0 21 6 64.5t6 65.5q0 46 -17 77l-22 23l-27 39q-7 9 -7 20q0 32 33 46q14 7 44 16q3 1 17 6t20 5q24 0 72 -66z" />
<glyph unicode="&#x152;" horiz-adv-x="1101" d="M1188 556q0 -21 -18 -41.5t-17 -36.5v-5q-28 -21 -83 -64q-50 -42 -88 -42q-17 0 -39.5 -9.5t-28.5 -9.5q-5 0 -13.5 2.5t-12.5 2.5t-11.5 -1t-10.5 -1q-24 0 -52 15q-2 1 -36.5 6t-38.5 5q-10 0 -26 -10q-1 -27 -9 -92q-8 -58 -8 -92q0 -25 8 -27l79 -20q4 0 11.5 1.5 t11.5 1.5q5 0 13.5 -2t12.5 -2q9 0 26 2.5t26 2.5h9q6 -1 9 -1q44 0 83 48t72 48q35 0 35 -26q0 -59 -28 -79q-7 -5 -13.5 -18.5t-12.5 -18.5q-29 -25 -75 -50q-41 -20 -81 -41q-10 -6 -23 -6q-10 0 -28 5.5t-28 5.5t-28.5 -7t-26.5 -7q-15 0 -49 16q-29 14 -46 26h-3 q-22 1 -61 -23l-56 -40q-16 -11 -57 -11q-34 0 -123 12q-97 12 -121 23q-15 11 -46 31q-16 8 -49 24q-39 61 -57 113q-1 4 -11 23q-7 14 -7 24q0 39 -5 84q-2 16 -16 56q-12 35 -12 57q0 10 7 29.5t7 29.5q0 4 -1.5 12t-1.5 12q0 38 31 107.5t59 92.5q21 10 61 37 q32 30 46 40q24 19 53 30q57 23 66 26q38 13 68 17q15 1 62 12q39 9 63 9q33 0 61 -41t29 -41h2q17 17 42 35q32 21 48 21q6 0 18 -1t18 -1q15 0 42.5 6.5t41.5 6.5q-3 0 68 -9q26 -4 48 -24q31 -26 42 -32q6 -3 37 -11q22 -6 31 -18q19 -25 19 -70q0 -44 -30 -52 q-37 -10 -58 -10t-57.5 19t-50.5 36.5t-36 23.5q-9 0 -26 3q-3 1 -21 13q-12 7 -38 7q-33 0 -69 -29q-4 -3 -4 -24q0 -25 4 -74t4 -73q0 -23 -4 -25h6q12 -1 33.5 6t32.5 7q9 0 24 -4q21 -7 23 -8q10 -2 45 -3q29 -1 44 -8q23 -13 31 -13q39 0 112 50t100 50t27 -19z M595 627q0 48 -2 67q-115 33 -156 33q-36 0 -114 -32l-55 -22q-29 -14 -45 -37q-14 -14 -39 -44q-6 -11 -10.5 -28.5t-8.5 -32.5q-2 -7 -2 -12q0 -8 5 -25.5t5 -29.5q0 -10 -2 -31t-2 -30q0 -7 4.5 -20.5t4.5 -19.5q1 -11 7.5 -34t6.5 -37q0 -10 9 -23q11 -17 13 -22 q9 -22 33 -50q28 -34 69 -45q30 -9 85 -9q119 0 159 55q16 23 27 205q8 135 8 224z" />
<glyph unicode="&#x153;" horiz-adv-x="857" d="M277 -19q-32 0 -56 13q-17 11 -33 23t-44 36q-9 7 -19 23.5t-14 21.5q-24 27 -22 62q1 9 -2.5 28t-3.5 27q0 -4 5 57q3 39 59 97q8 9 38 36q7 6 21 17q9 1 25 9q3 2 12 16q6 10 17 11q34 5 65 17q15 11 47 24q22 2 49 -18q36 -27 48 -79q19 33 59 61q20 9 49 22 q14 4 38 13q13 7 42 10q37 6 55 -2q8 -3 25 -9q8 -6 27 -17q10 -4 20 -15q12 -14 18 -18.5t14 -26t8 -38.5q0 -7 -2 -11q-1 -13 -11 -22q-17 -16 -40 -21q-8 -2 -21 -13t-20.5 -13.5t-18 -14.5t-17.5 -15q-16 -6 -47 -26q-12 -14 -40 -35q-21 -9 -37 -32q-3 -5 -3 -10 q0 -15 27 -32q24 -15 41 -18q19 -2 46 15q22 14 43 28q12 6 22 6q18 0 28 -16t10 -37q0 -7 -1 -14q-4 -23 -35 -39q-39 -20 -46 -29q-12 -15 -42 -23q-18 -8 -56 -19q-11 -3 -30 -3q-61 0 -95 27q-7 5 -17.5 33.5t-17.5 33.5q-17 -3 -61 -48t-65.5 -49t-40.5 -4zM411 173 q1 6 -4.5 19.5t-6.5 17.5q-3 21 0 43q2 9 -3.5 19t-6.5 16q-1 14 -2.5 28t-7.5 24.5t-11 20t-16 12.5q-20 6 -49 -10q-9 -5 -23 -7q-18 -2 -24 -4q-11 -4 -36 -34q-13 -16 -14 -17q-5 -8 -7 -19q0 -15 -1 -46q-4 -44 51 -83q22 -15 41 -16q8 -1 21.5 -8t22.5 -5q71 11 76 49 zM601 322q16 6 32 13q21 9 23 22q4 18 -19 20q-17 0 -34 1q-20 3 -49 -53q-4 -7 -4 -11q0 -6 9 -6q12 0 42 14z" />
<glyph unicode="&#x178;" horiz-adv-x="732" />
<glyph unicode="&#x2c6;" d="M429 552q-8 -16 -19 -16q-4 0 -8 1q-99 67 -95.5 76.5t-45.5 52.5q-17 2 -28 2q-6 0 -22.5 -22t-25.5 -25q-24 -8 -93 -84q-7 -12 -17 -12q-6 0 -12 5l-2 22q41 67 42 67q19 30 33 38q8 5 21 29q16 30 23 39q18 24 23 24q1 0 4.5 -2t6.5 -2q10 0 29 17q3 2 7 2 q6 0 38 -16q3 -2 6.5 -11.5t15.5 -13.5q8 -3 18 -16q8 -9 16 -19q6 -6 5.5 -15.5t2.5 -13.5q9 -7 23 -21q23 -36 54 -86z" />
<glyph unicode="&#x2da;" d="M386 652q0 -54 -42 -85q-37 -28 -94 -28q-59 0 -95 27q-41 30 -41 86q0 54 42 85q38 28 94 28t94 -27q42 -31 42 -86zM314 652q0 79 -64 79t-64 -79t64 -79t64 79z" />
<glyph unicode="&#x2dc;" d="M468 722q-15 -53 -51 -95q-47 -52 -97 -52q-55 0 -107 27t-74 27q-25 0 -45 -25q-9 -12 -27 -47l-35 15q31 90 93 129q25 16 51 16q51 0 104 -26.5t73 -26.5q34 0 52 19q13 13 26 51z" />
<glyph unicode="&#x2000;" horiz-adv-x="597" />
<glyph unicode="&#x2001;" horiz-adv-x="1194" />
<glyph unicode="&#x2002;" horiz-adv-x="597" />
<glyph unicode="&#x2003;" horiz-adv-x="1194" />
<glyph unicode="&#x2004;" horiz-adv-x="398" />
<glyph unicode="&#x2005;" horiz-adv-x="298" />
<glyph unicode="&#x2006;" horiz-adv-x="199" />
<glyph unicode="&#x2007;" horiz-adv-x="199" />
<glyph unicode="&#x2008;" horiz-adv-x="149" />
<glyph unicode="&#x2009;" horiz-adv-x="238" />
<glyph unicode="&#x200a;" horiz-adv-x="66" />
<glyph unicode="&#x2010;" horiz-adv-x="443" d="M31 281q10 24 39 38q26 12 54 12q7 0 50 -6l42 -12q30 -10 44 -10q16 0 35 13t27.5 15.5t23.5 2.5q14 0 28 -2q19 -10 19 -19q0 -1 -1 -3v-2q0 -3 3 -11.5t3 -13.5q0 -22 -13 -31q-16 -10 -53 -27q-40 -29 -58 -29q-77 0 -93 12q-8 6 -18 7t-17 3t-23 3h-19q-3 0 -8.5 5 t-7.5 5t-2 -5.5t-1 -7.5q-4 -8 -26 -8q-13 0 -27 8q-14 20 -14 33z" />
<glyph unicode="&#x2011;" horiz-adv-x="443" d="M31 281q10 24 39 38q26 12 54 12q7 0 50 -6l42 -12q30 -10 44 -10q16 0 35 13t27.5 15.5t23.5 2.5q14 0 28 -2q19 -10 19 -19q0 -1 -1 -3v-2q0 -3 3 -11.5t3 -13.5q0 -22 -13 -31q-16 -10 -53 -27q-40 -29 -58 -29q-77 0 -93 12q-8 6 -18 7t-17 3t-23 3h-19q-3 0 -8.5 5 t-7.5 5t-2 -5.5t-1 -7.5q-4 -8 -26 -8q-13 0 -27 8q-14 20 -14 33z" />
<glyph unicode="&#x2012;" horiz-adv-x="443" d="M31 281q10 24 39 38q26 12 54 12q7 0 50 -6l42 -12q30 -10 44 -10q16 0 35 13t27.5 15.5t23.5 2.5q14 0 28 -2q19 -10 19 -19q0 -1 -1 -3v-2q0 -3 3 -11.5t3 -13.5q0 -22 -13 -31q-16 -10 -53 -27q-40 -29 -58 -29q-77 0 -93 12q-8 6 -18 7t-17 3t-23 3h-19q-3 0 -8.5 5 t-7.5 5t-2 -5.5t-1 -7.5q-4 -8 -26 -8q-13 0 -27 8q-14 20 -14 33z" />
<glyph unicode="&#x2013;" horiz-adv-x="703" d="M652 241h-601v79h601v-79z" />
<glyph unicode="&#x2014;" horiz-adv-x="928" d="M876 241h-825v79h825v-79z" />
<glyph unicode="&#x2018;" horiz-adv-x="269" d="M144 885q37 10 51 0q11 -8 12 -24v-28q1 -6 8 -23q5 -13 4 -22q0 -7 -7 -30q-5 -18 -3.5 -28t-10.5 -46q-2 -3 -6 -59q0 -13 1 -26q-1 -15 -9 -24q-13 -14 -40 -23q-21 -6 -33 13q-2 10 -9 28q-10 14 -9 23q1 38 -7 49q-23 29 -20 52q5 39 -7 57q-20 29 -7 59 q13 32 92 52z" />
<glyph unicode="&#x2019;" horiz-adv-x="269" d="M144 885q37 10 51 0q11 -8 12 -24v-28q1 -6 8 -23q5 -13 4 -22q0 -7 -7 -30q-5 -18 -3.5 -28t-10.5 -46q-2 -3 -6 -59q0 -13 1 -26q-1 -15 -9 -24q-13 -14 -40 -23q-21 -6 -33 13q-2 10 -9 28q-10 14 -9 23q1 38 -7 49q-23 29 -20 52q5 39 -7 57q-20 29 -7 59 q13 32 92 52z" />
<glyph unicode="&#x201a;" horiz-adv-x="269" d="M133 297q37 10 51 0q11 -8 12 -24v-28q1 -6 8 -23q5 -13 4 -22q0 -7 -7 -30q-5 -18 -3.5 -28t-10.5 -46q-2 -3 -6 -59q0 -13 1 -26q-1 -15 -9 -24q-13 -14 -40 -23q-21 -6 -33 13q-2 10 -9 28q-10 14 -9 23q1 38 -7 49q-23 29 -20 52q5 39 -7 57q-20 29 -7 59 q13 32 92 52z" />
<glyph unicode="&#x201c;" horiz-adv-x="592" d="M197 885q38 10 52 0q11 -8 11.5 -23t0.5 -29q1 -6 8 -23q5 -13 4 -22q-1 -7 -7 -30q-5 -18 -3.5 -28t-10.5 -46q-2 -3 -7 -59q1 -13 1 -26q0 -15 -8 -24q-14 -14 -41 -23q-20 -6 -33 13q-1 10 -9 28q-9 14 -9 23q2 38 -7 49q-22 29 -19 52q5 39 -7 57q-21 29 -8 59 q14 32 92 52zM427 885q38 10 52 0q10 -8 11 -24v-28q1 -6 8 -23q5 -13 4 -22q0 -7 -7 -30q-5 -18 -3.5 -28t-10.5 -46q-1 -3 -6 -59q0 -13 1 -26q0 -15 -8 -24q-14 -14 -41 -23q-21 -6 -33 13q-2 10 -9 28q-10 14 -9 23q1 38 -7 49q-23 29 -20 52q5 39 -7 57q-20 29 -7 59 q14 32 92 52z" />
<glyph unicode="&#x201d;" horiz-adv-x="592" d="M197 885q38 10 52 0q11 -8 11.5 -23t0.5 -29q1 -6 8 -23q5 -13 4 -22q-1 -7 -7 -30q-5 -18 -3.5 -28t-10.5 -46q-2 -3 -7 -59q1 -13 1 -26q0 -15 -8 -24q-14 -14 -41 -23q-20 -6 -33 13q-1 10 -9 28q-9 14 -9 23q2 38 -7 49q-22 29 -19 52q5 39 -7 57q-21 29 -8 59 q14 32 92 52zM427 885q38 10 52 0q10 -8 11 -24v-28q1 -6 8 -23q5 -13 4 -22q0 -7 -7 -30q-5 -18 -3.5 -28t-10.5 -46q-1 -3 -6 -59q0 -13 1 -26q0 -15 -8 -24q-14 -14 -41 -23q-21 -6 -33 13q-2 10 -9 28q-10 14 -9 23q1 38 -7 49q-23 29 -20 52q5 39 -7 57q-20 29 -7 59 q14 32 92 52z" />
<glyph unicode="&#x201e;" horiz-adv-x="519" />
<glyph unicode="&#x2022;" horiz-adv-x="438" d="M375 297q0 -65 -45.5 -110t-110.5 -45t-110.5 45t-45.5 110t45.5 110.5t110.5 45.5t110.5 -45.5t45.5 -110.5z" />
<glyph unicode="&#x2026;" horiz-adv-x="942" d="M886 77q0 -38 -27.5 -64.5t-66.5 -26.5q-38 0 -65.5 26.5t-27.5 64.5t27.5 65t65.5 27q39 0 66.5 -27t27.5 -65zM572 77q0 -38 -27.5 -64.5t-65.5 -26.5q-39 0 -66.5 26.5t-27.5 64.5t27.5 65t66.5 27q38 0 65.5 -27t27.5 -65zM258 77q0 -38 -27.5 -64.5t-65.5 -26.5 q-39 0 -66.5 26.5t-27.5 64.5t27.5 65t66.5 27q38 0 65.5 -27t27.5 -65z" />
<glyph unicode="&#x202f;" horiz-adv-x="238" />
<glyph unicode="&#x2039;" horiz-adv-x="396" d="M342 68l-25 -21q-71 48 -210 149q-35 27 -35 71q0 42 34.5 69.5t96.5 70.5l114 79l25 -21l-145 -200z" />
<glyph unicode="&#x203a;" horiz-adv-x="396" d="M323 267q0 -42 -42 -79q-39 -28 -78 -55q-54 -38 -124 -86l-26 21l146 197l-146 200l26 21q71 -48 210 -149q34 -27 34 -70z" />
<glyph unicode="&#x205f;" horiz-adv-x="298" />
<glyph unicode="&#x20ac;" horiz-adv-x="788" d="M188 302q7 -3 45 -4q26 0 53 -13q4 -1 8 -1q5 0 16 3.5t17 2.5q16 0 44 -5q14 -8 39 -13q10 2 31 1q7 -3 22.5 19t15.5 46q0 27 -20 49q-12 6 -37 7q-30 1 -38 3q-42 10 -44 10q-12 -2 -40 4q-13 -2 -39 -1q-4 1 -30 -6q-29 -9 -43 -9q-11 0 -18 4q-14 14 -14 26 q0 13 17 23q13 7 24 7q98 0 106.5 -4t29.5 -4h29q6 -1 25.5 2.5t27.5 3.5q7 0 10 -2q14 -8 39 -13q10 2 31 1q7 -3 22.5 19t15.5 47q0 26 -21 48q-11 6 -36 7q-30 1 -38 3t-22 -3q-17 -6 -22 -7q-21 -2 -63 6q-7 1 -35 -4t-33 -5q-30 0 -72 -3q-37 -3 -39 -3q2 18 13 51 q11 11 30 32q23 32 83 56q19 3 55 14q7 3 23 20q14 14 23 14q5 0 15.5 -4.5t16.5 -3.5q22 1 43 -5q7 -6 22 -15q9 0 27 -3q23 -8 36 -23q9 -13 33 -26q18 -11 37 -21q16 -9 37 -9q17 0 59 10q30 7 30 52q0 15 -4 30q-9 47 -33 54q-17 3 -50 15q-11 6 -42 33q-23 20 -48 23 q-2 0 -38 6q-23 4 -38 3q-18 -6 -56 -12q-30 -2 -54 1q-19 3 -46 -23q-10 -10 -33 -13.5t-32 -10.5q-33 -19 -94 -66q-12 -15 -39 -37q-13 -13 -90 -142q-31 18 -49 18q-11 0 -28.5 -8.5t-20.5 -17.5q-10 -35 -10 -38q0 -8 4 -13q9 -11 48 -11q23 0 41 -13q-8 -21 -4 -27 t-9 -7q-8 0 -25 1.5t-18 1.5q-2 -1 -28 -6q-16 -3 -21 -10q-21 -32 -19 -48q2 -17 16 -31t31 -14q10 0 35 7t35 7q19 0 22 -17q10 -67 34 -119q4 -9 5 -26.5t7 -27.5q12 -18 33 -56q4 -10 21 -19q25 -12 28 -15q18 -9 53 -31q13 -10 60 -11q39 -1 57 -14q23 -17 57 -5 q35 13 49 13q10 0 20 -3q38 -14 59 -2q35 13 101 53q19 12 54 38q6 5 13 18.5t14 18.5q19 12 22 45q0 4 2.5 16t2.5 18q0 26 -34 26q-46 0 -72 -48q-11 -21 -40 -36t-52 -11q-20 -3 -61 -5q-9 2 -26 4q-9 -2 -27 -3q-8 4 -26 9q-9 -1 -27 -1q-12 2 -23.5 3.5t-20.5 9.5 t-27.5 13t-25 12t-19.5 11.5t-18 9.5q-6 12 -25 34q-9 8 -14 22t-9 27z" />
<glyph unicode="&#x2122;" horiz-adv-x="947" d="M145 693q-5 4 -18 11q-35 6 -44 -19q0 -3 -7 -5.5t-13 -6.5q-16 -9 -26 -6q-22 7 -16 42q3 17 39 27q4 1 8.5 7t8.5 4q6 -3 12 0l12 8q11 4 23 -1q9 -1 25 -5q6 3 21 3q10 0 30 -4q5 -2 23 -3q8 -1 25 -7.5t24 -4.5q6 2 29 4q17 0 50 2q25 3 25 -15q0 -6 -23 -31 q-7 1 -23 -5q-4 1 -13 0q-3 -1 -10 -3q-13 -4 -54 -8q-10 -1 -24 -8q-8 -3 -24 -11q-9 -5 -27 -13q-27 -7 -42 -25q-6 -5 -15 -15l-12 -27q-17 -28 -12 -47q2 -8 6.5 -24t7.5 -22q6 -12 14 -17.5t21 -14.5q8 -6 26 -8q14 -2 28 -3q17 -4 23 -2q3 1 25 4q28 3 45 18 q26 25 35 25q14 0 16 -12t-7 -25q-4 -7 -13 -20q-7 -5 -20 -15q-38 -30 -67 -29q-4 0 -12.5 2.5t-13.5 1.5q-5 -5 -16 -11q-3 2 -11 5q-7 0 -18 1q-7 4 -23.5 4t-24 4.5t-22.5 14.5q-8 4 -23 16q-17 19 -15 38q0 6 -7.5 16t-6.5 16q0 12 -1 36q0 24 1 21q-1 5 5 21 q4 10 5 22q0 4 12 16q8 10 27 30q9 10 29 24q41 10 41 19q-1 4 -18 10zM900 451l20 10q4 5 14 12q20 6 24 -11q6 -26 -9 -43q-7 -5 -18 -15q-10 -13 -20 -19q-21 -13 -48 1q-4 2 -11 0q-10 -2 -12 -2h-30q-16 -8 -22 -5q-7 4 -21 10q-7 2 -7 6v12q-1 7 13.5 20.5t38.5 24.5 q2 1 14 22q5 5 10 11.5t4.5 12.5t4 11.5t5.5 5.5q4 8 3 26q5 20 1 60v22q-4 7 -10 21q-2 10 -11.5 13t-16.5 14t-46 4q-9 -2 -18 -11q-8 -3 -22 -15q-4 -6 -5 -15q-1 -6 0 -17q1 -13 1 -16q2 -19 -1 -55q-3 -4 -5 -12q1 -5 1 -14q0 -3 -3 -9t-2 -11q6 -34 -7 -54 q-2 -8 -8 -20.5t-16 -18.5q-31 -21 -36 -21q-24 0 -22 24q0 1 9 18q14 25 23 44q1 9 6 25q5 12 0 22q-2 7 1 11q6 8 6 10q3 8 0 29q-2 10 -6 24q-4 9 -10 26q-2 14 -7 23.5t-15 24.5q-19 17 -46 12q-8 1 -24 -2q-11 -3 -24 -14q-19 -17 -19 -42q-2 -8 -3 -23q1 -9 5 -28 q2 -8 -1 -23q-4 -18 -4 -24q-1 -9 0 -26q0 -2 2.5 -11.5t2.5 -14.5q-3 -15 8 -17.5t22 -4.5q11 -6 4 -17q-11 -18 -18 -23q-20 -15 -39 -21q-13 -5 -22 -1q-13 5 -17 16q1 8 1 25q-6 33 -3 81q0 9 -2 26.5t-2 22.5q3 7 5 21q-6 18 -3 21t3 22q0 -6 -4 27q1 7 -2 20 q-4 9 -17 12q-35 9 -41 24q-2 4 -2 10q0 32 23 30q15 -2 47 -5q17 0 40 -23q8 -10 11 -9q6 2 17 10q7 3 19 10q7 6 21 12q15 -1 43 3q13 5 21 1q9 -1 26 -7q4 -3 12 -8q5 -3 10.5 -15.5t12.5 -14.5t21 7q11 9 36 25q10 5 21 4q8 2 25 3q14 1 42 -4q23 -9 27 -24q4 -5 12 -16 q5 -12 19 -35q3 -8 8 -23q2 -14 5 -44q2 -12 -3 -24q-3 -7 -3 -25q0 -3 -1.5 -10.5t-1.5 -12.5q1 -11 -6 -21q-3 -7 -10 -21q-11 -23 -11 -25q0 -7 23 -2z" />
<glyph unicode="&#xe000;" horiz-adv-x="510" d="M0 510h510v-510h-510v510z" />
<glyph unicode="&#xfb01;" horiz-adv-x="577" />
<glyph unicode="&#xfb02;" horiz-adv-x="747" d="M453 730q-8 5 -18.5 24.5t-15.5 24.5t-5 11t7 15q10 14 11 16q22 43 67 43q13 0 25 -5q39 -15 54 -25q26 -19 28 -49q7 -20 17 -55q4 -16 11 -48q1 -18 11 -53q2 -4 2 -10q0 -9 -6 -26q-6 -20 -7 -25q-3 -22 -1 -61q1 -43 0 -61q-3 -8 -8 -25q1 -8 1 -25q0 -3 -2.5 -11 t-2.5 -13q0 -4 5 -16q3 -10 0 -17q-3 -9 -1 -24q2 -16 0 -24q-7 -32 -7 -56q1 -9 6 -26.5t5 -27.5q-2 -45 20 -46q10 0 31 15q26 19 32 21l28 16q18 9 32 9q29 0 29 -32q0 -28 -18 -65q-10 -20 -29 -33.5t-38 -25.5q-65 -54 -114 -53q-28 0 -53 24t-31 51q-2 19 -12 57 q-4 10 0 29q2 8 -1 21t-3 18q-1 10 1 29.5t2 27.5q-2 19 -4 58q3 41 6 123q5 18 14 54q7 31 9 56q1 29 3 58q1 33 -8 57q-18 51 -72 80zM36 -307q7 7 13 13.5t8 16.5t4 29q-2 12 -4 37q6 23 14 84q1 4 -2 11.5t-3 10.5q1 52 0 113q-4 17 -7 75q-4 60 0 76q3 16 -4 69 q-1 15 1 27.5t2 13.5q0 10 -8 27q-4 8 -4 14q0 7 10.5 20.5t8.5 29.5q-1 9 -11 23t-10 25.5t-13 54.5q-9 28 -17 55q-4 17 -38 46q-40 33 -48.5 46.5t-8.5 27.5q0 39 49 60q10 4 38 -13q32 -21 38 -22q11 -3 23 -12q15 -12 20.5 -14.5t9.5 -2.5q10 0 14 20q7 28 12 36 q9 14 35.5 26.5t35.5 24.5q12 16 40 16q31 0 58 -16q9 -5 23 -22.5t21 -22.5q15 -7 44 -23q2 -1 34 -8q22 -5 22 -19q0 -21 -28 -60q-13 -18 -25 -24q-6 -2 -34 -7q-18 -3 -35 16q-26 27 -33.5 31.5t-20.5 17.5q-9 8 -18 8q-13 0 -39 -16q-8 -5 -14 -26q-7 -24 -12 -29 q-15 -19 -21 -36q-3 -10 0 -52q4 -46 4 -52q-1 -13 -3 -27q0 -17 9 -24q6 -5 12 -5q3 0 21 7.5t39 7.5q7 0 19 -7t22 -7q7 0 19 3.5t19 3.5q21 0 38 -17.5t18 -39.5q0 -16 -16.5 -39t-31.5 -28q-31 -10 -98 -4q-23 2 -45 -35q-19 -32 -21 -59q-1 -15 9.5 -60t10.5 -64 q0 -11 -2 -20q-3 -60 -10 -136q-11 -35 -6 -51q15 -47 15 -48q0 -11 -7.5 -21t-10.5 -52q-4 -35 -25 -48q-10 -13 -30 -34q-9 -2 -26 -8q-17 -9 -35 0q-22 11 -22 43q0 30 14 45z" />
</font>
</defs>
</svg>
